<?xml version="1.0" encoding="utf-8"?>
<!-- Generator: Adobe Illustrator 19.1.0, SVG Export Plug-In . SVG Version: 6.00 Build 0)  -->
<svg version="1.1" id="Layer_1" xmlns="http://www.w3.org/2000/svg" xmlns:xlink="http://www.w3.org/1999/xlink" x="0px" y="0px"
	 viewBox="0 0 13 17" style="enable-background:new 0 0 13 17;" xml:space="preserve">
<style type="text/css">
	.st0{fill:url(#SVGID_1_);}
	.st1{fill:url(#SVGID_2_);}
</style>
<g>
	<linearGradient id="SVGID_1_" gradientUnits="userSpaceOnUse" x1="8.7893" y1="16.5054" x2="8.7893" y2="13.5676">
		<stop  offset="0" style="stop-color:#3D2F90"/>
		<stop  offset="0.113" style="stop-color:#4F3292"/>
		<stop  offset="0.4098" style="stop-color:#763C96"/>
		<stop  offset="0.6672" style="stop-color:#90459A"/>
		<stop  offset="0.8725" style="stop-color:#A14B9C"/>
		<stop  offset="1" style="stop-color:#A74D9D"/>
	</linearGradient>
	<polygon class="st0" points="7.3,14.7 9.1,16.5 10.3,15.4 8.4,13.6 	"/>
	<linearGradient id="SVGID_2_" gradientUnits="userSpaceOnUse" x1="6.5" y1="16.508" x2="6.5" y2="9.198041e-002">
		<stop  offset="0" style="stop-color:#3D2F90"/>
		<stop  offset="0.113" style="stop-color:#4F3292"/>
		<stop  offset="0.4098" style="stop-color:#763C96"/>
		<stop  offset="0.6672" style="stop-color:#90459A"/>
		<stop  offset="0.8725" style="stop-color:#A14B9C"/>
		<stop  offset="1" style="stop-color:#A74D9D"/>
	</linearGradient>
	<path class="st1" d="M12.4,5.3L7.8,0.6C7.5,0.3,7,0.1,6.5,0.1s-1,0.2-1.3,0.6L0.6,5.3c-0.7,0.7-0.7,1.9,0,2.7l4,4l1.1-1.1L2,7.1
		C1.9,7,1.8,6.8,1.8,6.6c0-0.2,0.1-0.4,0.2-0.5l4-4c0.3-0.3,0.8-0.3,1,0l4,4c0.1,0.1,0.2,0.3,0.2,0.5c0,0.2-0.1,0.4-0.2,0.5
		l-8.3,8.3l1.1,1.1l8.6-8.6C13.2,7.2,13.2,6,12.4,5.3z"/>
</g>
</svg>
