<svg xmlns="http://www.w3.org/2000/svg" xmlns:xlink="http://www.w3.org/1999/xlink" preserveAspectRatio="xMidYMid" width="17.813" height="16.281" viewBox="0 0 17.813 16.281">
  <defs>
    <style>
      .cls-1 {
        fill: #96448d;
        fill-rule: evenodd;
      }
    </style>
  </defs>
  <path d="M17.819,8.821 L16.405,10.236 L16.000,9.831 L16.000,14.281 L16.000,16.281 L2.000,16.281 L2.000,14.281 L2.000,9.647 L1.378,10.267 L-0.006,8.887 L3.000,5.890 L3.000,0.281 L5.000,0.281 L5.000,3.896 L8.624,0.283 L8.671,0.331 L9.000,0.002 L17.819,8.821 ZM8.000,14.281 L10.000,14.281 L10.000,10.281 L8.000,10.281 L8.000,14.281 ZM4.000,8.281 L4.000,14.281 L6.000,14.281 L6.000,10.281 L6.000,8.281 L8.000,8.281 L10.000,8.281 L12.000,8.281 L12.000,10.281 L12.000,14.281 L14.000,14.281 L14.000,8.281 L14.450,8.281 L8.918,2.749 L3.370,8.281 L4.000,8.281 Z" class="cls-1"/>
</svg>
