<svg xmlns="http://www.w3.org/2000/svg" xmlns:xlink="http://www.w3.org/1999/xlink" preserveAspectRatio="xMidYMid" width="16" height="14" viewBox="0 0 16 14">
  <defs>
    <style>
      .cls-1 {
        fill: #96448d;
        fill-rule: evenodd;
      }
    </style>
  </defs>
  <path d="M12.000,14.000 L12.000,10.000 L13.000,10.000 L13.000,8.000 L9.000,8.000 L9.000,10.000 L10.000,10.000 L10.000,14.000 L6.000,14.000 L6.000,10.000 L7.000,10.000 L7.000,8.000 L3.000,8.000 L3.000,10.000 L4.000,10.000 L4.000,14.000 L-0.000,14.000 L-0.000,10.000 L1.000,10.000 L1.000,8.000 L1.000,6.000 L7.000,6.000 L7.000,4.000 L5.000,4.000 L5.000,-0.001 L11.000,-0.001 L11.000,4.000 L9.000,4.000 L9.000,6.000 L15.000,6.000 L15.000,8.000 L15.000,10.000 L16.000,10.000 L16.000,14.000 L12.000,14.000 Z" class="cls-1"/>
</svg>
