<svg xmlns="http://www.w3.org/2000/svg" xmlns:xlink="http://www.w3.org/1999/xlink" preserveAspectRatio="xMidYMid" width="18" height="15" viewBox="0 0 18 15">
  <defs>
    <style>
      .cls-1 {
        fill: #96448d;
        fill-rule: evenodd;
      }
    </style>
  </defs>
  <path d="M18.000,1.773 C17.338,2.075 16.626,2.278 15.879,2.370 C16.641,1.901 17.227,1.159 17.503,0.274 C16.789,0.708 15.999,1.023 15.158,1.193 C14.484,0.458 13.524,-0.002 12.462,-0.002 C10.423,-0.002 8.769,1.693 8.769,3.784 C8.769,4.082 8.802,4.369 8.865,4.648 C5.796,4.489 3.075,2.982 1.253,0.691 C0.935,1.250 0.753,1.901 0.753,2.594 C0.753,3.909 1.405,5.067 2.396,5.747 C1.791,5.727 1.221,5.557 0.723,5.275 C0.723,5.289 0.723,5.305 0.723,5.320 C0.723,7.156 1.996,8.685 3.685,9.034 C3.375,9.120 3.049,9.167 2.712,9.167 C2.474,9.167 2.243,9.142 2.018,9.099 C2.487,10.603 3.851,11.697 5.467,11.728 C4.203,12.744 2.611,13.350 0.881,13.350 C0.583,13.350 0.289,13.332 0.000,13.296 C1.634,14.370 3.575,14.997 5.661,14.997 C12.454,14.997 16.168,9.228 16.168,4.224 C16.168,4.060 16.164,3.896 16.157,3.733 C16.879,3.200 17.505,2.533 18.000,1.773 L18.000,1.773 Z" class="cls-1"/>
</svg>
