<?xml version="1.0" encoding="utf-8"?>
<!-- Generator: Adobe Illustrator 19.1.0, SVG Export Plug-In . SVG Version: 6.00 Build 0)  -->
<svg version="1.1" id="Layer_1" xmlns="http://www.w3.org/2000/svg" xmlns:xlink="http://www.w3.org/1999/xlink" x="0px" y="0px"
	 viewBox="0 0 15 22" style="enable-background:new 0 0 15 22;" xml:space="preserve">
<style type="text/css">
	.st0{fill:#96448d;}
</style>
<polygon class="st0" points="5.5,0.1 4,0.1 3,3.9 3,3.9 2,0.1 0.5,0.1 0.5,0.1 2.3,5.9 2.3,9.7 3.7,9.7 3.7,5.7 5.5,0.1 "/>
<path class="st0" d="M5.9,9.3c0.3,0.4,0.8,0.5,1.4,0.5h0c0.6,0,1.1-0.2,1.4-0.5C9.1,9,9.2,8.5,9.2,7.9V4.3c0-0.5-0.2-1-0.5-1.3
	C8.4,2.6,7.9,2.4,7.4,2.4c-0.6,0-1.1,0.2-1.4,0.5C5.6,3.3,5.4,3.7,5.4,4.2l0,3.7C5.4,8.5,5.6,9,5.9,9.3L5.9,9.3z M6.8,4.2L6.8,4.2
	c0-0.2,0.1-0.3,0.2-0.4C7,3.7,7.1,3.7,7.3,3.7c0.2,0,0.3,0,0.4,0.1C7.8,3.9,7.9,4,7.9,4.2V8c0,0.2-0.1,0.3-0.2,0.4
	C7.6,8.6,7.5,8.6,7.3,8.6C7.1,8.6,7,8.6,6.9,8.5C6.8,8.4,6.8,8.2,6.8,8V4.2L6.8,4.2z"/>
<path class="st0" d="M12.8,2.6V8c-0.1,0.2-0.3,0.3-0.4,0.4c-0.1,0.1-0.3,0.1-0.4,0.1c-0.1,0-0.2,0-0.3-0.1c-0.1-0.1-0.1-0.2-0.1-0.4
	V2.6h-1.3v5.9c0,0.4,0.1,0.7,0.2,0.9c0.2,0.2,0.4,0.3,0.7,0.3c0.2,0,0.5-0.1,0.8-0.2c0.3-0.2,0.5-0.4,0.8-0.7v0.8h1.3V2.6H12.8
	L12.8,2.6z"/>
<g>
	<path class="st0" d="M9.1,14.8c-0.1,0-0.1,0-0.2,0c-0.1,0-0.1,0.1-0.2,0.1v3c0.1,0.1,0.1,0.1,0.2,0.2c0.1,0,0.1,0.1,0.2,0.1
		c0.1,0,0.2,0,0.2-0.1c0.1-0.1,0.1-0.2,0.1-0.3v-2.5c0-0.2,0-0.3-0.1-0.4C9.3,14.9,9.2,14.8,9.1,14.8z"/>
	<path class="st0" d="M12.4,14.9c-0.1,0-0.2,0-0.3,0.1C12,15.1,12,15.2,12,15.4v0.5h0.8v-0.5c0-0.2,0-0.3-0.1-0.4
		C12.6,14.9,12.5,14.9,12.4,14.9z"/>
	<path class="st0" d="M14.8,13c0-1.2-1-2.1-2.1-2.1c-1.6-0.1-3.2-0.1-4.9-0.1c-0.1,0-0.2,0-0.3,0c-0.1,0-0.2,0-0.3,0
		c-1.7,0-3.3,0-4.9,0.1c-1.2,0-2.1,0.9-2.1,2.1c-0.1,0.9-0.1,1.9-0.1,2.8c0,0.9,0,1.9,0.1,2.8c0,1.2,1,2.1,2.1,2.1
		c1.6,0.1,3.3,0.1,4.9,0.1c0.1,0,0.2,0,0.2,0c0.1,0,0.2,0,0.2,0c1.7,0,3.3,0,4.9-0.1c1.2,0,2.1-0.9,2.1-2.1c0.1-0.9,0.1-1.9,0.1-2.8
		C14.9,14.9,14.9,13.9,14.8,13z M3.3,19h-1v-5.6h-1v-1h3.1v1h-1V19z M6.9,19H6v-0.5c-0.2,0.2-0.3,0.3-0.5,0.5
		C5.3,19,5.1,19.1,5,19.1c-0.2,0-0.4-0.1-0.5-0.2c-0.1-0.1-0.2-0.4-0.2-0.6v-4h0.9v3.7c0,0.1,0,0.2,0.1,0.2c0,0.1,0.1,0.1,0.2,0.1
		c0.1,0,0.1,0,0.3-0.1C5.8,18,5.9,17.9,6,17.8v-3.7h0.9V19z M10.4,18c0,0.3-0.1,0.6-0.2,0.8C10,19,9.8,19,9.6,19
		c-0.2,0-0.3,0-0.5-0.1c-0.1-0.1-0.3-0.2-0.4-0.3V19H7.8v-6.6h0.9v2.1c0.1-0.1,0.3-0.3,0.4-0.3c0.1-0.1,0.3-0.1,0.4-0.1
		c0.3,0,0.5,0.1,0.7,0.3c0.2,0.2,0.2,0.5,0.2,0.9V18z M13.7,16.7H12v0.9c0,0.3,0,0.4,0.1,0.5c0.1,0.1,0.2,0.1,0.3,0.1
		c0.1,0,0.3,0,0.3-0.1c0.1-0.1,0.1-0.3,0.1-0.6v-0.3h0.9v0.4c0,0.5-0.1,0.9-0.3,1.1c-0.2,0.3-0.6,0.4-1,0.4c-0.4,0-0.7-0.1-1-0.4
		c-0.2-0.3-0.3-0.6-0.3-1.1v-2.2c0-0.4,0.1-0.8,0.4-1c0.3-0.3,0.6-0.4,1-0.4c0.4,0,0.7,0.1,0.9,0.4c0.2,0.2,0.3,0.6,0.3,1.1V16.7z"
		/>
</g>
</svg>
