<?xml version="1.0" encoding="utf-8"?>
<!-- Generator: Adobe Illustrator 19.1.0, SVG Export Plug-In . SVG Version: 6.00 Build 0)  -->
<svg version="1.1" id="Layer_1" xmlns="http://www.w3.org/2000/svg" xmlns:xlink="http://www.w3.org/1999/xlink" x="0px" y="0px"
	 viewBox="0 0 14 18" style="enable-background:new 0 0 14 18;" xml:space="preserve">
<style type="text/css">
	.st0{fill-rule:evenodd;clip-rule:evenodd;fill:#FFFFFF;}
</style>
<path class="st0" d="M8.2,13.9c0.1-0.4,0.4-0.8,0.6-1.3C9.1,12,9,11.7,9,11c1.5,0.3,1.8,0.1,3-0.4c0.2,0.2,0.6,3.6,0.7,4.2
	c-0.2,0.1-0.3,0.2-0.5,0.3c-0.2,0.2-0.2,0.3-0.4,0.4L8.2,13.9L8.2,13.9z M4.4,5.4c0.2,0.1,1.2,1.5,1.4,1.8L7.9,10
	c0.5,0.7,0.9,1.3,0.5,2.5c-0.1,0.2-0.1,0.4-0.2,0.6c0,0.1-0.1,0.2-0.1,0.2c-0.1,0.1,0,0-0.1,0.1c0,0,0,0,0,0l-0.1,0.1c0,0,0,0,0,0
	c-0.1-0.1-0.1-0.1-0.2-0.2L4.8,9.5c-0.5-0.7-1-1.3-1.5-2.1C2.8,6.9,4.1,5.7,4.4,5.4L4.4,5.4z M4.8,5c0.3-0.1,2-1.3,2.4-0.9l0.8,1
	c0.5,0.6,3.6,4.7,3.8,5.1c-0.8,0.4-1.7,0.6-2.7,0.3c-0.5-0.2-1.2-1.3-1.5-1.8C7.1,8.2,6.6,7.6,6.2,7C5.9,6.6,4.8,5.3,4.8,5L4.8,5z
	 M6,3.5C5.6,3.6,4.8,4,4.6,4.1C4.5,4.3,4.2,4.5,4,4.6C3.3,5.1,3,5.6,2.6,6.3L2.5,6.5C2.2,6.2,1.9,5.8,1.7,5.4
	c0.2-0.9,1.4-2.1,2.1-2.5c0.4-0.2,1-0.6,1.5-0.6l0.5-0.1c0.2,0.2,0.8,1,0.9,1.2L6,3.5L6,3.5z M1.1,4.6c-0.3-1.6,2.3-3.8,4-3.1
	C4.9,1.6,3,2,1.8,3.6C1.5,3.9,1.2,4.5,1.1,4.6L1.1,4.6z M7,14.3c0.4,0.5,0.5,0.5,1.3,0.8c1.7,0.7,4.1,1.7,5.7,2.5
	c-0.1-1.9-0.6-5-0.9-7C13,9.8,6.4,1,5.8,0.6c-2-1.5-7.3,2.3-5.4,4.8C0.8,6,1.2,6.5,1.7,7.1C7.9,15.4,2.1,7.5,7,14.3L7,14.3z"/>
</svg>
