<svg xmlns="http://www.w3.org/2000/svg" xmlns:xlink="http://www.w3.org/1999/xlink" preserveAspectRatio="xMidYMid" width="11.031" height="14" viewBox="0 0 11.031 14">
  <defs>
    <style>
      .cls-1 {
        fill: #fafafa;
        fill-rule: evenodd;
      }
    </style>
  </defs>
  <path d="M5.411,7.957 C4.976,7.951 3.659,7.948 3.659,7.948 L3.659,11.338 C3.659,11.338 4.573,11.343 5.507,11.328 C5.778,11.324 7.539,11.272 7.539,9.562 C7.539,7.774 5.450,7.958 5.411,7.957 L5.411,7.957 ZM5.086,2.591 C4.458,2.573 3.659,2.574 3.659,2.574 L3.659,5.535 C3.659,5.535 4.678,5.530 5.118,5.509 C6.878,5.419 6.656,4.119 6.656,3.965 C6.656,3.902 6.826,2.631 5.086,2.591 ZM5.033,0.014 C6.070,0.014 7.145,0.050 7.625,0.125 C8.105,0.201 8.583,0.365 9.054,0.623 C9.544,0.890 9.905,1.255 10.145,1.705 C10.385,2.160 10.504,2.680 10.504,3.262 C10.504,3.936 10.338,4.532 10.011,5.049 C9.684,5.568 9.219,5.968 8.621,6.259 L8.621,6.332 C9.464,6.516 9.812,6.889 10.304,7.460 C10.796,8.030 11.041,8.783 11.041,9.715 C11.041,10.391 10.917,10.994 10.667,11.526 C10.416,12.062 10.072,12.501 9.635,12.853 C9.128,13.265 8.572,13.559 7.964,13.735 C7.357,13.912 6.586,13.998 5.654,13.998 L0.008,13.998 L0.008,0.014 L5.033,0.014 L5.033,0.014 Z" class="cls-1"/>
</svg>
