<?xml version="1.0" encoding="utf-8"?>
<!-- Generator: Adobe Illustrator 19.1.0, SVG Export Plug-In . SVG Version: 6.00 Build 0)  -->
<svg version="1.1" id="Layer_1" xmlns="http://www.w3.org/2000/svg" xmlns:xlink="http://www.w3.org/1999/xlink" x="0px" y="0px"
	 viewBox="0 0 1490 1326" style="enable-background:new 0 0 1490 1326;" xml:space="preserve">
<style type="text/css">
	.st0{fill:url(#SVGID_1_);}
	.st1{fill:#3F338E;}
</style>
<g>
	<linearGradient id="SVGID_1_" gradientUnits="userSpaceOnUse" x1="745" y1="1036.9471" x2="745" y2="77.0838">
		<stop  offset="0" style="stop-color:#3D2F90"/>
		<stop  offset="0.113" style="stop-color:#4F3292"/>
		<stop  offset="0.4098" style="stop-color:#763C96"/>
		<stop  offset="0.6672" style="stop-color:#90459A"/>
		<stop  offset="0.8725" style="stop-color:#A14B9C"/>
		<stop  offset="1" style="stop-color:#A74D9D"/>
	</linearGradient>
	<path class="st0" d="M305.3,765.1L57.8,1012.6l24.3,24.3l247.5-247.5L305.3,765.1z M570.4,500L364.9,705.5l24.3,24.3l205.5-205.5
		L570.4,500z M630.1,440.3l24.3,24.3l218.8-218.8c15.8-15.8,15.8-41.6,0-57.5L773.7,89c-7.7-7.7-17.9-11.9-28.7-11.9
		s-21.1,4.2-28.7,11.9l-99.4,99.4c-15.8,15.8-15.8,41.6,0,57.5l86.2,86.2l24.3-24.3l-79.6-79.6c-3-3-4.6-6.9-4.6-11
		c0-4.2,1.6-8.1,4.6-11.1l86.2-86.2c5.9-5.9,16.2-5.9,22.1,0l86.2,86.2c3,2.9,4.6,6.9,4.6,11c0,4.2-1.6,8.1-4.6,11L630.1,440.3z
		 M1293,922l114.9,114.9l24.3-24.3l-114.9-114.9L1293,922z M1027.9,922.1l86.1,86.1c15.8,15.8,41.6,15.8,57.4,0l232-232
		c15.8-15.8,15.8-41.6,0-57.5l-99.4-99.4c-7.7-7.7-17.9-11.9-28.7-11.9s-21.1,4.2-28.7,11.9l-86.2,86.2l24.3,24.3l79.6-79.6
		c5.9-5.9,16.2-5.9,22.1,0l86.2,86.2c3,2.9,4.6,6.9,4.6,11c0,4.2-1.6,8.1-4.6,11l-218.8,218.8c-3,3-6.9,4.6-11,4.6
		c-4.2,0-8.1-1.6-11.1-4.6l-79.5-79.5L1027.9,922.1z M762.7,922l86.2,86.2c15.8,15.8,41.4,15.8,57.3,0.2l0.2-0.2l218.8-218.8
		l-24.3-24.3L888.6,977.3c-2.9,3-6.9,4.6-11,4.6c-4.2,0-8.1-1.6-11-4.6L787,897.7L762.7,922z M919.6,729.8L1138.3,511
		c15.8-15.8,15.8-41.6,0-57.5l-99.4-99.4c-15.8-15.8-41.6-15.8-57.5,0l-86.2,86.2l24.3,24.3l79.6-79.6c5.9-5.9,16.2-5.9,22.1,0
		l86.2,86.2c6.1,6.1,6.1,16,0,22.1L895.3,705.5L919.6,729.8z M762.7,656.9l205.6,205.6l24.3-24.3L787,632.6L762.7,656.9z
		 M727.3,572.9L508.6,354.1c-15.8-15.8-41.6-15.8-57.5,0l-99.4,99.4c-15.8,15.8-15.8,41.6,0,57.5l86.2,86.2l24.3-24.3l-79.6-79.6
		c-6.1-6.1-6.1-16,0-22.1l86.2-86.2c6.1-6.1,16-6.1,22.1,0L703,597.2L727.3,572.9z M497.5,922l86.2,86.2c15.8,15.8,41.6,15.8,57.4,0
		l218.8-218.8l-24.3-24.3L623.5,977.3c-3,3-6.9,4.6-11,4.6c-4.2,0-8.1-1.6-11.1-4.6l-79.6-79.6L497.5,922z M462.2,838.1L243.4,619.3
		c-7.7-7.7-17.9-11.9-28.7-11.9s-21.1,4.2-28.7,11.9l-99.4,99.4c-15.8,15.8-15.8,41.6,0,57.5l86.2,86.2l24.3-24.3l-79.6-79.6
		c-3-3-4.6-6.9-4.6-11c0-4.2,1.6-8.1,4.6-11.1l86.2-86.2c5.9-5.9,16.2-5.9,22.1,0l212.1,212.1L462.2,838.1z M594.7,789.4l-24.3-24.3
		L358.3,977.3c-2.9,3-6.9,4.6-11,4.6c-4.2,0-8.1-1.6-11-4.6l-79.6-79.5L232.3,922l86.2,86.2c15.8,15.8,41.6,15.8,57.4,0L594.7,789.4
		z M703,862.4l24.3-24.3L521.8,632.6l-24.3,24.3L703,862.4z M654.4,729.8l205.5-205.5L835.6,500L630.1,705.5L654.4,729.8z
		 M1257.6,838.1l-205.5-205.5l-24.3,24.3l205.5,205.5L1257.6,838.1z M992.5,572.9L787,367.4l-24.3,24.3l205.5,205.5L992.5,572.9z"/>
	<path class="st1" d="M160.6,1237.7l90.4-127.1h-90.4v-11.7h106.6v11l-90.4,127.3h92v11.7H160.6V1237.7z"/>
	<path class="st1" d="M432.2,1098.9h95.2v11.7h-82.3v55.6h80.8v11.7h-80.8v59.4h82.3v11.7h-95.2V1098.9z"/>
	<path class="st1" d="M716.1,1098.9h95.2v11.7H729v55.6h80.8v11.7H729v71.1h-12.8V1098.9z"/>
	<path class="st1" d="M1003.7,1098.9h12.8v150.1h-12.8V1098.9z"/>
	<path class="st1" d="M1263.2,1186.8h-33.1v62.1h-12.8v-150.1h56c25.9,0,45.7,16.4,45.7,43.9c0,27.2-19.3,42.3-41.6,43.2l43.4,63
		h-15.5L1263.2,1186.8z M1272.2,1110.6h-42.1v64.6h42.1c19.8,0,33.3-13.5,33.3-32.4C1305.5,1123.8,1292,1110.6,1272.2,1110.6z"/>
</g>
</svg>
