<?xml version="1.0" standalone="no"?>
<!DOCTYPE svg PUBLIC "-//W3C//DTD SVG 1.1//EN" "http://www.w3.org/Graphics/SVG/1.1/DTD/svg11.dtd" >
<svg>
<metadata>
Created by FontForge 20120731 at Thu Jun  9 21:34:43 2016
 By ,,,
Copyright (c) 2014 by Andriy Konstantynov. All rights reserved.
</metadata>
<defs>
<font id="ProbaPro-Italic" horiz-adv-x="220" >
  <font-face 
    font-family="Proba Pro"
    font-weight="400"
    font-style="italic"
    font-stretch="normal"
    units-per-em="1000"
    panose-1="2 13 0 3 3 2 0 0 0 0"
    ascent="750"
    descent="-250"
    x-height="450"
    cap-height="700"
    bbox="-28 -257 1237.31 1001"
    underline-thickness="50"
    underline-position="-50"
    slope="-10"
    unicode-range="U+0020-FB03"
  />
<missing-glyph horiz-adv-x="230" 
 />
    <glyph glyph-name="ff" unicode="ff" horiz-adv-x="578" 
d="M305 -250l113 642h-179l-113 -642h-76l114 642h-63l11 58h62l28 156q12 68 60 109.5t116 41.5q30 0 53 -10l-12 -62q-17 10 -40 10q-39 0 -67 -25t-35 -64l-27 -156h179l27 156q12 68 60 109.5t116 41.5q30 0 53 -10l-11 -62q-18 10 -41 10q-39 0 -66.5 -25t-35.5 -64
l-27 -156h128l-10 -58h-129l-113 -642h-75z" />
    <glyph glyph-name="fi" unicode="fi" horiz-adv-x="496" 
d="M350 0l68 392h-179l-113 -642h-76l114 642h-63l11 58h62l28 156q12 68 60 109.5t116 41.5q30 0 53 -10l-12 -62q-17 10 -40 10q-39 0 -67 -25t-35 -64l-27 -156h251l-79 -450h-72zM440 585q3 20 20 34.5t37 14.5q21 0 32.5 -14t8.5 -35q-4 -20 -21 -34.5t-37 -14.5
q-21 0 -32.5 14.5t-7.5 34.5z" />
    <glyph glyph-name="ffi" unicode="ffi" horiz-adv-x="750" 
d="M604 0l68 392h-179l-113 -642h-75l113 642h-179l-113 -642h-76l114 642h-63l11 58h62l28 156q12 68 60 109.5t116 41.5q30 0 53 -10l-12 -62q-17 10 -40 10q-39 0 -67 -25t-35 -64l-27 -156h179l27 156q12 68 60 109.5t116 41.5q30 0 53 -10l-11 -62q-18 10 -41 10
q-39 0 -66.5 -25t-35.5 -64l-27 -156h252l-79 -450h-73zM694 585q4 20 20.5 34.5t37.5 14.5q20 0 32 -14.5t8 -34.5t-21 -34.5t-37 -14.5q-21 0 -32.5 14.5t-7.5 34.5z" />
    <glyph glyph-name="f_j" unicode="fj" horiz-adv-x="496" 
d="M249 -250l9 49q55 0 65 53l95 540h-179l-113 -642h-76l114 642h-63l11 58h62l28 156q12 68 60 109.5t116 41.5q30 0 53 -10l-12 -62q-17 10 -40 10q-39 0 -67 -25t-35 -64l-27 -156h251l-106 -600q-8 -48 -39 -76t-74 -28q-24 0 -33 4zM440 585q3 20 20 34.5t37 14.5
q21 0 32.5 -14t8.5 -35q-4 -20 -21 -34.5t-37 -14.5q-21 0 -32.5 14.5t-7.5 34.5z" />
    <glyph glyph-name="afii10104_afii10104" unicode="&#x457;&#x457;" horiz-adv-x="439" 
d="M73 0l79 450h73l-79 -450h-73zM85 560q4 19 19.5 32.5t35.5 13.5t31 -13.5t7 -32.5q-3 -20 -19 -33.5t-35 -13.5t-30.5 13.5t-8.5 33.5zM293 0l79 450h73l-79 -450h-73zM456 560q4 20 20.5 33.5t35.5 13.5q20 0 31 -14t7 -33q-3 -20 -19 -33.5t-36 -13.5
q-19 0 -30.5 13.5t-8.5 33.5zM271 560q4 20 20 33.5t35 13.5q20 0 31.5 -13.5t7.5 -33.5t-20 -33.5t-35 -13.5t-30.5 13.5t-8.5 33.5z" />
    <glyph glyph-name="afii10103_afii10104" unicode="&#x456;&#x457;" horiz-adv-x="439" 
d="M73 0l79 450h73l-79 -450h-73zM164 585q3 20 20 34.5t37 14.5q21 0 32.5 -14t8.5 -35q-5 -21 -21.5 -35t-37.5 -14q-20 0 -31.5 14.5t-7.5 34.5zM293 0l79 450h73l-79 -450h-73zM313 560q4 19 19.5 32.5t35.5 13.5t31 -13.5t8 -32.5q-4 -20 -20 -33.5t-35 -13.5
t-30.5 13.5t-8.5 33.5zM456 560q4 20 20.5 33.5t35.5 13.5q20 0 31 -14t7 -33q-3 -20 -19 -33.5t-36 -13.5q-19 0 -30.5 13.5t-8.5 33.5z" />
    <glyph glyph-name="quoteright_afii10104" unicode="&#x2019;&#x457;" horiz-adv-x="304" 
d="M137 491l-22 26q46 38 60 73q-17 2 -26.5 15.5t-6.5 32.5q4 20 21 34.5t38 14.5q19 0 31 -14t7 -43q-10 -62 -102 -139zM157 0l79 450h73l-79 -450h-73zM321 560q4 20 20 33.5t35 13.5q20 0 31 -13.5t7 -33.5q-3 -20 -19 -33.5t-36 -13.5t-31 14t-7 33z" />
    <glyph glyph-name="afii10056_afii10056" unicode="&#x407;&#x407;" horiz-adv-x="444" 
d="M73 0l123 700h76l-123 -700h-76zM126 797q3 19 19 33t36 14q19 0 30.5 -13.5t8.5 -33.5q-4 -19 -20 -32.5t-36 -13.5q-19 0 -30 13t-8 33zM295 0l123 700h76l-123 -700h-76zM505 797q4 20 19.5 33.5t35.5 13.5t31 -13.5t8 -33.5q-4 -20 -20 -33t-36 -13t-31 13.5t-7 32.5
zM315 797q4 20 19.5 33.5t35.5 13.5t31 -13.5t8 -33.5q-4 -20 -20 -33t-36 -13t-31 13.5t-7 32.5z" />
    <glyph glyph-name="f_f_j" unicode="ffj" horiz-adv-x="750" 
d="M503 -250l9 49q56 0 65 53l95 540h-179l-113 -642h-75l113 642h-179l-113 -642h-76l114 642h-63l11 58h62l28 156q12 68 60 109.5t116 41.5q30 0 53 -10l-12 -62q-17 10 -40 10q-39 0 -67 -25t-35 -64l-27 -156h179l27 156q12 68 60 109.5t116 41.5q30 0 53 -10l-11 -62
q-18 10 -41 10q-39 0 -66.5 -25t-35.5 -64l-27 -156h252l-107 -600q-8 -48 -39 -76t-74 -28q-24 0 -33 4zM694 585q4 20 20.5 34.5t37.5 14.5q20 0 32 -14.5t8 -34.5t-21 -34.5t-37 -14.5q-21 0 -32.5 14.5t-7.5 34.5z" />
    <glyph glyph-name=".notdef" horiz-adv-x="230" 
 />
    <glyph glyph-name=".null" horiz-adv-x="0" 
 />
    <glyph glyph-name="nonmarkingreturn" horiz-adv-x="333" 
 />
    <glyph glyph-name="space" unicode=" " horiz-adv-x="230" 
 />
    <glyph glyph-name="exclam" unicode="!" 
d="M68 42q3 20 20 34.5t37 14.5t32 -14.5t9 -34.5q-4 -21 -20.5 -35t-37.5 -14q-20 0 -32 14t-8 35zM107 192l89 508h73l-89 -508h-73z" />
    <glyph glyph-name="quotedbl" unicode="&#x22;" horiz-adv-x="365" 
d="M152 450l44 250h64l-44 -250h-64zM307 450l44 250h63l-44 -250h-63z" />
    <glyph glyph-name="numbersign" unicode="#" horiz-adv-x="605" 
d="M333 0l58 176h-171l-58 -176h-74l59 176h-76l10 58h85l77 232h-85l11 58h93l60 176h73l-60 -176h172l59 176h73l-60 -176h77l-10 -58h-85l-78 -232h87l-10 -58h-96l-58 -176h-73zM316 466l-77 -232h172l77 232h-172z" />
    <glyph glyph-name="dollar" unicode="$" horiz-adv-x="530" 
d="M222 -100l16 94q-119 6 -182 91l55 47q22 -31 59.5 -50t79.5 -21l47 262q-15 6 -25 10.5t-24.5 11.5t-23.5 13l-21 14t-19.5 16.5t-15.5 19t-12.5 22.5t-7.5 25.5t-2.5 29.5t3.5 34q13 76 69 130t146 58l17 93h44l-17 -95q101 -11 156 -80l-56 -48q-39 50 -112 60
l-44 -250q43 -18 65 -30t51 -35t38 -55t2 -74q-14 -77 -73.5 -134.5t-152.5 -64.5l-16 -94h-44zM430 191q8 42 -16.5 67.5t-75.5 47.5l-43 -243q58 10 93 48t42 80zM227 521q-8 -42 14.5 -68t69.5 -49l41 234q-53 -6 -85.5 -41t-39.5 -76z" />
    <glyph glyph-name="percent" unicode="%" horiz-adv-x="855" 
d="M207 0l491 700h74l-491 -700h-74zM134 538q13 75 69 122t131 47q76 0 114 -46.5t25 -122.5t-68.5 -122.5t-130.5 -46.5q-76 0 -114.5 46.5t-25.5 122.5zM200 538q-9 -50 14.5 -81.5t69.5 -31.5t80.5 31.5t42.5 81.5q9 50 -14 81.5t-69 31.5t-80.5 -31.5t-43.5 -81.5z
M504 162q13 76 68.5 122.5t130.5 46.5q76 0 114.5 -46.5t25.5 -122.5q-14 -76 -68.5 -122.5t-130.5 -46.5t-114.5 46.5t-25.5 122.5zM570 162q-9 -50 14 -81.5t69 -31.5t80.5 31.5t43.5 81.5t-14 81.5t-69 31.5t-80.5 -31.5t-43.5 -81.5z" />
    <glyph glyph-name="ampersand" unicode="&#x26;" horiz-adv-x="603" 
d="M397 349l10 62h228l-11 -62h-76l-26 -146q-17 -94 -87.5 -152t-168.5 -58t-149 58t-34 152q12 64 51 110.5t97 68.5q-79 43 -60 145q13 80 74.5 130t146.5 50q84 0 127.5 -50t29.5 -130h-75q8 51 -18 83t-76 32q-51 0 -88 -32t-46 -83t17 -83.5t76 -32.5h28l-10 -62h-28
q-64 0 -111.5 -40.5t-58.5 -105.5q-12 -64 21 -104.5t97 -40.5t111.5 40t58.5 105l26 146h-76z" />
    <glyph glyph-name="quotesingle" unicode="'" horiz-adv-x="210" 
d="M152 450l44 250h64l-44 -250h-64z" />
    <glyph glyph-name="parenleft" unicode="(" horiz-adv-x="298" 
d="M380 757l-10 -56q-45 0 -100.5 -127.5t-89.5 -323.5q-23 -130 -26.5 -234.5t12 -160.5t45.5 -56l-9 -56q-52 0 -83.5 64.5t-35.5 177t22 265.5q38 222 117 364.5t158 142.5z" />
    <glyph glyph-name="parenright" unicode=")" horiz-adv-x="298" 
d="M174 701l10 56q52 0 83.5 -64.5t35 -177t-21.5 -265.5q-39 -223 -117.5 -365t-157.5 -142l9 56q45 0 100.5 127.5t90.5 323.5q22 131 25 235t-12 160t-45 56z" />
    <glyph glyph-name="asterisk" unicode="*" horiz-adv-x="446" 
d="M306 476l-101 -114l-39 34l101 112l-125 43l27 53l124 -43l25 139h55l-24 -139l141 44l7 -53l-141 -44l64 -113l-52 -32z" />
    <glyph glyph-name="plus" unicode="+" horiz-adv-x="436" 
d="M107 264l10 58h128l23 128h58l-23 -128h128l-10 -58h-128l-22 -128h-59l23 128h-128z" />
    <glyph glyph-name="comma" unicode="," 
d="M63 -105l-22 26q47 40 60 73q-17 2 -26.5 15.5t-6.5 32.5q3 20 20 34.5t37 14.5t32 -14t8 -43q-12 -63 -102 -139z" />
    <glyph glyph-name="hyphen" unicode="-" horiz-adv-x="340" 
d="M102 236l10 58h219l-11 -58h-218z" />
    <glyph glyph-name="period" unicode="." 
d="M68 42q3 20 20 34.5t37 14.5t32 -14.5t9 -34.5q-4 -21 -20.5 -35t-37.5 -14q-20 0 -32 14t-8 35z" />
    <glyph glyph-name="slash" unicode="/" horiz-adv-x="549" 
d="M44 -50l510 800h74l-510 -800h-74z" />
    <glyph glyph-name="zero" unicode="0" horiz-adv-x="565" 
d="M111 350q29 159 111 258t185 99t150 -99t19 -258q-29 -159 -110.5 -258t-184.5 -99t-150.5 99t-19.5 258zM187 350q-23 -130 6 -211t99 -81t128 81t81 211t-6.5 211t-99.5 81t-128 -81t-80 -211z" />
    <glyph glyph-name="one" unicode="1" horiz-adv-x="316" 
d="M140 614l11 59l188 31l-124 -704h-72l111 635z" />
    <glyph glyph-name="two" unicode="2" horiz-adv-x="517" 
d="M61 65l357 303q47 41 61 118q12 69 -19 112t-92 43t-107 -43t-58 -112h-75q18 99 87.5 160t164.5 61t143.5 -61t30.5 -160q-18 -102 -94 -167l-300 -256h320l-11 -63h-419z" />
    <glyph glyph-name="three" unicode="3" horiz-adv-x="532" 
d="M280 349l11 62h46q50 0 87.5 32.5t46.5 83.5t-17.5 83t-76.5 32t-87.5 -32t-45.5 -83h-76q14 80 75.5 130t145.5 50q85 0 128 -50t29 -130q-9 -50 -38.5 -87.5t-72.5 -57.5q50 -22 73 -68.5t12 -110.5q-17 -94 -88 -152t-169 -58t-148 58t-34 152h75q-11 -65 21.5 -105
t96.5 -40t111.5 40t58.5 105q12 65 -21 105.5t-97 40.5h-46z" />
    <glyph glyph-name="four" unicode="4" horiz-adv-x="548" 
d="M360 0l23 136h-319l6 36l408 528h75l-89 -501h63l-10 -63h-61l-23 -136h-73zM165 199h231l70 390z" />
    <glyph glyph-name="five" unicode="5" horiz-adv-x="524" 
d="M506 214q-17 -99 -87 -160t-165 -61t-144 57.5t-33 149.5h73q-11 -62 21.5 -101.5t94.5 -39.5q61 0 107 43t58 112q13 75 -22 122t-104 47q-73 0 -124 -43l-49 21l103 339h305l-11 -63h-241l-66 -211q41 23 99 23q101 0 152.5 -65t32.5 -170z" />
    <glyph glyph-name="six" unicode="6" horiz-adv-x="530" 
d="M417 707l56 -36q-124 -138 -215 -261q37 20 83 20q97 0 147.5 -60t33.5 -158t-88.5 -158.5t-170.5 -60.5q-98 0 -148 61t-32 164q15 88 72.5 169.5t233.5 286.5q18 22 28 33zM158 212q-13 -68 19.5 -111t97.5 -43q64 0 111.5 43t59.5 111q13 69 -19.5 112t-97.5 43
q-64 0 -111.5 -43t-59.5 -112z" />
    <glyph glyph-name="seven" unicode="7" horiz-adv-x="523" 
d="M162 637l11 63h423l-5 -27l-371 -673h-78l349 637h-329z" />
    <glyph glyph-name="eight" unicode="8" horiz-adv-x="535" 
d="M171 527q13 80 74.5 130t146.5 50q84 0 127.5 -50t29.5 -130q-20 -103 -111 -145q50 -22 72.5 -68.5t11.5 -110.5q-17 -94 -87.5 -152t-168.5 -58t-149 58t-34 152q12 64 50.5 110.5t96.5 68.5q-79 43 -59 145zM159 203q-12 -64 21 -104.5t97 -40.5t111.5 40t58.5 105
t-21.5 105t-96.5 40t-111.5 -40t-58.5 -105zM246 527q-9 -51 17 -83t76 -32q51 0 88.5 32t46.5 83q8 51 -18 83t-76 32q-51 0 -88 -32t-46 -83z" />
    <glyph glyph-name="nine" unicode="9" horiz-adv-x="530" 
d="M236 -7l-57 36q124 138 215 261q-37 -20 -83 -20q-97 0 -147.5 60t-32.5 158q17 98 88.5 158.5t170.5 60.5t148.5 -61t30.5 -164q-15 -87 -72.5 -169.5t-230.5 -284.5q-20 -23 -30 -35zM495 488q12 68 -21 111t-97 43t-111.5 -43t-59.5 -111q-12 -69 20.5 -112t97.5 -43
q64 0 111.5 43t59.5 112z" />
    <glyph glyph-name="colon" unicode=":" 
d="M68 42q3 20 20 34.5t37 14.5t32 -14.5t9 -34.5q-4 -21 -20.5 -35t-37.5 -14q-20 0 -32 14t-8 35zM132 408q4 21 21 35t37 14q21 0 32.5 -14t7.5 -35q-3 -20 -20 -34.5t-37 -14.5q-21 0 -32.5 14t-8.5 35z" />
    <glyph glyph-name="semicolon" unicode=";" 
d="M132 408q4 21 21 35t37 14q21 0 32.5 -14t7.5 -35q-3 -20 -20 -34.5t-37 -14.5q-21 0 -32.5 14t-8.5 35zM63 -105l-22 26q47 40 60 73q-17 2 -26.5 15.5t-6.5 32.5q3 20 20 34.5t37 14.5t32 -14t8 -43q-12 -63 -102 -139z" />
    <glyph glyph-name="less" unicode="&#x3c;" horiz-adv-x="410" 
d="M335 109l-247 191l314 191l35 -43l-246 -148l194 -148z" />
    <glyph glyph-name="equal" unicode="=" horiz-adv-x="476" 
d="M117 326l11 58h355l-11 -58h-355zM87 151l10 59h355l-11 -59h-354z" />
    <glyph glyph-name="greater" unicode="&#x3e;" horiz-adv-x="410" 
d="M421 300l-313 -191l-36 43l246 148l-193 148l50 43z" />
    <glyph glyph-name="question" unicode="?" horiz-adv-x="471" 
d="M188 586l-39 48q93 73 205 73q93 0 135.5 -52.5t28.5 -127.5q-7 -41 -28.5 -71t-47.5 -48.5t-52.5 -37.5t-48 -49t-28.5 -72l-10 -57h-73l10 57q9 51 31.5 88.5t49 58.5t52 38.5t45.5 40t25 51.5q8 46 -17 81t-85 35q-85 0 -153 -56zM191 42q3 20 20 34.5t37 14.5
q21 0 32.5 -14t8.5 -35t-19.5 -35t-37.5 -14t-32.5 14t-8.5 35z" />
    <glyph glyph-name="at" unicode="@" horiz-adv-x="1040" 
d="M818 -74l39 -46q-74 -66 -172.5 -101.5t-206.5 -35.5q-214 0 -323 133.5t-71 348.5t194 348.5t368 133.5q142 0 240.5 -60t137.5 -160t17 -223q-13 -73 -43.5 -128t-70 -85t-79 -44t-78.5 -14q-88 0 -108 52q-64 -52 -149 -52q-97 0 -146 64t-30 168q18 104 94 168
t181 64q122 0 174 -73l-48 -274q-5 -25 11.5 -38.5t45.5 -13.5q53 0 102 48.5t67 149.5q30 166 -59.5 276t-269.5 110q-179 0 -311 -116t-164 -301q-33 -186 58.5 -301.5t272.5 -115.5q91 0 178 31t149 87zM412 225q-13 -74 23 -120.5t107 -46.5q72 0 121 43l45 255
q-38 36 -110 36q-70 0 -121 -46t-65 -121z" />
    <glyph glyph-name="A" unicode="A" horiz-adv-x="749" 
d="M634 0l-53 202h-343l-123 -202h-87l434 700h72l187 -700h-87zM481 604l-203 -334h287z" />
    <glyph glyph-name="B" unicode="B" horiz-adv-x="545" 
d="M76 0l123 700h191q84 0 127 -49t28 -131q-18 -106 -108 -151q52 -18 76 -64.5t13 -111.5q-16 -88 -80 -140.5t-153 -52.5h-217zM451 198q11 58 -18 94t-86 36h-136l-46 -262h136q57 0 98.5 36t51.5 96zM469 514q10 54 -16.5 87t-78.5 33h-109l-42 -240h109q52 0 89.5 33
t47.5 87z" />
    <glyph glyph-name="C" unicode="C" horiz-adv-x="699" 
d="M189 350q-22 -129 40.5 -209t186.5 -80q126 0 219 80l40 -47q-115 -101 -274 -101q-157 0 -237.5 99t-52.5 258q29 159 144 258t272 99q158 0 238 -101l-57 -48q-64 81 -190 81q-123 0 -215 -80t-114 -209z" />
    <glyph glyph-name="D" unicode="D" horiz-adv-x="692" 
d="M76 0l123 700h214q157 0 237.5 -96t52.5 -254t-142 -254t-271 -96h-214zM625 350q22 129 -39.5 206.5t-184.5 77.5h-136l-100 -568h136q123 0 212 77.5t112 206.5z" />
    <glyph glyph-name="E" unicode="E" horiz-adv-x="498" 
d="M263 637l-44 -253h261l-11 -63h-262l-45 -258h299l-11 -63h-374l123 700h369l-11 -63h-294z" />
    <glyph glyph-name="F" unicode="F" horiz-adv-x="472" 
d="M263 637l-44 -253h243l-11 -63h-244l-56 -321h-75l123 700h354l-11 -63h-279z" />
    <glyph glyph-name="G" unicode="G" horiz-adv-x="735" 
d="M456 306l11 63h256l-49 -276q-112 -100 -273 -100q-157 0 -237.5 99t-52.5 258q29 159 144 258t272 99q158 0 238 -101l-57 -48q-64 81 -190 81q-123 0 -215 -80t-114 -209t40.5 -209t186.5 -80q107 0 189 59l32 186h-181z" />
    <glyph glyph-name="H" unicode="H" horiz-adv-x="690" 
d="M274 700l-55 -316h388l55 316h75l-123 -700h-75l56 321h-388l-56 -321h-75l123 700h75z" />
    <glyph glyph-name="I" unicode="I" horiz-adv-x="222" 
d="M73 0l123 700h76l-123 -700h-76z" />
    <glyph glyph-name="J" unicode="J" horiz-adv-x="453" 
d="M337 190l90 510h75l-90 -510q-15 -88 -79 -142.5t-152 -54.5t-133 55l58 49q27 -36 84 -36q55 0 95.5 35.5t51.5 93.5z" />
    <glyph glyph-name="K" unicode="K" horiz-adv-x="596" 
d="M73 0l123 700h76l-123 -700h-76zM468 0l-246 359l349 341h95l-349 -341l248 -359h-97z" />
    <glyph glyph-name="L" unicode="L" horiz-adv-x="465" 
d="M274 700l-112 -637h273l-10 -63h-349l123 700h75z" />
    <glyph glyph-name="M" unicode="M" horiz-adv-x="809" 
d="M658 0l95 545l-304 -384h-34l-168 384l-96 -545h-75l123 700h57l195 -433l347 433h58l-123 -700h-75z" />
    <glyph glyph-name="N" unicode="N" horiz-adv-x="713" 
d="M199 700h51l336 -558l99 558h75l-123 -700h-51l-337 558l-98 -558h-75z" />
    <glyph glyph-name="O" unicode="O" horiz-adv-x="805" 
d="M111 350q29 159 144 258t272 99t237 -99t52 -258q-29 -159 -143.5 -258t-271.5 -99t-237.5 99t-52.5 258zM189 350q-22 -129 40 -209t184 -80t212.5 80t112.5 209q23 129 -39 209t-184 80t-213 -80t-113 -209z" />
    <glyph glyph-name="P" unicode="P" horiz-adv-x="519" 
d="M76 0l123 700h189q91 0 138 -53.5t31 -142.5t-81 -142t-157 -53h-111l-54 -309h-78zM480 504q10 59 -18.5 94.5t-85.5 35.5h-111l-46 -260h111q57 0 98.5 35.5t51.5 94.5z" />
    <glyph glyph-name="Q" unicode="Q" horiz-adv-x="805" 
d="M714 -26l-75 92q-104 -73 -238 -73q-157 0 -237.5 99t-52.5 258q29 159 144 258t272 99t237 -99t52 -258q-25 -142 -121 -236l76 -92zM189 350q-23 -129 39 -209t184 -80q109 0 185 55l-94 115l56 48l90 -109q70 75 89 180q23 129 -39 209t-185 80q-122 0 -212.5 -80
t-112.5 -209z" />
    <glyph glyph-name="R" unicode="R" horiz-adv-x="534" 
d="M418 0l-114 309h-96l-54 -309h-78l123 700h196q92 0 138.5 -53.5t31.5 -142.5q-14 -75 -63 -125t-121 -65l123 -314h-86zM487 504q10 58 -18.5 94t-84.5 36h-119l-46 -260h119q56 0 97.5 36t51.5 94z" />
    <glyph glyph-name="S" unicode="S" horiz-adv-x="530" 
d="M564 625l-56 -48q-20 27 -58 44.5t-79 17.5q-62 0 -99 -36t-45 -82q-8 -45 21.5 -75t76.5 -48.5t93 -40t73.5 -62.5t16.5 -102q-15 -82 -81 -141t-169 -59q-132 0 -202 92l55 47q24 -34 65.5 -52.5t86.5 -18.5q72 0 115.5 41t51.5 89q6 32 -8.5 56t-42 39t-61.5 28.5
t-67 29.5t-59 37t-38.5 56.5t-4.5 81.5q14 79 73 133.5t154 54.5q123 0 188 -82z" />
    <glyph glyph-name="T" unicode="T" horiz-adv-x="557" 
d="M428 637l-112 -637h-75l112 637h-201l11 63h477l-11 -63h-201z" />
    <glyph glyph-name="U" unicode="U" horiz-adv-x="673" 
d="M566 255l79 445h75l-78 -445q-21 -118 -106 -190t-201 -72q-117 0 -176 72t-39 190l79 445h75l-78 -445q-16 -87 26 -140.5t124 -53.5q83 0 144 53.5t76 140.5z" />
    <glyph glyph-name="V" unicode="V" horiz-adv-x="749" 
d="M844 700l-433 -700h-72l-188 700h89l152 -602l363 602h89z" />
    <glyph glyph-name="W" unicode="W" horiz-adv-x="1133" 
d="M1228 700l-386 -700h-76l-99 571l-300 -571h-76l-140 700h87l110 -584l302 584h79l95 -584l317 584h87z" />
    <glyph glyph-name="X" unicode="X" horiz-adv-x="721" 
d="M593 0l-180 303l-286 -303h-96l336 354l-206 346h97l173 -294l277 294h97l-329 -346l214 -354h-97z" />
    <glyph glyph-name="Y" unicode="Y" horiz-adv-x="667" 
d="M295 0l53 302l-197 398h88l160 -323l275 323h87l-338 -399l-52 -301h-76z" />
    <glyph glyph-name="Z" unicode="Z" horiz-adv-x="625" 
d="M169 637l11 63h515l-4 -27l-521 -610h416l-11 -63h-525l5 28l520 609h-406z" />
    <glyph glyph-name="bracketleft" unicode="[" horiz-adv-x="297" 
d="M379 750l-11 -58h-101l-155 -884h100l-10 -58h-174l177 1000h174z" />
    <glyph glyph-name="backslash" unicode="\" horiz-adv-x="549" 
d="M259 750l228 -800h-74l-228 800h74z" />
    <glyph glyph-name="bracketright" unicode="]" horiz-adv-x="297" 
d="M172 692l11 58h173l-177 -1000h-173l11 58h100l155 884h-100z" />
    <glyph glyph-name="asciicircum" unicode="^" horiz-adv-x="453" 
d="M345 675l157 -190l-44 -38l-126 152l-180 -152l-32 38z" />
    <glyph glyph-name="underscore" unicode="_" horiz-adv-x="450" 
d="M-28 -158l11 58h449l-11 -58h-449z" />
    <glyph glyph-name="grave" unicode="`" horiz-adv-x="265" 
d="M208 675l102 -125l-44 -38l-104 125z" />
    <glyph glyph-name="a" unicode="a" horiz-adv-x="539" 
d="M359 457q123 0 174 -73l-67 -384h-73l6 36q-61 -43 -139 -43q-97 0 -145.5 64t-30.5 168q19 104 94.5 168t180.5 64zM160 225q-13 -74 22.5 -120.5t106.5 -46.5t122 43l44 256q-38 35 -109 35q-70 0 -121.5 -46.5t-64.5 -120.5z" />
    <glyph glyph-name="b" unicode="b" horiz-adv-x="539" 
d="M259 -7q-124 0 -175 73l121 684h73l-59 -330q60 37 134 37q99 0 149 -64.5t31 -167.5q-18 -104 -93.5 -168t-180.5 -64zM458 225q13 74 -22.5 120.5t-105.5 46.5q-73 0 -124 -48l-44 -250q38 -36 110 -36q70 0 121.5 46.5t64.5 120.5z" />
    <glyph glyph-name="c" unicode="c" horiz-adv-x="478" 
d="M160 225q-13 -74 22.5 -120.5t106.5 -46.5q74 0 126 47l37 -45q-75 -67 -178 -67t-155.5 64.5t-34.5 167.5q19 104 94 168t178 64q102 0 154 -68l-53 -45q-35 48 -109 48q-71 0 -123 -46.5t-65 -120.5z" />
    <glyph glyph-name="d" unicode="d" horiz-adv-x="541" 
d="M468 0h-73l6 38q-62 -45 -141 -45q-97 0 -145.5 64t-30.5 168q19 104 93.5 168t176.5 64q68 0 115 -33l58 326h73zM160 225q-13 -74 22.5 -120.5t106.5 -46.5q73 0 124 45l43 246q-37 43 -108 43t-123 -46.5t-65 -120.5z" />
    <glyph glyph-name="e" unicode="e" horiz-adv-x="508" 
d="M501 206h-343q-7 -67 29 -107.5t105 -40.5q76 0 128 47l36 -45q-75 -67 -180 -67q-104 0 -157 64.5t-34 169.5q18 102 89 166t167 64q97 0 138.5 -67t21.5 -184zM331 393q-57 0 -101.5 -36.5t-61.5 -98.5h269q5 62 -23 98.5t-83 36.5z" />
    <glyph glyph-name="f" unicode="f" horiz-adv-x="324" 
d="M101 392l11 58h62l28 156q12 68 60 109.5t116 41.5q30 0 53 -10l-12 -62q-17 10 -40 10q-39 0 -67 -25t-35 -64l-27 -156h128l-11 -58h-128l-113 -642h-76l114 642h-63z" />
    <glyph glyph-name="g" unicode="g" horiz-adv-x="507" 
d="M2 -118q7 43 40.5 75t83.5 48q-53 25 -45 75q11 52 77 77q-35 18 -48.5 54t-5.5 82q13 74 70.5 119t136.5 45q72 0 114 -40q40 40 84 40q17 0 24 -2l-10 -59q-9 3 -20 3q-25 0 -51 -23q14 -35 6 -81q-13 -72 -70 -117t-137 -45q-42 0 -68.5 -14.5t-30.5 -36.5t22.5 -36
t75.5 -14q96 0 147.5 -38t40.5 -100q-12 -67 -84.5 -109t-171.5 -42q-93 0 -142 38.5t-38 100.5zM77 -118q-7 -37 24 -59.5t90 -22.5q65 0 114.5 26t56.5 67q6 37 -27.5 59t-94.5 22q-67 0 -111.5 -25.5t-51.5 -66.5zM177 295q-8 -46 16 -75t71 -29q46 0 80.5 29t42.5 75
t-16 75t-70 29t-81 -29t-43 -75z" />
    <glyph glyph-name="h" unicode="h" horiz-adv-x="523" 
d="M205 750h73l-60 -337q64 44 141 44q76 0 113 -50.5t23 -133.5l-48 -273h-72l47 273q10 52 -16 85.5t-76 33.5q-73 0 -123 -45l-61 -347h-73z" />
    <glyph glyph-name="i" unicode="i" 
d="M73 0l79 450h73l-79 -450h-73zM164 585q3 20 20 34.5t37 14.5q21 0 32.5 -14t8.5 -35q-5 -21 -21.5 -35t-37.5 -14q-20 0 -31.5 14.5t-7.5 34.5z" />
    <glyph glyph-name="j" unicode="j" 
d="M164 585q3 20 20 34.5t37 14.5q21 0 32.5 -14t8.5 -35q-5 -21 -21.5 -35t-37.5 -14q-20 0 -31.5 14.5t-7.5 34.5zM-26 -250l9 49q54 0 64 53l105 598h73l-106 -600q-8 -48 -39 -76t-75 -28q-22 0 -31 4z" />
    <glyph glyph-name="k" unicode="k" horiz-adv-x="466" 
d="M146 0h-73l132 750h73l-89 -503l216 203h87l-226 -211l169 -239h-87l-162 231z" />
    <glyph glyph-name="l" unicode="l" horiz-adv-x="247" 
d="M212 49l-8 -49q-11 -4 -37 -4q-43 0 -64 28t-13 76l115 650h73l-114 -648q-5 -26 8 -39.5t40 -13.5z" />
    <glyph glyph-name="m" unicode="m" horiz-adv-x="761" 
d="M615 0l53 303q7 39 -11.5 64t-55.5 25q-76 0 -128 -44q0 -29 -3 -45l-53 -303h-73l53 303q7 39 -11.5 64t-55.5 25q-72 0 -123 -46l-61 -346h-73l79 450h73l-7 -37q64 44 141 44q76 0 103 -61q72 61 168 61q63 0 93 -42.5t18 -111.5l-53 -303h-73z" />
    <glyph glyph-name="n" unicode="n" horiz-adv-x="521" 
d="M152 450h73l-7 -37q64 44 141 44q76 0 113 -50.5t23 -133.5l-48 -273h-72l47 273q10 52 -16 85.5t-76 33.5q-72 0 -123 -46l-61 -346h-73z" />
    <glyph glyph-name="o" unicode="o" horiz-adv-x="555" 
d="M84 225q19 104 95 168t179 64t156 -64t35 -168q-19 -104 -94.5 -168t-178.5 -64q-104 0 -157 64.5t-35 167.5zM160 225q-13 -74 22 -120.5t105 -46.5t121.5 46.5t65.5 120.5q13 74 -22.5 120.5t-105.5 46.5t-121.5 -46.5t-64.5 -120.5z" />
    <glyph glyph-name="p" unicode="p" horiz-adv-x="541" 
d="M152 450h73l-7 -38q64 45 142 45q97 0 145 -64t30 -168q-19 -104 -93 -168t-175 -64q-72 0 -117 33l-49 -276h-73zM459 225q13 74 -22.5 120.5t-106.5 46.5q-73 0 -124 -46l-43 -245q35 -43 108 -43q71 0 123 46.5t65 120.5z" />
    <glyph glyph-name="q" unicode="q" horiz-adv-x="539" 
d="M359 457q123 0 174 -73l-112 -634h-73l49 279q-59 -36 -131 -36q-99 0 -149.5 64.5t-32.5 167.5q19 104 94.5 168t180.5 64zM160 225q-13 -74 22 -120.5t105 -46.5q72 0 124 47l44 252q-38 35 -109 35q-70 0 -121.5 -46.5t-64.5 -120.5z" />
    <glyph glyph-name="r" unicode="r" horiz-adv-x="345" 
d="M348 456q10 0 28 -2l-11 -64q-15 3 -33 3q-73 0 -128 -62l-58 -331h-73l79 450h73l-10 -54q65 60 133 60z" />
    <glyph glyph-name="s" unicode="s" horiz-adv-x="384" 
d="M395 404l-53 -45q-29 36 -80 36q-34 0 -55 -20t-24 -45q-5 -26 13.5 -43.5t47.5 -29t58 -25t46 -40t10 -64.5q-9 -55 -55.5 -95t-117.5 -40q-91 0 -137 60l53 45q31 -44 90 -44q41 0 65 23t29 50q4 25 -14.5 42t-47.5 28t-58 25t-46 40.5t-10 66.5q10 53 51.5 90.5
t107.5 37.5q85 0 127 -53z" />
    <glyph glyph-name="t" unicode="t" horiz-adv-x="319" 
d="M98 392l11 58h58l17 100h75l-17 -100h121l-11 -58h-121l-44 -253q-7 -37 11 -60.5t54 -23.5q21 0 43 10l-11 -62q-26 -10 -55 -10q-65 0 -97 40t-20 106l44 253h-58z" />
    <glyph glyph-name="u" unicode="u" horiz-adv-x="531" 
d="M537 450l-48 -265q-15 -86 -77 -139t-148 -53t-130 53t-29 139l47 265h76l-47 -265q-10 -57 16.5 -92t79.5 -35t92 35.5t49 91.5l47 265h72z" />
    <glyph glyph-name="v" unicode="v" horiz-adv-x="529" 
d="M582 450l-283 -450h-69l-125 450h81l94 -360l221 360h81z" />
    <glyph glyph-name="w" unicode="w" horiz-adv-x="792" 
d="M845 450l-253 -450h-76l-59 348l-181 -348h-76l-95 450h83l65 -362l185 362h74l57 -362l193 362h83z" />
    <glyph glyph-name="x" unicode="x" horiz-adv-x="513" 
d="M397 0l-109 183l-173 -183h-84l218 229l-132 221h85l102 -173l165 173h85l-211 -221l139 -229h-85z" />
    <glyph glyph-name="y" unicode="y" horiz-adv-x="529" 
d="M582 450l-445 -700h-81l174 250l-125 450h81l94 -363l221 363h81z" />
    <glyph glyph-name="z" unicode="z" horiz-adv-x="470" 
d="M123 392l10 58h366l-5 -27l-328 -365h264l-10 -58h-370l5 28l328 364h-260z" />
    <glyph glyph-name="braceleft" unicode="{" horiz-adv-x="318" 
d="M241 -201l-9 -56q-67 0 -101 61.5t-17 157.5l17 95q13 71 -2.5 117.5t-49.5 46.5l10 56q33 0 65 46t44 117l17 98q18 96 73.5 157.5t122.5 61.5l-10 -56q-34 0 -66 -46t-44 -117l-17 -98q-12 -67 -44 -117.5t-74 -73.5q34 -24 48 -74t2 -118l-16 -95q-13 -71 2.5 -117
t48.5 -46z" />
    <glyph glyph-name="bar" unicode="|" 
d="M28 -250l177 1000h73l-177 -1000h-73z" />
    <glyph glyph-name="braceright" unicode="}" horiz-adv-x="318" 
d="M-5 -257l9 56q34 0 66 46t44 117l17 95q12 67 43.5 117.5t74.5 74.5q-35 23 -49 73t-2 118l17 98q13 71 -2.5 117t-48.5 46l10 56q67 0 100.5 -61.5t16.5 -157.5l-17 -98q-13 -71 2.5 -117t49.5 -46l-10 -56q-33 0 -65 -46.5t-45 -117.5l-16 -95q-17 -96 -72.5 -157.5
t-122.5 -61.5z" />
    <glyph glyph-name="asciitilde" unicode="~" horiz-adv-x="433" 
d="M129 249h-50q8 47 43.5 77t81.5 30q33 0 54.5 -16t39.5 -32t43 -16t44.5 16.5t23.5 43.5h49q-8 -48 -43.5 -78t-82.5 -30q-27 0 -46 10t-28.5 22.5t-25.5 22.5t-36 10q-25 0 -44 -16.5t-23 -43.5z" />
    <glyph glyph-name="exclamdown" unicode="&#xa1;" 
d="M132 408q4 21 21 35t37 14q21 0 32.5 -14t7.5 -35q-3 -20 -20 -34.5t-37 -14.5q-21 0 -32.5 14t-8.5 35zM119 258h72l-90 -508h-73z" />
    <glyph glyph-name="cent" unicode="&#xa2;" horiz-adv-x="478" 
d="M225 -100l16 95q-87 11 -130 73t-27 157q17 94 82 156.5t156 73.5l17 95h44l-16 -93q94 -4 143 -68l-53 -45q-34 45 -102 48l-58 -334q69 2 118 47l37 -45q-70 -63 -167 -67l-16 -93h-44zM160 225q-12 -64 13.5 -108t79.5 -56l57 327q-57 -11 -98.5 -55.5t-51.5 -107.5z
" />
    <glyph glyph-name="sterling" unicode="&#xa3;" horiz-adv-x="512" 
d="M96 321l11 58h75l24 131q16 88 80 142.5t151 54.5t132 -55l-57 -49q-28 36 -84 36t-96.5 -35.5t-50.5 -93.5l-23 -131h177l-10 -58h-178l-36 -204q24 -6 69.5 -34t75.5 -28q26 0 45 16.5t23 42.5h59q-9 -54 -47.5 -87.5t-89.5 -33.5q-44 0 -97 33.5t-83 33.5
q-26 0 -45.5 -16.5t-23.5 -43.5h-59q7 43 33 73.5t64 42.5l37 205h-76z" />
    <glyph glyph-name="currency" unicode="&#xa4;" horiz-adv-x="529" 
d="M148 300q10 56 45 99l-68 84l49 41l69 -84q48 29 104 29t93 -29l99 84l34 -41l-99 -84q24 -42 12 -99q-9 -57 -47 -100l70 -83l-49 -41l-69 84q-46 -29 -104 -29t-93 29l-99 -84l-34 41l97 83q-20 42 -10 100zM213 300q-8 -50 15.5 -81.5t69.5 -31.5t80 31.5t42 81.5
q10 50 -13.5 81.5t-69.5 31.5t-80 -31.5t-44 -81.5z" />
    <glyph glyph-name="yen" unicode="&#xa5;" horiz-adv-x="667" 
d="M193 221l7 44h141l7 37l-197 398h88l160 -323l275 323h87l-338 -399l-7 -36h141l-7 -44h-141l-15 -84h141l-8 -44h-140l-16 -93h-76l16 93h-140l7 44h141l15 84h-141z" />
    <glyph glyph-name="brokenbar" unicode="&#xa6;" 
d="M28 -250l80 450h73l-80 -450h-73zM278 750l-80 -450h-73l80 450h73z" />
    <glyph glyph-name="section" unicode="&#xa7;" horiz-adv-x="423" 
d="M238 439l168 -205l-57 -48l-170 206q-53 63 -39 146q13 76 72 122.5t141 46.5q95 0 142 -67l-55 -47q-31 48 -99 48q-48 0 -83 -29t-43 -74q-11 -60 23 -99zM264 11l-169 205l58 48l169 -206q54 -64 40 -146q-13 -76 -72 -122.5t-141 -46.5q-95 0 -142 67l55 47
q29 -48 98 -48q48 0 83 29t43 74q10 57 -22 99z" />
    <glyph glyph-name="dieresis" unicode="&#xa8;" horiz-adv-x="427" 
d="M171 573q4 19 19.5 32.5t35.5 13.5t31 -13.5t8 -32.5q-4 -20 -20 -33.5t-35 -13.5q-20 0 -31.5 14t-7.5 33zM359 573q3 20 19 33.5t35 13.5q20 0 31.5 -13.5t7.5 -33.5t-20 -33.5t-35 -13.5q-20 0 -31 14t-7 33z" />
    <glyph glyph-name="copyright" unicode="&#xa9;" horiz-adv-x="805" 
d="M111 350q29 159 144 258t272 99t237 -99t52 -258q-29 -159 -143.5 -258t-271.5 -99t-237.5 99t-52.5 258zM168 350q-25 -139 42 -225.5t198 -86.5q132 0 229.5 86.5t121.5 225.5q25 139 -41.5 225.5t-198.5 86.5q-131 0 -229 -86.5t-122 -225.5zM341 350
q-11 -61 19 -99.5t89 -38.5q60 0 103 38l25 -28q-59 -51 -137 -51q-79 0 -119.5 49.5t-26.5 129.5t72 129.5t137 49.5q78 0 119 -51l-34 -28q-30 38 -90 38q-59 0 -103 -38.5t-54 -99.5z" />
    <glyph glyph-name="ordfeminine" unicode="&#xaa;" horiz-adv-x="307" 
d="M282 704q71 0 98 -43l-37 -209h-46l3 19q-32 -23 -75 -23q-52 0 -78.5 35.5t-16.5 92.5q11 57 52.5 92.5t99.5 35.5zM178 576q-7 -39 11.5 -62.5t55.5 -23.5t62 20l23 135q-20 17 -56 17t-62.5 -24t-33.5 -62z" />
    <glyph glyph-name="guillemotleft" unicode="&#xab;" horiz-adv-x="470" 
d="M220 79l-140 171l200 171l31 -38l-155 -133l109 -133zM390 79l-141 171l201 171l31 -38l-156 -133l109 -133z" />
    <glyph glyph-name="logicalnot" unicode="&#xac;" horiz-adv-x="500" 
d="M108 271l10 58h379l-31 -173h-59l21 115h-320z" />
    <glyph glyph-name="uni00AD" unicode="&#xad;" horiz-adv-x="340" 
d="M102 236l10 58h219l-11 -58h-218z" />
    <glyph glyph-name="registered" unicode="&#xae;" horiz-adv-x="805" 
d="M111 350q29 159 144 258t272 99t237 -99t52 -258q-29 -159 -143.5 -258t-271.5 -99t-237.5 99t-52.5 258zM168 350q-25 -139 42 -225.5t198 -86.5q132 0 229.5 86.5t121.5 225.5q25 139 -41.5 225.5t-198.5 86.5q-131 0 -229 -86.5t-122 -225.5zM503 174l-53 151h-43
l-27 -151h-47l62 350h102q47 0 71 -27.5t16 -72.5q-14 -77 -88 -95l59 -155h-52zM537 424q5 27 -8 43.5t-39 16.5h-55l-22 -120h55q26 0 45 16.5t24 43.5z" />
    <glyph glyph-name="macron" unicode="&#xaf;" horiz-adv-x="376" 
d="M161 543l8 47h244l-8 -47h-244z" />
    <glyph glyph-name="degree" unicode="&#xb0;" horiz-adv-x="290" 
d="M151 603q8 46 41 74t78 28t67 -28t14 -74q-7 -46 -39.5 -74t-78.5 -28q-45 0 -67.5 28t-14.5 74zM191 602q-4 -28 9.5 -44.5t40.5 -16.5q26 0 46 16.5t25 44.5q4 28 -9.5 45t-40.5 17t-46.5 -17t-24.5 -45z" />
    <glyph glyph-name="plusminus" unicode="&#xb1;" horiz-adv-x="436" 
d="M109 273l10 59h127l23 128h58l-22 -128h128l-10 -59h-128l-23 -127h-58l23 127h-128zM70 55l10 58h314l-10 -58h-314z" />
    <glyph glyph-name="twosuperior" unicode="&#xb2;" horiz-adv-x="279" 
d="M101 388l176 150q23 19 28 54q6 32 -7.5 52t-41.5 20t-49.5 -20t-27.5 -52h-46q10 50 45 81t84 31t73.5 -31t15.5 -81t-48 -83l-142 -121h154l-7 -38h-214z" />
    <glyph glyph-name="threesuperior" unicode="&#xb3;" horiz-adv-x="287" 
d="M211 521l7 37h23q24 0 40.5 15t21.5 39q4 23 -8 37.5t-35 14.5t-40 -14.5t-22 -37.5h-46q8 41 40 66.5t75 25.5t66 -25.5t15 -66.5q-7 -49 -52 -72q49 -25 39 -87q-9 -48 -45 -77.5t-86 -29.5t-75.5 29.5t-17.5 77.5h46q-5 -30 10 -48.5t44 -18.5t51 18.5t27 48.5t-10 49
t-45 19h-23z" />
    <glyph glyph-name="acute" unicode="&#xb4;" horiz-adv-x="265" 
d="M147 550l148 125l30 -38l-146 -125z" />
    <glyph glyph-name="mu" unicode="&#xb5;" horiz-adv-x="531" 
d="M-17 -200l9 49q54 0 64 53l46 265l3 18l47 265h76l-47 -265q-10 -57 16.5 -92t79.5 -35t92 35.5t49 91.5l47 265h72l-48 -265q-15 -86 -77 -139t-148 -53q-69 0 -113 36l-23 -129q-8 -48 -39 -76t-75 -28q-22 0 -31 4z" />
    <glyph glyph-name="paragraph" unicode="&#xb6;" horiz-adv-x="574" 
d="M476 700l-123 -700h-71l56 318h-31q-89 0 -134.5 52t-29.5 139q15 87 78.5 139t153.5 52h101zM430 0l123 700h71l-123 -700h-71z" />
    <glyph glyph-name="periodcentered" unicode="&#xb7;" 
d="M105 250q3 20 20 34.5t37 14.5q21 0 32.5 -14t8.5 -35q-5 -21 -21.5 -35t-37.5 -14q-20 0 -31.5 14.5t-7.5 34.5z" />
    <glyph glyph-name="cedilla" unicode="&#xb8;" horiz-adv-x="264" 
d="M140 0l-11 -59q29 -5 43 -25t9 -51q-7 -36 -33.5 -58t-63.5 -22q-36 0 -56 25l30 25q11 -14 32 -14t36.5 12t19.5 33q3 21 -10.5 34t-46.5 13l16 87h35z" />
    <glyph glyph-name="onesuperior" unicode="&#xb9;" horiz-adv-x="182" 
d="M141 651l6 35l101 16l-62 -352h-44l55 311z" />
    <glyph glyph-name="ordmasculine" unicode="&#xba;" horiz-adv-x="316" 
d="M130 576q11 57 52.5 92.5t98.5 35.5t86.5 -35.5t19.5 -92.5t-52 -92.5t-99 -35.5t-86.5 35.5t-19.5 92.5zM178 576q-7 -39 11.5 -62.5t53.5 -23.5q36 0 63 23.5t34 62.5q7 38 -11.5 62t-54.5 24t-62.5 -24t-33.5 -62z" />
    <glyph glyph-name="guillemotright" unicode="&#xbb;" horiz-adv-x="470" 
d="M473 250l-201 -171l-31 38l156 133l-110 133l45 38zM304 250l-202 -171l-31 38l157 133l-111 133l46 38z" />
    <glyph glyph-name="onequarter" unicode="&#xbc;" horiz-adv-x="634" 
d="M141 651l6 35l101 16l-62 -352h-44l55 311zM98 0l491 700h55l-491 -700h-55zM524 0l11 66h-158l4 20l202 264h45l-44 -247h31l-6 -37h-30l-11 -66h-44zM439 103h105l32 180z" />
    <glyph glyph-name="onehalf" unicode="&#xbd;" horiz-adv-x="686" 
d="M141 651l6 35l101 16l-62 -352h-44l55 311zM98 0l491 700h55l-491 -700h-55zM445 38l177 150q20 16 29 54q5 32 -9 52t-42 20q-29 0 -50 -20t-26 -52h-45q8 50 43.5 81t85.5 31q48 0 72.5 -31t15.5 -81t-48 -83l-142 -121h154l-6 -38h-214z" />
    <glyph glyph-name="threequarters" unicode="&#xbe;" horiz-adv-x="652" 
d="M211 521l7 37h23q24 0 40.5 15t21.5 39q4 23 -8 37.5t-35 14.5t-40 -14.5t-22 -37.5h-46q8 41 40 66.5t75 25.5t66 -25.5t15 -66.5q-7 -49 -52 -72q49 -25 39 -87q-9 -48 -45 -77.5t-86 -29.5t-75.5 29.5t-17.5 77.5h46q-5 -30 10 -48.5t44 -18.5t51 18.5t27 48.5t-10 49
t-45 19h-23zM140 0l491 700h56l-491 -700h-56zM542 0l11 66h-158l3 20l203 264h44l-43 -247h30l-6 -37h-29l-11 -66h-44zM456 103h105l33 180z" />
    <glyph glyph-name="questiondown" unicode="&#xbf;" horiz-adv-x="471" 
d="M361 -136l39 -48q-91 -73 -204 -73q-93 0 -135.5 52.5t-29.5 127.5q7 41 28.5 71t48 48.5t52.5 37.5t47.5 49t28.5 72l11 57h73l-11 -57q-9 -51 -31.5 -88.5t-48.5 -58.5t-52 -38.5t-45.5 -40t-24.5 -51.5q-9 -45 16 -80.5t85 -35.5q87 0 153 56zM358 408
q-3 -20 -20 -34.5t-37 -14.5q-21 0 -32.5 14t-8.5 35q4 21 21 35t37 14q21 0 32.5 -14t7.5 -35z" />
    <glyph glyph-name="Agrave" unicode="&#xc0;" horiz-adv-x="749" 
d="M634 0l-53 202h-343l-123 -202h-87l434 700h72l187 -700h-87zM481 604l-203 -334h287zM469 900l103 -125l-44 -38l-104 125z" />
    <glyph glyph-name="Aacute" unicode="&#xc1;" horiz-adv-x="749" 
d="M634 0l-53 202h-343l-123 -202h-87l434 700h72l187 -700h-87zM481 604l-203 -334h287zM449 775l148 125l31 -38l-147 -125z" />
    <glyph glyph-name="Acircumflex" unicode="&#xc2;" horiz-adv-x="749" 
d="M634 0l-53 202h-343l-123 -202h-87l434 700h72l187 -700h-87zM481 604l-203 -334h287zM533 900l103 -125l-45 -38l-71 87l-103 -87l-32 38z" />
    <glyph glyph-name="Atilde" unicode="&#xc3;" horiz-adv-x="749" 
d="M634 0l-53 202h-343l-123 -202h-87l434 700h72l187 -700h-87zM481 604l-203 -334h287zM413 764h-42q7 39 34.5 63t64.5 24q31 0 55 -24t44 -24q18 0 32 12.5t18 31.5h42q-7 -39 -34.5 -63t-65.5 -24q-25 0 -40.5 12t-28 24t-29.5 12q-19 0 -32.5 -12t-17.5 -32z" />
    <glyph glyph-name="Adieresis" unicode="&#xc4;" horiz-adv-x="749" 
d="M634 0l-53 202h-343l-123 -202h-87l434 700h72l187 -700h-87zM481 604l-203 -334h287zM375 797q3 20 19 33.5t35 13.5t30.5 -13.5t8.5 -33.5q-4 -19 -20 -32.5t-36 -13.5q-19 0 -30 13t-7 33zM562 797q3 20 18.5 33.5t35.5 13.5t31.5 -13.5t8.5 -33.5q-4 -19 -20 -32.5
t-36 -13.5t-31 13.5t-7 32.5z" />
    <glyph glyph-name="Aring" unicode="&#xc5;" horiz-adv-x="749" 
d="M634 0l-53 202h-343l-123 -202h-87l434 700h72l187 -700h-87zM481 604l-203 -334h287zM431 820q7 40 36 65t68 25q40 0 59.5 -24.5t12.5 -65.5q-8 -40 -36 -64.5t-68 -24.5q-39 0 -59 24.5t-13 64.5zM466 820q-4 -24 8 -39t35 -15t41 15t22 39t-8 39t-36 15
q-23 0 -40.5 -15t-21.5 -39z" />
    <glyph glyph-name="AE" unicode="&#xc6;" horiz-adv-x="772" 
d="M562 637l-45 -253h239l-11 -63h-239l-45 -258h276l-11 -63h-351l35 202h-172l-123 -202h-87l434 700h382l-11 -63h-271zM278 270h144l59 334z" />
    <glyph glyph-name="Ccedilla" unicode="&#xc7;" horiz-adv-x="699" 
d="M189 350q-22 -129 40.5 -209t186.5 -80q126 0 219 80l40 -47q-109 -95 -259 -101l-9 -52q30 -5 44 -25t9 -51q-7 -36 -34 -58t-63 -22q-37 0 -56 25l29 25q12 -14 33 -14t36 12t19 33t-9.5 34t-46.5 13l15 81q-149 5 -224 103t-48 253q29 159 144 258t272 99
q158 0 238 -101l-57 -48q-64 81 -190 81q-123 0 -215 -80t-114 -209z" />
    <glyph glyph-name="Egrave" unicode="&#xc8;" horiz-adv-x="498" 
d="M263 637l-44 -253h261l-11 -63h-262l-45 -258h299l-11 -63h-374l123 700h369l-11 -63h-294zM356 900l103 -125l-44 -38l-103 125z" />
    <glyph glyph-name="Eacute" unicode="&#xc9;" horiz-adv-x="498" 
d="M263 637l-44 -253h261l-11 -63h-262l-45 -258h299l-11 -63h-374l123 700h369l-11 -63h-294zM336 775l148 125l31 -38l-147 -125z" />
    <glyph glyph-name="Ecircumflex" unicode="&#xca;" horiz-adv-x="498" 
d="M263 637l-44 -253h261l-11 -63h-262l-45 -258h299l-11 -63h-374l123 700h369l-11 -63h-294zM420 900l103 -125l-44 -38l-72 87l-103 -87l-32 38z" />
    <glyph glyph-name="Edieresis" unicode="&#xcb;" horiz-adv-x="498" 
d="M263 637l-44 -253h261l-11 -63h-262l-45 -258h299l-11 -63h-374l123 700h369l-11 -63h-294zM262 797q3 20 19 33.5t35 13.5t30.5 -13.5t8.5 -33.5q-4 -19 -19.5 -32.5t-35.5 -13.5t-31 13.5t-7 32.5zM449 797q3 20 18.5 33.5t35.5 13.5t31.5 -13.5t8.5 -33.5
q-4 -19 -20 -32.5t-36 -13.5t-31 13.5t-7 32.5z" />
    <glyph glyph-name="Igrave" unicode="&#xcc;" horiz-adv-x="222" 
d="M73 0l123 700h76l-123 -700h-76zM206 900l103 -125l-45 -38l-103 125z" />
    <glyph glyph-name="Iacute" unicode="&#xcd;" horiz-adv-x="222" 
d="M73 0l123 700h76l-123 -700h-76zM186 775l147 125l31 -38l-147 -125z" />
    <glyph glyph-name="Icircumflex" unicode="&#xce;" horiz-adv-x="222" 
d="M73 0l123 700h76l-123 -700h-76zM270 900l102 -125l-44 -38l-72 87l-102 -87l-32 38z" />
    <glyph glyph-name="Idieresis" unicode="&#xcf;" horiz-adv-x="222" 
d="M73 0l123 700h76l-123 -700h-76zM126 797q3 19 19 33t36 14q19 0 30.5 -13.5t8.5 -33.5q-4 -19 -20 -32.5t-36 -13.5q-19 0 -30 13t-8 33zM283 797q4 20 19.5 33.5t35.5 13.5t31 -13.5t8 -33.5q-4 -20 -20 -33t-36 -13t-31 13.5t-7 32.5z" />
    <glyph glyph-name="Eth" unicode="&#xd0;" horiz-adv-x="708" 
d="M101 321l11 58h56l56 321h204q158 0 238 -96t52 -254t-141.5 -254t-271.5 -96h-204l56 321h-56zM640 350q22 129 -39 206.5t-184 77.5h-127l-45 -255h161l-10 -58h-162l-44 -255h126q123 0 212.5 77.5t111.5 206.5z" />
    <glyph glyph-name="Ntilde" unicode="&#xd1;" horiz-adv-x="713" 
d="M199 700h51l336 -558l99 558h75l-123 -700h-51l-337 558l-98 -558h-75zM395 764h-43q7 39 35 63t64 24q31 0 55 -24t44 -24q19 0 33 12.5t17 31.5h43q-7 -39 -34.5 -63t-65.5 -24q-20 0 -34.5 7.5t-21.5 16.5t-18 16.5t-25 7.5q-18 0 -31.5 -12t-17.5 -32z" />
    <glyph glyph-name="Ograve" unicode="&#xd2;" horiz-adv-x="805" 
d="M111 350q29 159 144 258t272 99t237 -99t52 -258q-29 -159 -143.5 -258t-271.5 -99t-237.5 99t-52.5 258zM189 350q-22 -129 40 -209t184 -80t212.5 80t112.5 209q23 129 -39 209t-184 80t-213 -80t-113 -209zM497 900l103 -125l-44 -38l-104 125z" />
    <glyph glyph-name="Oacute" unicode="&#xd3;" horiz-adv-x="805" 
d="M111 350q29 159 144 258t272 99t237 -99t52 -258q-29 -159 -143.5 -258t-271.5 -99t-237.5 99t-52.5 258zM189 350q-22 -129 40 -209t184 -80t212.5 80t112.5 209q23 129 -39 209t-184 80t-213 -80t-113 -209zM477 775l147 125l32 -38l-147 -125z" />
    <glyph glyph-name="Ocircumflex" unicode="&#xd4;" horiz-adv-x="805" 
d="M111 350q29 159 144 258t272 99t237 -99t52 -258q-29 -159 -143.5 -258t-271.5 -99t-237.5 99t-52.5 258zM189 350q-22 -129 40 -209t184 -80t212.5 80t112.5 209q23 129 -39 209t-184 80t-213 -80t-113 -209zM561 900l103 -125l-45 -38l-71 87l-103 -87l-32 38z" />
    <glyph glyph-name="Otilde" unicode="&#xd5;" horiz-adv-x="805" 
d="M111 350q29 159 144 258t272 99t237 -99t52 -258q-29 -159 -143.5 -258t-271.5 -99t-237.5 99t-52.5 258zM189 350q-22 -129 40 -209t184 -80t212.5 80t112.5 209q23 129 -39 209t-184 80t-213 -80t-113 -209zM441 764h-42q7 39 34.5 63t64.5 24q31 0 54.5 -24t43.5 -24
q19 0 33 12.5t18 31.5h42q-7 -39 -34.5 -63t-65.5 -24q-25 0 -40.5 12t-28 24t-29.5 12q-19 0 -32.5 -12t-17.5 -32z" />
    <glyph glyph-name="Odieresis" unicode="&#xd6;" horiz-adv-x="805" 
d="M111 350q29 159 144 258t272 99t237 -99t52 -258q-29 -159 -143.5 -258t-271.5 -99t-237.5 99t-52.5 258zM189 350q-22 -129 40 -209t184 -80t212.5 80t112.5 209q23 129 -39 209t-184 80t-213 -80t-113 -209zM403 797q3 20 19 33.5t35 13.5t30.5 -13.5t8.5 -33.5
q-4 -19 -20 -32.5t-36 -13.5q-19 0 -30 13t-7 33zM590 797q3 20 18.5 33.5t35.5 13.5t31.5 -13.5t8.5 -33.5q-4 -19 -20 -32.5t-36 -13.5t-31 13.5t-7 32.5z" />
    <glyph glyph-name="multiply" unicode="&#xd7;" horiz-adv-x="436" 
d="M122 131l-34 41l139 118l-98 119l50 41l97 -118l139 118l34 -41l-139 -119l97 -118l-48 -41l-98 118z" />
    <glyph glyph-name="Oslash" unicode="&#xd8;" horiz-adv-x="805" 
d="M52 -7l108 103q-76 98 -49 254q29 159 144 258t272 99q126 0 203 -65l68 65h78l-109 -104q76 -98 49 -253q-29 -159 -143.5 -258t-271.5 -99q-124 0 -204 64l-67 -64h-78zM189 350q-21 -119 31 -197l452 434q-61 52 -157 52q-122 0 -213 -80t-113 -209zM738 350
q21 117 -30 196l-453 -433q60 -52 158 -52q122 0 212.5 80t112.5 209z" />
    <glyph glyph-name="Ugrave" unicode="&#xd9;" horiz-adv-x="673" 
d="M566 255l79 445h75l-78 -445q-21 -118 -106 -190t-201 -72q-117 0 -176 72t-39 190l79 445h75l-78 -445q-16 -87 26 -140.5t124 -53.5q83 0 144 53.5t76 140.5zM431 900l103 -125l-44 -38l-104 125z" />
    <glyph glyph-name="Uacute" unicode="&#xda;" horiz-adv-x="673" 
d="M566 255l79 445h75l-78 -445q-21 -118 -106 -190t-201 -72q-117 0 -176 72t-39 190l79 445h75l-78 -445q-16 -87 26 -140.5t124 -53.5q83 0 144 53.5t76 140.5zM411 775l147 125l32 -38l-148 -125z" />
    <glyph glyph-name="Ucircumflex" unicode="&#xdb;" horiz-adv-x="673" 
d="M566 255l79 445h75l-78 -445q-21 -118 -106 -190t-201 -72q-117 0 -176 72t-39 190l79 445h75l-78 -445q-16 -87 26 -140.5t124 -53.5q83 0 144 53.5t76 140.5zM495 900l103 -125l-45 -38l-71 87l-103 -87l-32 38z" />
    <glyph glyph-name="Udieresis" unicode="&#xdc;" horiz-adv-x="673" 
d="M566 255l79 445h75l-78 -445q-21 -118 -106 -190t-201 -72q-117 0 -176 72t-39 190l79 445h75l-78 -445q-16 -87 26 -140.5t124 -53.5q83 0 144 53.5t76 140.5zM337 797q2 19 18 33t36 14q19 0 30.5 -13.5t8.5 -33.5q-4 -19 -20 -32.5t-36 -13.5q-19 0 -30 13t-7 33z
M524 797q3 20 18.5 33.5t35.5 13.5t31.5 -13.5t7.5 -33.5t-20 -33t-36 -13q-19 0 -30 13t-7 33z" />
    <glyph glyph-name="Yacute" unicode="&#xdd;" horiz-adv-x="667" 
d="M295 0l53 302l-197 398h88l160 -323l275 323h87l-338 -399l-52 -301h-76zM407 775l148 125l31 -38l-147 -125z" />
    <glyph glyph-name="Thorn" unicode="&#xde;" horiz-adv-x="519" 
d="M76 0l123 700h78l-26 -146h111q92 0 138.5 -53t30.5 -143q-16 -88 -81.5 -141.5t-156.5 -53.5h-111l-28 -163h-78zM453 358q11 59 -17 95t-85 36h-112l-46 -260h112q56 0 97 35.5t51 93.5z" />
    <glyph glyph-name="germandbls" unicode="&#xdf;" horiz-adv-x="600" 
d="M249 571l-145 -821h-76l146 821q14 83 77.5 134.5t151.5 51.5t133 -51.5t31 -134.5q-11 -64 -53 -110.5t-102 -61.5q-7 -40 10 -66.5t45 -41.5t56 -31.5t44 -48t8 -79.5q-11 -57 -57 -98t-117 -41q-93 0 -137 60l53 45q31 -44 90 -44q40 0 65 23.5t29 51.5q6 32 -12 53.5
t-46 36t-55.5 32t-43 53t-6.5 86.5l11 60q54 0 93.5 33t48.5 87q10 54 -18 88t-82 34t-93.5 -34t-48.5 -87z" />
    <glyph glyph-name="agrave" unicode="&#xe0;" horiz-adv-x="539" 
d="M359 457q123 0 174 -73l-67 -384h-73l6 36q-61 -43 -139 -43q-97 0 -145.5 64t-30.5 168q19 104 94.5 168t180.5 64zM160 225q-13 -74 22.5 -120.5t106.5 -46.5t122 43l44 256q-38 35 -109 35q-70 0 -121.5 -46.5t-64.5 -120.5zM334 675l102 -125l-44 -38l-104 125z" />
    <glyph glyph-name="aacute" unicode="&#xe1;" horiz-adv-x="539" 
d="M359 457q123 0 174 -73l-67 -384h-73l6 36q-61 -43 -139 -43q-97 0 -145.5 64t-30.5 168q19 104 94.5 168t180.5 64zM160 225q-13 -74 22.5 -120.5t106.5 -46.5t122 43l44 256q-38 35 -109 35q-70 0 -121.5 -46.5t-64.5 -120.5zM313 550l147 125l31 -38l-147 -125z" />
    <glyph glyph-name="acircumflex" unicode="&#xe2;" horiz-adv-x="539" 
d="M359 457q123 0 174 -73l-67 -384h-73l6 36q-61 -43 -139 -43q-97 0 -145.5 64t-30.5 168q19 104 94.5 168t180.5 64zM160 225q-13 -74 22.5 -120.5t106.5 -46.5t122 43l44 256q-38 35 -109 35q-70 0 -121.5 -46.5t-64.5 -120.5zM398 675l103 -125l-45 -38l-72 87
l-102 -87l-32 38z" />
    <glyph glyph-name="atilde" unicode="&#xe3;" horiz-adv-x="539" 
d="M359 457q123 0 174 -73l-67 -384h-73l6 36q-61 -43 -139 -43q-97 0 -145.5 64t-30.5 168q19 104 94.5 168t180.5 64zM160 225q-13 -74 22.5 -120.5t106.5 -46.5t122 43l44 256q-38 35 -109 35q-70 0 -121.5 -46.5t-64.5 -120.5zM278 539h-42q7 39 34.5 63.5t64.5 24.5
q31 0 55 -24.5t44 -24.5q19 0 32.5 12t17.5 32h42q-7 -39 -34.5 -63t-65.5 -24q-20 0 -34.5 7.5t-20.5 16.5t-17 16.5t-25 7.5q-19 0 -33 -12t-18 -32z" />
    <glyph glyph-name="adieresis" unicode="&#xe4;" horiz-adv-x="539" 
d="M359 457q123 0 174 -73l-67 -384h-73l6 36q-61 -43 -139 -43q-97 0 -145.5 64t-30.5 168q19 104 94.5 168t180.5 64zM160 225q-13 -74 22.5 -120.5t106.5 -46.5t122 43l44 256q-38 35 -109 35q-70 0 -121.5 -46.5t-64.5 -120.5zM425 573q4 20 20 33.5t35 13.5
q20 0 31 -13.5t8 -33.5q-4 -20 -20 -33.5t-36 -13.5t-31 14t-7 33zM238 573q3 19 18.5 32.5t35.5 13.5t31.5 -13.5t7.5 -32.5q-4 -20 -20 -33.5t-35 -13.5q-20 0 -31 14t-7 33z" />
    <glyph glyph-name="aring" unicode="&#xe5;" horiz-adv-x="539" 
d="M359 457q123 0 174 -73l-67 -384h-73l6 36q-61 -43 -139 -43q-97 0 -145.5 64t-30.5 168q19 104 94.5 168t180.5 64zM160 225q-13 -74 22.5 -120.5t106.5 -46.5t122 43l44 256q-38 35 -109 35q-70 0 -121.5 -46.5t-64.5 -120.5zM296 596q8 40 36.5 64.5t67.5 24.5
q40 0 59.5 -24.5t12.5 -64.5q-8 -41 -36 -65.5t-68 -24.5q-39 0 -59 25t-13 65zM332 595q-4 -24 7.5 -39t34.5 -15q24 0 41 15t22 39q4 24 -8 39.5t-35 15.5t-40.5 -15t-21.5 -40z" />
    <glyph glyph-name="ae" unicode="&#xe6;" horiz-adv-x="720" 
d="M342 259l10 55q6 32 -13.5 57.5t-63.5 25.5q-62 0 -104 -37l-33 40q66 57 154 57q78 0 111 -52q63 52 149 52q97 0 139 -67t22 -184h-308l-16 -94q33 -54 115 -54q76 0 128 47l36 -45q-75 -67 -180 -67q-113 0 -162 69q-69 -69 -152 -69q-63 0 -90 36.5t-18 86.5
q12 68 80.5 107t162.5 39q23 0 33 -3zM425 314l-10 -56h234q5 62 -23 98.5t-83 36.5q-69 0 -116 -50q0 -9 -2 -29zM314 101l20 108q-16 2 -30 2q-65 0 -110.5 -24t-52.5 -64q-6 -26 9 -48t56 -22q58 0 108 48z" />
    <glyph glyph-name="ccedilla" unicode="&#xe7;" horiz-adv-x="478" 
d="M160 225q-13 -74 22.5 -120.5t106.5 -46.5q74 0 126 47l37 -45q-69 -62 -166 -67l-9 -52q29 -5 43.5 -25t8.5 -51q-7 -36 -33.5 -58t-63.5 -22q-36 0 -55 25l29 25q12 -14 33 -14t36 12t19 33q3 21 -10.5 34t-45.5 13l14 81q-93 7 -139 70t-29 161q19 104 94 168t178 64
q102 0 154 -68l-53 -45q-35 48 -109 48q-71 0 -123 -46.5t-65 -120.5z" />
    <glyph glyph-name="egrave" unicode="&#xe8;" horiz-adv-x="508" 
d="M501 206h-343q-7 -67 29 -107.5t105 -40.5q76 0 128 47l36 -45q-75 -67 -180 -67q-104 0 -157 64.5t-34 169.5q18 102 89 166t167 64q97 0 138.5 -67t21.5 -184zM331 393q-57 0 -101.5 -36.5t-61.5 -98.5h269q5 62 -23 98.5t-83 36.5zM316 675l103 -125l-44 -38l-104 125
z" />
    <glyph glyph-name="eacute" unicode="&#xe9;" horiz-adv-x="508" 
d="M501 206h-343q-7 -67 29 -107.5t105 -40.5q76 0 128 47l36 -45q-75 -67 -180 -67q-104 0 -157 64.5t-34 169.5q18 102 89 166t167 64q97 0 138.5 -67t21.5 -184zM331 393q-57 0 -101.5 -36.5t-61.5 -98.5h269q5 62 -23 98.5t-83 36.5zM294 550l148 125l31 -38l-147 -125z
" />
    <glyph glyph-name="ecircumflex" unicode="&#xea;" horiz-adv-x="508" 
d="M501 206h-343q-7 -67 29 -107.5t105 -40.5q76 0 128 47l36 -45q-75 -67 -180 -67q-104 0 -157 64.5t-34 169.5q18 102 89 166t167 64q97 0 138.5 -67t21.5 -184zM331 393q-57 0 -101.5 -36.5t-61.5 -98.5h269q5 62 -23 98.5t-83 36.5zM379 675l103 -125l-44 -38l-72 87
l-103 -87l-31 38z" />
    <glyph glyph-name="edieresis" unicode="&#xeb;" horiz-adv-x="508" 
d="M501 206h-343q-7 -67 29 -107.5t105 -40.5q76 0 128 47l36 -45q-75 -67 -180 -67q-104 0 -157 64.5t-34 169.5q18 102 89 166t167 64q97 0 138.5 -67t21.5 -184zM331 393q-57 0 -101.5 -36.5t-61.5 -98.5h269q5 62 -23 98.5t-83 36.5zM221 573q4 19 19.5 32.5t35.5 13.5
t31 -13.5t7 -32.5q-4 -20 -20 -33.5t-35 -13.5q-20 0 -31 14t-7 33zM408 573q4 20 20 33.5t35 13.5q20 0 31 -13.5t8 -33.5q-4 -20 -20 -33.5t-35 -13.5q-20 0 -31.5 14t-7.5 33z" />
    <glyph glyph-name="igrave" unicode="&#xec;" 
d="M165 675l103 -125l-44 -38l-104 125zM73 0l79 450h73l-79 -450h-73z" />
    <glyph glyph-name="iacute" unicode="&#xed;" 
d="M145 550l147 125l31 -38l-147 -125zM73 0l79 450h73l-79 -450h-73z" />
    <glyph glyph-name="icircumflex" unicode="&#xee;" 
d="M73 0l79 450h73l-79 -450h-73zM229 675l102 -125l-44 -38l-72 87l-102 -87l-32 38z" />
    <glyph glyph-name="idieresis" unicode="&#xef;" 
d="M73 0l79 450h73l-79 -450h-73zM88 573q3 19 18.5 32.5t35.5 13.5t31 -13.5t8 -32.5q-4 -20 -20 -33.5t-35 -13.5q-20 0 -31 14t-7 33zM239 573q4 20 20 33.5t35 13.5q20 0 31 -13.5t8 -33.5q-4 -20 -20 -33.5t-35 -13.5q-20 0 -31.5 14t-7.5 33z" />
    <glyph glyph-name="eth" unicode="&#xf0;" horiz-adv-x="555" 
d="M261 538l-20 50l96 49l-48 84l72 36l46 -83l102 53l21 -50l-94 -49q79 -163 103.5 -239.5t10.5 -156.5q-19 -109 -94 -174t-179 -65q-105 0 -158 64.5t-34 168.5q18 103 94.5 167t177.5 64q48 0 83 -21q-35 79 -74 156zM474 225q13 74 -22.5 120.5t-105.5 46.5
t-121.5 -46.5t-64.5 -120.5t22 -120.5t105 -46.5t121.5 46.5t65.5 120.5z" />
    <glyph glyph-name="ntilde" unicode="&#xf1;" horiz-adv-x="521" 
d="M152 450h73l-7 -37q64 44 141 44q76 0 113 -50.5t23 -133.5l-48 -273h-72l47 273q10 52 -16 85.5t-76 33.5q-72 0 -123 -46l-61 -346h-73zM255 539h-43q7 39 35 63.5t64 24.5q31 0 55 -24.5t44 -24.5q19 0 32.5 12t17.5 32h42q-6 -39 -34 -63t-66 -24q-20 0 -34.5 7.5
t-20.5 16.5t-17 16.5t-25 7.5q-19 0 -33 -12t-17 -32z" />
    <glyph glyph-name="ograve" unicode="&#xf2;" horiz-adv-x="555" 
d="M84 225q19 104 95 168t179 64t156 -64t35 -168q-19 -104 -94.5 -168t-178.5 -64q-104 0 -157 64.5t-35 167.5zM160 225q-13 -74 22 -120.5t105 -46.5t121.5 46.5t65.5 120.5q13 74 -22.5 120.5t-105.5 46.5t-121.5 -46.5t-64.5 -120.5zM333 675l103 -125l-45 -38
l-104 125z" />
    <glyph glyph-name="oacute" unicode="&#xf3;" horiz-adv-x="555" 
d="M84 225q19 104 95 168t179 64t156 -64t35 -168q-19 -104 -94.5 -168t-178.5 -64q-104 0 -157 64.5t-35 167.5zM160 225q-13 -74 22 -120.5t105 -46.5t121.5 46.5t65.5 120.5q13 74 -22.5 120.5t-105.5 46.5t-121.5 -46.5t-64.5 -120.5zM312 550l148 125l31 -38l-147 -125
z" />
    <glyph glyph-name="ocircumflex" unicode="&#xf4;" horiz-adv-x="555" 
d="M84 225q19 104 95 168t179 64t156 -64t35 -168q-19 -104 -94.5 -168t-178.5 -64q-104 0 -157 64.5t-35 167.5zM160 225q-13 -74 22 -120.5t105 -46.5t121.5 46.5t65.5 120.5q13 74 -22.5 120.5t-105.5 46.5t-121.5 -46.5t-64.5 -120.5zM396 675l103 -125l-44 -38l-72 87
l-102 -87l-32 38z" />
    <glyph glyph-name="otilde" unicode="&#xf5;" horiz-adv-x="555" 
d="M84 225q19 104 95 168t179 64t156 -64t35 -168q-19 -104 -94.5 -168t-178.5 -64q-104 0 -157 64.5t-35 167.5zM160 225q-13 -74 22 -120.5t105 -46.5t121.5 46.5t65.5 120.5q13 74 -22.5 120.5t-105.5 46.5t-121.5 -46.5t-64.5 -120.5zM276 539h-42q7 39 34.5 63.5
t64.5 24.5q32 0 55.5 -24.5t43.5 -24.5q19 0 32.5 12t17.5 32h42q-7 -39 -34.5 -63t-65.5 -24q-20 0 -34.5 7.5t-20.5 16.5t-17 16.5t-25 7.5q-19 0 -33 -12t-18 -32z" />
    <glyph glyph-name="odieresis" unicode="&#xf6;" horiz-adv-x="555" 
d="M84 225q19 104 95 168t179 64t156 -64t35 -168q-19 -104 -94.5 -168t-178.5 -64q-104 0 -157 64.5t-35 167.5zM160 225q-13 -74 22 -120.5t105 -46.5t121.5 46.5t65.5 120.5q13 74 -22.5 120.5t-105.5 46.5t-121.5 -46.5t-64.5 -120.5zM238 573q3 19 18.5 32.5t35.5 13.5
t31 -13.5t8 -32.5q-4 -20 -20 -33.5t-35 -13.5q-20 0 -31 14t-7 33zM425 573q3 19 19 33t36 14q19 0 30.5 -13.5t8.5 -33.5q-4 -20 -20 -33.5t-36 -13.5t-31 14t-7 33z" />
    <glyph glyph-name="divide" unicode="&#xf7;" horiz-adv-x="500" 
d="M102 238l11 58h378l-10 -58h-379zM222 102q3 19 18.5 32t35.5 13q19 0 29.5 -13t7.5 -32q-4 -20 -19 -33t-34 -13q-20 0 -31 13.5t-7 32.5zM280 432q4 20 19.5 33t34.5 13t30 -13.5t7 -32.5q-3 -19 -18.5 -32t-34.5 -13t-30 13t-8 32z" />
    <glyph glyph-name="oslash" unicode="&#xf8;" horiz-adv-x="555" 
d="M52 -7l65 67q-51 64 -33 165q19 104 95 168t179 64q69 0 116 -29l33 34h76l-68 -70q52 -65 34 -167q-19 -104 -94.5 -168t-178.5 -64q-71 0 -119 31l-30 -31h-75zM478 225q12 67 -15 113l-257 -264q32 -21 80 -21q72 0 125.5 48t66.5 124zM155 225q-12 -66 14 -111
l255 263q-32 20 -77 20q-72 0 -125 -47.5t-67 -124.5z" />
    <glyph glyph-name="ugrave" unicode="&#xf9;" horiz-adv-x="531" 
d="M537 450l-48 -265q-15 -86 -77 -139t-148 -53t-130 53t-29 139l47 265h76l-47 -265q-10 -57 16.5 -92t79.5 -35t92 35.5t49 91.5l47 265h72zM320 675l103 -125l-44 -38l-104 125z" />
    <glyph glyph-name="uacute" unicode="&#xfa;" horiz-adv-x="531" 
d="M537 450l-48 -265q-15 -86 -77 -139t-148 -53t-130 53t-29 139l47 265h76l-47 -265q-10 -57 16.5 -92t79.5 -35t92 35.5t49 91.5l47 265h72zM300 550l148 125l30 -38l-146 -125z" />
    <glyph glyph-name="ucircumflex" unicode="&#xfb;" horiz-adv-x="531" 
d="M537 450l-48 -265q-15 -86 -77 -139t-148 -53t-130 53t-29 139l47 265h76l-47 -265q-10 -57 16.5 -92t79.5 -35t92 35.5t49 91.5l47 265h72zM384 675l103 -125l-44 -38l-73 87l-102 -87l-32 38z" />
    <glyph glyph-name="udieresis" unicode="&#xfc;" horiz-adv-x="531" 
d="M537 450l-48 -265q-15 -86 -77 -139t-148 -53t-130 53t-29 139l47 265h76l-47 -265q-10 -57 16.5 -92t79.5 -35t92 35.5t49 91.5l47 265h72zM225 573q4 19 19.5 32.5t35.5 13.5t31 -13.5t8 -32.5q-4 -20 -20 -33.5t-35 -13.5q-20 0 -31.5 14t-7.5 33zM413 573
q3 20 19 33.5t35 13.5q20 0 31.5 -13.5t7.5 -33.5t-20 -33.5t-35 -13.5q-20 0 -31 14t-7 33z" />
    <glyph glyph-name="yacute" unicode="&#xfd;" horiz-adv-x="529" 
d="M582 450l-445 -700h-81l174 250l-125 450h81l94 -363l221 363h81zM299 550l148 125l31 -38l-147 -125z" />
    <glyph glyph-name="thorn" unicode="&#xfe;" horiz-adv-x="541" 
d="M205 750h73l-60 -337q64 44 142 44q97 0 145 -64t30 -168q-19 -104 -93 -168t-175 -64q-72 0 -117 33l-49 -276h-73zM459 225q13 74 -22.5 120.5t-106.5 46.5q-72 0 -123 -46l-44 -245q35 -43 108 -43q71 0 123 46.5t65 120.5z" />
    <glyph glyph-name="ydieresis" unicode="&#xff;" horiz-adv-x="529" 
d="M582 450l-445 -700h-81l174 250l-125 450h81l94 -363l221 363h81zM225 573q3 19 18.5 32.5t35.5 13.5t31 -13.5t8 -32.5q-4 -20 -20 -33.5t-35 -13.5q-20 0 -31 14t-7 33zM412 573q3 19 19 33t36 14t31 -14t7 -33q-3 -20 -19 -33.5t-36 -13.5t-31 14t-7 33z" />
    <glyph glyph-name="Amacron" unicode="&#x100;" horiz-adv-x="749" 
d="M634 0l-53 202h-343l-123 -202h-87l434 700h72l187 -700h-87zM481 604l-203 -334h287zM388 768l8 46h244l-8 -46h-244z" />
    <glyph glyph-name="amacron" unicode="&#x101;" horiz-adv-x="539" 
d="M359 457q123 0 174 -73l-67 -384h-73l6 36q-61 -43 -139 -43q-97 0 -145.5 64t-30.5 168q19 104 94.5 168t180.5 64zM160 225q-13 -74 22.5 -120.5t106.5 -46.5t122 43l44 256q-38 35 -109 35q-70 0 -121.5 -46.5t-64.5 -120.5zM252 543l8 47h244l-8 -47h-244z" />
    <glyph glyph-name="Abreve" unicode="&#x102;" horiz-adv-x="749" 
d="M634 0l-53 202h-343l-123 -202h-87l434 700h72l187 -700h-87zM481 604l-203 -334h287zM516 807q63 0 110 42l32 -38q-69 -59 -151 -59t-130 59l45 38q32 -42 94 -42z" />
    <glyph glyph-name="abreve" unicode="&#x103;" horiz-adv-x="539" 
d="M359 457q123 0 174 -73l-67 -384h-73l6 36q-61 -43 -139 -43q-97 0 -145.5 64t-30.5 168q19 104 94.5 168t180.5 64zM160 225q-13 -74 22.5 -120.5t106.5 -46.5t122 43l44 256q-38 35 -109 35q-70 0 -121.5 -46.5t-64.5 -120.5zM381 582q62 0 110 42l31 -38
q-67 -59 -151 -59q-81 0 -130 60l45 38q35 -43 95 -43z" />
    <glyph glyph-name="Aogonek" unicode="&#x104;" horiz-adv-x="749" 
d="M656 -39q-5 -27 7.5 -42.5t36.5 -15.5q25 0 43 16l23 -27q-29 -26 -72 -26q-42 0 -63 26t-13 69q3 22 16 39l-53 202h-343l-123 -202h-87l434 700h72l187 -700h-48q-14 -15 -17 -39zM481 604l-203 -334h287z" />
    <glyph glyph-name="aogonek" unicode="&#x105;" horiz-adv-x="539" 
d="M415 -39q-5 -27 7.5 -42.5t36.5 -15.5q25 0 43 16l23 -27q-29 -26 -72 -26q-42 0 -63 26t-13 69q3 22 16 39l6 36q-61 -43 -139 -43q-97 0 -145.5 64t-30.5 168q19 104 94.5 168t180.5 64q123 0 174 -73l-67 -384h-34q-14 -15 -17 -39zM160 225q-13 -74 22.5 -120.5
t106.5 -46.5t122 43l44 256q-38 35 -109 35q-70 0 -121.5 -46.5t-64.5 -120.5z" />
    <glyph glyph-name="Cacute" unicode="&#x106;" horiz-adv-x="699" 
d="M189 350q-22 -129 40.5 -209t186.5 -80q126 0 219 80l40 -47q-115 -101 -274 -101q-157 0 -237.5 99t-52.5 258q29 159 144 258t272 99q158 0 238 -101l-57 -48q-64 81 -190 81q-123 0 -215 -80t-114 -209zM456 780l148 125l31 -38l-147 -125z" />
    <glyph glyph-name="cacute" unicode="&#x107;" horiz-adv-x="478" 
d="M160 225q-13 -74 22.5 -120.5t106.5 -46.5q74 0 126 47l37 -45q-75 -67 -178 -67t-155.5 64.5t-34.5 167.5q19 104 94 168t178 64q102 0 154 -68l-53 -45q-35 48 -109 48q-71 0 -123 -46.5t-65 -120.5zM301 550l148 125l31 -38l-147 -125z" />
    <glyph glyph-name="Ccircumflex" unicode="&#x108;" horiz-adv-x="699" 
d="M189 350q-22 -129 40.5 -209t186.5 -80q126 0 219 80l40 -47q-115 -101 -274 -101q-157 0 -237.5 99t-52.5 258q29 159 144 258t272 99q158 0 238 -101l-57 -48q-64 81 -190 81q-123 0 -215 -80t-114 -209zM540 900l103 -125l-44 -38l-72 87l-103 -87l-31 38z" />
    <glyph glyph-name="ccircumflex" unicode="&#x109;" horiz-adv-x="478" 
d="M160 225q-13 -74 22.5 -120.5t106.5 -46.5q74 0 126 47l37 -45q-75 -67 -178 -67t-155.5 64.5t-34.5 167.5q19 104 94 168t178 64q102 0 154 -68l-53 -45q-35 48 -109 48q-71 0 -123 -46.5t-65 -120.5zM384 675l103 -125l-44 -38l-72 87l-102 -87l-32 38z" />
    <glyph glyph-name="Cdotaccent" unicode="&#x10a;" horiz-adv-x="699" 
d="M189 350q-22 -129 40.5 -209t186.5 -80q126 0 219 80l40 -47q-115 -101 -274 -101q-157 0 -237.5 99t-52.5 258q29 159 144 258t272 99q158 0 238 -101l-57 -48q-64 81 -190 81q-123 0 -215 -80t-114 -209zM475 810q4 20 20.5 34.5t37.5 14.5q20 0 32 -14.5t8 -34.5
q-3 -21 -19.5 -35t-37.5 -14t-32.5 14t-8.5 35z" />
    <glyph glyph-name="cdotaccent" unicode="&#x10b;" horiz-adv-x="478" 
d="M160 225q-13 -74 22.5 -120.5t106.5 -46.5q74 0 126 47l37 -45q-75 -67 -178 -67t-155.5 64.5t-34.5 167.5q19 104 94 168t178 64q102 0 154 -68l-53 -45q-35 48 -109 48q-71 0 -123 -46.5t-65 -120.5zM318 585q4 20 20.5 34.5t36.5 14.5q21 0 33 -14.5t8 -34.5
t-21 -34.5t-37 -14.5q-21 0 -32.5 14.5t-7.5 34.5z" />
    <glyph glyph-name="Ccaron" unicode="&#x10c;" horiz-adv-x="699" 
d="M189 350q-22 -129 40.5 -209t186.5 -80q126 0 219 80l40 -47q-115 -101 -274 -101q-157 0 -237.5 99t-52.5 258q29 159 144 258t272 99q158 0 238 -101l-57 -48q-64 81 -190 81q-123 0 -215 -80t-114 -209zM510 737l-104 125l45 38l72 -87l103 87l31 -38z" />
    <glyph glyph-name="ccaron" unicode="&#x10d;" horiz-adv-x="478" 
d="M160 225q-13 -74 22.5 -120.5t106.5 -46.5q74 0 126 47l37 -45q-75 -67 -178 -67t-155.5 64.5t-34.5 167.5q19 104 94 168t178 64q102 0 154 -68l-53 -45q-35 48 -109 48q-71 0 -123 -46.5t-65 -120.5zM355 512l-104 125l45 38l72 -87l103 87l30 -38z" />
    <glyph glyph-name="Dcaron" unicode="&#x10e;" horiz-adv-x="692" 
d="M76 0l123 700h214q157 0 237.5 -96t52.5 -254t-142 -254t-271 -96h-214zM625 350q22 129 -39.5 206.5t-184.5 77.5h-136l-100 -568h136q123 0 212 77.5t112 206.5zM465 737l-103 125l45 38l72 -87l102 87l31 -38z" />
    <glyph glyph-name="dcaron" unicode="&#x10f;" horiz-adv-x="680" 
d="M468 0h-73l6 38q-62 -45 -141 -45q-97 0 -145.5 64t-30.5 168q19 104 93.5 168t176.5 64q68 0 115 -33l58 326h73zM160 225q-13 -74 22.5 -120.5t106.5 -46.5q73 0 124 45l43 246q-37 43 -108 43t-123 -46.5t-65 -120.5zM681 561l-22 26q48 42 60 73q-17 3 -26.5 16.5
t-6.5 31.5q4 21 20.5 35t37.5 14q20 0 31.5 -14t7.5 -43q-12 -64 -102 -139z" />
    <glyph glyph-name="Dcroat" unicode="&#x110;" horiz-adv-x="708" 
d="M101 321l11 58h56l56 321h204q158 0 238 -96t52 -254t-141.5 -254t-271.5 -96h-204l56 321h-56zM640 350q22 129 -39 206.5t-184 77.5h-127l-45 -255h161l-10 -58h-162l-44 -255h126q123 0 212.5 77.5t111.5 206.5z" />
    <glyph glyph-name="dcroat" unicode="&#x111;" horiz-adv-x="555" 
d="M468 0h-73l6 37q-64 -44 -141 -44q-97 0 -145.5 64t-30.5 168q19 104 93.5 168t176.5 64q71 0 115 -35l28 157h-134l11 58h133l20 113h73l-20 -113h57l-10 -58h-58zM160 225q-13 -74 22.5 -120.5t106.5 -46.5q73 0 124 45l43 246q-37 43 -108 43t-123 -46.5t-65 -120.5z
" />
    <glyph glyph-name="Emacron" unicode="&#x112;" horiz-adv-x="498" 
d="M263 637l-44 -253h261l-11 -63h-262l-45 -258h299l-11 -63h-374l123 700h369l-11 -63h-294zM275 768l8 46h244l-8 -46h-244z" />
    <glyph glyph-name="emacron" unicode="&#x113;" horiz-adv-x="508" 
d="M501 206h-343q-7 -67 29 -107.5t105 -40.5q76 0 128 47l36 -45q-75 -67 -180 -67q-104 0 -157 64.5t-34 169.5q18 102 89 166t167 64q97 0 138.5 -67t21.5 -184zM331 393q-57 0 -101.5 -36.5t-61.5 -98.5h269q5 62 -23 98.5t-83 36.5zM233 543l9 47h244l-9 -47h-244z" />
    <glyph glyph-name="Ebreve" unicode="&#x114;" horiz-adv-x="498" 
d="M263 637l-44 -253h261l-11 -63h-262l-45 -258h299l-11 -63h-374l123 700h369l-11 -63h-294zM403 807q63 0 110 42l32 -38q-69 -59 -151 -59t-130 59l45 38q34 -42 94 -42z" />
    <glyph glyph-name="ebreve" unicode="&#x115;" horiz-adv-x="508" 
d="M501 206h-343q-7 -67 29 -107.5t105 -40.5q76 0 128 47l36 -45q-75 -67 -180 -67q-104 0 -157 64.5t-34 169.5q18 102 89 166t167 64q97 0 138.5 -67t21.5 -184zM331 393q-57 0 -101.5 -36.5t-61.5 -98.5h269q5 62 -23 98.5t-83 36.5zM362 582q62 0 110 42l31 -38
q-67 -59 -151 -59q-81 0 -130 60l45 38q35 -43 95 -43z" />
    <glyph glyph-name="Edotaccent" unicode="&#x116;" horiz-adv-x="498" 
d="M263 637l-44 -253h261l-11 -63h-262l-45 -258h299l-11 -63h-374l123 700h369l-11 -63h-294zM355 810q4 20 20.5 34.5t37.5 14.5q20 0 32 -14.5t8 -34.5q-4 -21 -20.5 -35t-37.5 -14q-20 0 -32 14t-8 35z" />
    <glyph glyph-name="edotaccent" unicode="&#x117;" horiz-adv-x="508" 
d="M501 206h-343q-7 -67 29 -107.5t105 -40.5q76 0 128 47l36 -45q-75 -67 -180 -67q-104 0 -157 64.5t-34 169.5q18 102 89 166t167 64q97 0 138.5 -67t21.5 -184zM331 393q-57 0 -101.5 -36.5t-61.5 -98.5h269q5 62 -23 98.5t-83 36.5zM315 585q3 20 20 34.5t37 14.5
q21 0 32.5 -14t8.5 -35q-4 -20 -21 -34.5t-37 -14.5q-21 0 -32.5 14.5t-7.5 34.5z" />
    <glyph glyph-name="Eogonek" unicode="&#x118;" horiz-adv-x="498" 
d="M332 -39q-5 -27 7.5 -42.5t36.5 -15.5q25 0 43 16l23 -27q-31 -26 -72 -26q-42 0 -63 26t-14 69q3 22 17 39h-234l123 700h369l-11 -63h-294l-44 -253h261l-11 -63h-262l-45 -258h299l-11 -63h-101q-14 -15 -17 -39z" />
    <glyph glyph-name="eogonek" unicode="&#x119;" horiz-adv-x="508" 
d="M322 -39q-6 -26 6.5 -42t37.5 -16q24 0 43 16l23 -27q-31 -26 -73 -26t-62.5 26t-13.5 69q1 18 12 33q-7 -1 -19 -1q-104 0 -157 64.5t-34 169.5q18 102 89 166t167 64q97 0 138.5 -67t21.5 -184h-343q-7 -67 29 -107.5t105 -40.5q76 0 128 47l36 -45q-49 -45 -117 -60
q-14 -15 -17 -39zM331 393q-57 0 -101.5 -36.5t-61.5 -98.5h269q5 62 -23 98.5t-83 36.5z" />
    <glyph glyph-name="Ecaron" unicode="&#x11a;" horiz-adv-x="498" 
d="M263 637l-44 -253h261l-11 -63h-262l-45 -258h299l-11 -63h-374l123 700h369l-11 -63h-294zM391 737l-103 125l45 38l72 -87l102 87l31 -38z" />
    <glyph glyph-name="ecaron" unicode="&#x11b;" horiz-adv-x="508" 
d="M501 206h-343q-7 -67 29 -107.5t105 -40.5q76 0 128 47l36 -45q-75 -67 -180 -67q-104 0 -157 64.5t-34 169.5q18 102 89 166t167 64q97 0 138.5 -67t21.5 -184zM331 393q-57 0 -101.5 -36.5t-61.5 -98.5h269q5 62 -23 98.5t-83 36.5zM350 512l-104 125l46 38l71 -87
l103 87l31 -38z" />
    <glyph glyph-name="Gcircumflex" unicode="&#x11c;" horiz-adv-x="735" 
d="M456 306l11 63h256l-49 -276q-112 -100 -273 -100q-157 0 -237.5 99t-52.5 258q29 159 144 258t272 99q158 0 238 -101l-57 -48q-64 81 -190 81q-123 0 -215 -80t-114 -209t40.5 -209t186.5 -80q107 0 189 59l32 186h-181zM560 900l103 -125l-45 -38l-71 87l-103 -87
l-32 38z" />
    <glyph glyph-name="gcircumflex" unicode="&#x11d;" horiz-adv-x="507" 
d="M2 -118q7 43 40.5 75t83.5 48q-53 25 -45 75q11 52 77 77q-35 18 -48.5 54t-5.5 82q13 74 70.5 119t136.5 45q72 0 114 -40q40 40 84 40q17 0 24 -2l-10 -59q-9 3 -20 3q-25 0 -51 -23q14 -35 6 -81q-13 -72 -70 -117t-137 -45q-42 0 -68.5 -14.5t-30.5 -36.5t22.5 -36
t75.5 -14q96 0 147.5 -38t40.5 -100q-12 -67 -84.5 -109t-171.5 -42q-93 0 -142 38.5t-38 100.5zM77 -118q-7 -37 24 -59.5t90 -22.5q65 0 114.5 26t56.5 67q6 37 -27.5 59t-94.5 22q-67 0 -111.5 -25.5t-51.5 -66.5zM177 295q-8 -46 16 -75t71 -29q46 0 80.5 29t42.5 75
t-16 75t-70 29t-81 -29t-43 -75zM348 675l102 -125l-44 -38l-72 87l-102 -87l-32 38z" />
    <glyph glyph-name="Gbreve" unicode="&#x11e;" horiz-adv-x="735" 
d="M456 306l11 63h256l-49 -276q-112 -100 -273 -100q-157 0 -237.5 99t-52.5 258q29 159 144 258t272 99q158 0 238 -101l-57 -48q-64 81 -190 81q-123 0 -215 -80t-114 -209t40.5 -209t186.5 -80q107 0 189 59l32 186h-181zM542 807q63 0 111 42l31 -38q-69 -59 -151 -59
q-81 0 -130 59l45 38q34 -42 94 -42z" />
    <glyph glyph-name="gbreve" unicode="&#x11f;" horiz-adv-x="507" 
d="M2 -118q7 43 40.5 75t83.5 48q-53 25 -45 75q11 52 77 77q-35 18 -48.5 54t-5.5 82q13 74 70.5 119t136.5 45q72 0 114 -40q40 40 84 40q17 0 24 -2l-10 -59q-9 3 -20 3q-25 0 -51 -23q14 -35 6 -81q-13 -72 -70 -117t-137 -45q-42 0 -68.5 -14.5t-30.5 -36.5t22.5 -36
t75.5 -14q96 0 147.5 -38t40.5 -100q-12 -67 -84.5 -109t-171.5 -42q-93 0 -142 38.5t-38 100.5zM77 -118q-7 -37 24 -59.5t90 -22.5q65 0 114.5 26t56.5 67q6 37 -27.5 59t-94.5 22q-67 0 -111.5 -25.5t-51.5 -66.5zM177 295q-8 -46 16 -75t71 -29q46 0 80.5 29t42.5 75
t-16 75t-70 29t-81 -29t-43 -75zM333 582q61 0 109 42l31 -38q-67 -59 -151 -59q-82 0 -129 60l44 38q35 -43 96 -43z" />
    <glyph glyph-name="Gdotaccent" unicode="&#x120;" horiz-adv-x="735" 
d="M456 306l11 63h256l-49 -276q-112 -100 -273 -100q-157 0 -237.5 99t-52.5 258q29 159 144 258t272 99q158 0 238 -101l-57 -48q-64 81 -190 81q-123 0 -215 -80t-114 -209t40.5 -209t186.5 -80q107 0 189 59l32 186h-181zM494 810q4 20 20.5 34.5t37.5 14.5
q20 0 32 -14.5t8 -34.5q-3 -21 -19.5 -35t-37.5 -14t-32.5 14t-8.5 35z" />
    <glyph glyph-name="gdotaccent" unicode="&#x121;" horiz-adv-x="507" 
d="M2 -118q7 43 40.5 75t83.5 48q-53 25 -45 75q11 52 77 77q-35 18 -48.5 54t-5.5 82q13 74 70.5 119t136.5 45q72 0 114 -40q40 40 84 40q17 0 24 -2l-10 -59q-9 3 -20 3q-25 0 -51 -23q14 -35 6 -81q-13 -72 -70 -117t-137 -45q-42 0 -68.5 -14.5t-30.5 -36.5t22.5 -36
t75.5 -14q96 0 147.5 -38t40.5 -100q-12 -67 -84.5 -109t-171.5 -42q-93 0 -142 38.5t-38 100.5zM77 -118q-7 -37 24 -59.5t90 -22.5q65 0 114.5 26t56.5 67q6 37 -27.5 59t-94.5 22q-67 0 -111.5 -25.5t-51.5 -66.5zM177 295q-8 -46 16 -75t71 -29q46 0 80.5 29t42.5 75
t-16 75t-70 29t-81 -29t-43 -75zM282 585q3 20 20 34.5t37 14.5t32 -14.5t9 -34.5q-5 -21 -21.5 -35t-37.5 -14q-20 0 -31.5 14.5t-7.5 34.5z" />
    <glyph glyph-name="Gcommaaccent" unicode="&#x122;" horiz-adv-x="735" 
d="M456 306l11 63h256l-49 -276q-112 -100 -273 -100q-157 0 -237.5 99t-52.5 258q29 159 144 258t272 99q158 0 238 -101l-57 -48q-64 81 -190 81q-123 0 -215 -80t-114 -209t40.5 -209t186.5 -80q107 0 189 59l32 186h-181zM331 -217l-18 22q41 34 52 65q-14 2 -22.5 13.5
t-5.5 26.5q3 18 17 30t32 12t28 -12t5 -37q-9 -54 -88 -120z" />
    <glyph glyph-name="gcommaaccent" unicode="&#x123;" horiz-adv-x="507" 
d="M2 -118q7 43 40.5 75t83.5 48q-53 25 -45 75q11 52 77 77q-35 18 -48.5 54t-5.5 82q13 74 70.5 119t136.5 45q72 0 114 -40q40 40 84 40q17 0 24 -2l-10 -59q-9 3 -20 3q-25 0 -51 -23q14 -35 6 -81q-13 -72 -70 -117t-137 -45q-42 0 -68.5 -14.5t-30.5 -36.5t22.5 -36
t75.5 -14q96 0 147.5 -38t40.5 -100q-12 -67 -84.5 -109t-171.5 -42q-93 0 -142 38.5t-38 100.5zM77 -118q-7 -37 24 -59.5t90 -22.5q65 0 114.5 26t56.5 67q6 37 -27.5 59t-94.5 22q-67 0 -111.5 -25.5t-51.5 -66.5zM177 295q-8 -46 16 -75t71 -29q46 0 80.5 29t42.5 75
t-16 75t-70 29t-81 -29t-43 -75zM377 683l18 -22q-42 -39 -52 -65q15 -2 23 -13.5t5 -27.5q-3 -17 -17 -29.5t-32 -12.5q-17 0 -27 12.5t-5 36.5q8 55 87 121z" />
    <glyph glyph-name="Hcircumflex" unicode="&#x124;" horiz-adv-x="690" 
d="M274 700l-55 -316h388l55 316h75l-123 -700h-75l56 321h-388l-56 -321h-75l123 700h75zM503 900l103 -125l-44 -38l-72 87l-102 -87l-32 38z" />
    <glyph glyph-name="hcircumflex" unicode="&#x125;" horiz-adv-x="523" 
d="M205 750h73l-60 -337q64 44 141 44q76 0 113 -50.5t23 -133.5l-48 -273h-72l47 273q10 52 -16 85.5t-76 33.5q-73 0 -123 -45l-61 -347h-73zM434 910l103 -125l-45 -38l-72 87l-102 -87l-32 38z" />
    <glyph glyph-name="Hbar" unicode="&#x126;" horiz-adv-x="700" 
d="M101 0l89 510h-60l10 59h61l23 131h75l-23 -131h343l23 131h75l-23 -131h65l-10 -59h-65l-90 -510h-75l56 321h-343l-56 -321h-75zM243 384h344l22 126h-343z" />
    <glyph glyph-name="hbar" unicode="&#x127;" horiz-adv-x="538" 
d="M134 592l10 58h58l18 100h73l-18 -100h173l-10 -58h-174l-31 -180q64 45 140 45q77 0 114 -50.5t22 -133.5l-47 -273h-73l48 273q9 53 -16.5 86t-76.5 33q-72 0 -123 -45l-60 -347h-73l104 592h-58z" />
    <glyph glyph-name="Itilde" unicode="&#x128;" horiz-adv-x="222" 
d="M73 0l123 700h76l-123 -700h-76zM151 764h-43q7 39 34.5 63t64.5 24q31 0 55 -24t44 -24q18 0 32 12.5t18 31.5h43q-7 -39 -35 -63t-66 -24q-25 0 -40.5 12t-28 24t-29.5 12q-19 0 -32.5 -12t-16.5 -32z" />
    <glyph glyph-name="itilde" unicode="&#x129;" 
d="M109 539h-42q7 39 34.5 63.5t64.5 24.5q25 0 40.5 -12.5t28.5 -24.5t30 -12q18 0 32 12.5t18 31.5h42q-7 -39 -34.5 -63t-65.5 -24q-20 0 -34.5 7.5t-20.5 16.5t-17 16.5t-25 7.5q-19 0 -33 -12t-18 -32zM73 0l79 450h73l-79 -450h-73z" />
    <glyph glyph-name="Imacron" unicode="&#x12a;" horiz-adv-x="222" 
d="M73 0l123 700h76l-123 -700h-76zM124 768l9 46h244l-9 -46h-244z" />
    <glyph glyph-name="imacron" unicode="&#x12b;" 
d="M83 543l8 47h244l-8 -47h-244zM73 0l79 450h73l-79 -450h-73z" />
    <glyph glyph-name="Ibreve" unicode="&#x12c;" horiz-adv-x="222" 
d="M73 0l123 700h76l-123 -700h-76zM253 807q62 0 110 42l31 -38q-69 -59 -151 -59q-81 0 -130 59l45 38q34 -42 95 -42z" />
    <glyph glyph-name="ibreve" unicode="&#x12d;" 
d="M212 582q62 0 110 42l31 -38q-67 -59 -151 -59q-81 0 -130 60l45 38q35 -43 95 -43zM73 0l79 450h73l-79 -450h-73z" />
    <glyph glyph-name="Iogonek" unicode="&#x12e;" horiz-adv-x="222" 
d="M73 0l123 700h76l-123 -700h-76zM95 -39q-5 -27 7.5 -42.5t36.5 -15.5q25 0 44 16l22 -27q-29 -26 -72 -26q-42 0 -63 26t-13 69q3 22 16 39h39q-12 -15 -17 -39z" />
    <glyph glyph-name="iogonek" unicode="&#x12f;" 
d="M73 0l79 450h73l-79 -450h-73zM164 585q3 20 20 34.5t37 14.5q21 0 32.5 -14t8.5 -35q-5 -21 -21.5 -35t-37.5 -14q-20 0 -31.5 14.5t-7.5 34.5zM95 -39q-5 -27 7.5 -42.5t36.5 -15.5q25 0 44 16l22 -27q-29 -26 -72 -26q-42 0 -63 26t-13 69q3 22 16 39h39
q-12 -15 -17 -39z" />
    <glyph glyph-name="Idotaccent" unicode="&#x130;" horiz-adv-x="222" 
d="M73 0l123 700h76l-123 -700h-76zM204 810q4 20 20.5 34.5t37.5 14.5q20 0 32 -14.5t8 -34.5q-4 -21 -20.5 -35t-37.5 -14q-20 0 -32 14t-8 35z" />
    <glyph glyph-name="dotlessi" unicode="&#x131;" 
d="M73 0l79 450h73l-79 -450h-73z" />
    <glyph glyph-name="IJ" unicode="&#x132;" horiz-adv-x="503" 
d="M120 250l79 450h75l-79 -450h-75zM387 190l90 510h76l-90 -510q-16 -88 -80 -142.5t-151 -54.5q-88 0 -133 55l57 49q27 -36 85 -36q55 0 95.5 35.5t50.5 93.5z" />
    <glyph glyph-name="ij" unicode="&#x133;" horiz-adv-x="439" 
d="M73 0l79 450h73l-79 -450h-73zM164 585q3 20 20 34.5t37 14.5q21 0 32.5 -14t8.5 -35q-5 -21 -21.5 -35t-37.5 -14q-20 0 -31.5 14.5t-7.5 34.5zM383 585q4 20 20.5 34.5t37.5 14.5q20 0 32 -14.5t8 -34.5t-20.5 -34.5t-37.5 -14.5q-20 0 -32 14.5t-8 34.5zM192 -250
l9 49q56 0 65 53l106 598h73l-106 -600q-9 -48 -40 -76t-74 -28q-24 0 -33 4z" />
    <glyph glyph-name="Jcircumflex" unicode="&#x134;" horiz-adv-x="453" 
d="M337 190l90 510h75l-90 -510q-15 -88 -79 -142.5t-152 -54.5t-133 55l58 49q27 -36 84 -36q55 0 95.5 35.5t51.5 93.5zM500 900l103 -125l-45 -38l-71 87l-103 -87l-32 38z" />
    <glyph glyph-name="jcircumflex" unicode="&#x135;" 
d="M-26 -250l9 49q54 0 64 53l105 598h73l-106 -600q-8 -48 -39 -76t-75 -28q-22 0 -31 4zM229 675l102 -125l-44 -38l-72 87l-102 -87l-32 38z" />
    <glyph glyph-name="Kcommaaccent" unicode="&#x136;" horiz-adv-x="596" 
d="M73 0l123 700h76l-123 -700h-76zM468 0l-246 359l349 341h95l-349 -341l248 -359h-97zM236 -217l-18 22q41 34 52 65q-14 2 -22.5 13.5t-5.5 26.5q3 18 17 30t32 12t28 -12t5 -37q-9 -54 -88 -120z" />
    <glyph glyph-name="kcommaaccent" unicode="&#x137;" horiz-adv-x="466" 
d="M146 0h-73l132 750h73l-89 -503l216 203h87l-226 -211l169 -239h-87l-162 231zM172 -217l-19 22q41 34 53 65q-15 1 -23.5 13t-5.5 27q3 18 17 30t33 12q17 0 27 -12t5 -37q-10 -55 -87 -120z" />
    <glyph glyph-name="Lacute" unicode="&#x139;" horiz-adv-x="465" 
d="M274 700l-112 -637h273l-10 -63h-349l123 700h75zM287 775l147 125l32 -38l-147 -125z" />
    <glyph glyph-name="lacute" unicode="&#x13a;" horiz-adv-x="247" 
d="M212 49l-8 -49q-11 -4 -37 -4q-43 0 -64 28t-13 76l115 650h73l-114 -648q-5 -26 8 -39.5t40 -13.5zM184 810l148 125l31 -38l-147 -125z" />
    <glyph glyph-name="Lcommaaccent" unicode="&#x13b;" horiz-adv-x="465" 
d="M274 700l-112 -637h273l-10 -63h-349l123 700h75zM187 -217l-19 22q43 36 53 65q-15 1 -23 13t-6 27q4 18 18 30t32 12q17 0 27 -12t6 -37q-11 -55 -88 -120z" />
    <glyph glyph-name="lcommaaccent" unicode="&#x13c;" horiz-adv-x="247" 
d="M212 49l-8 -49q-11 -4 -37 -4q-43 0 -64 28t-13 76l115 650h73l-114 -648q-5 -26 8 -39.5t40 -13.5zM72 -217l-18 22q42 37 52 65q-14 2 -22.5 13.5t-5.5 26.5q3 18 17 30t32 12t28 -12t5 -37q-9 -54 -88 -120z" />
    <glyph glyph-name="Lcaron" unicode="&#x13d;" horiz-adv-x="465" 
d="M274 700l-112 -637h273l-10 -63h-349l123 700h75zM243 737l-103 125l45 38l72 -87l102 87l31 -38z" />
    <glyph glyph-name="lcaron" unicode="&#x13e;" horiz-adv-x="371" 
d="M212 49l-8 -49q-11 -4 -37 -4q-43 0 -64 28t-13 76l115 650h73l-114 -648q-5 -26 8 -39.5t40 -13.5zM372 561l-22 26q48 42 60 73q-17 3 -26.5 16.5t-6.5 31.5q4 21 20.5 35t37.5 14q20 0 31.5 -14t7.5 -43q-12 -64 -102 -139z" />
    <glyph glyph-name="Ldot" unicode="&#x13f;" horiz-adv-x="465" 
d="M274 700l-112 -637h273l-10 -63h-349l123 700h75zM358 325q3 20 20 34.5t37 14.5q21 0 32.5 -14t8.5 -35q-4 -20 -20.5 -34.5t-37.5 -14.5q-20 0 -32 14.5t-8 34.5z" />
    <glyph glyph-name="ldot" unicode="&#x140;" horiz-adv-x="377" 
d="M212 49l-8 -49q-11 -4 -37 -4q-43 0 -64 28t-13 76l115 650h73l-114 -648q-5 -26 8 -39.5t40 -13.5zM307 325q4 20 20.5 34.5t37.5 14.5q20 0 32 -14.5t8 -34.5t-20.5 -34.5t-37.5 -14.5q-20 0 -32 14.5t-8 34.5z" />
    <glyph glyph-name="Lslash" unicode="&#x141;" horiz-adv-x="494" 
d="M51 234l110 94l66 372h76l-56 -314l106 90l31 -38l-150 -128l-44 -247h274l-11 -63h-349l44 252l-65 -56z" />
    <glyph glyph-name="lslash" unicode="&#x142;" horiz-adv-x="290" 
d="M238 49l-7 -49q-11 -4 -37 -4q-44 0 -65 28t-12 76l33 184l-64 -54l-32 38l109 92l69 390h73l-60 -333l73 61l31 -38l-117 -99l-42 -239q-5 -26 8 -39.5t40 -13.5z" />
    <glyph glyph-name="Nacute" unicode="&#x143;" horiz-adv-x="713" 
d="M199 700h51l336 -558l99 558h75l-123 -700h-51l-337 558l-98 -558h-75zM430 775l148 125l31 -38l-147 -125z" />
    <glyph glyph-name="nacute" unicode="&#x144;" horiz-adv-x="521" 
d="M152 450h73l-7 -37q64 44 141 44q76 0 113 -50.5t23 -133.5l-48 -273h-72l47 273q10 52 -16 85.5t-76 33.5q-72 0 -123 -46l-61 -346h-73zM295 550l148 125l30 -38l-146 -125z" />
    <glyph glyph-name="Ncommaaccent" unicode="&#x145;" horiz-adv-x="713" 
d="M199 700h51l336 -558l99 558h75l-123 -700h-51l-337 558l-98 -558h-75zM295 -217l-19 22q43 36 53 65q-15 1 -23 13t-5 27q3 18 17 30t32 12t28 -12t5 -37q-9 -54 -88 -120z" />
    <glyph glyph-name="ncommaaccent" unicode="&#x146;" horiz-adv-x="521" 
d="M152 450h73l-7 -37q64 44 141 44q76 0 113 -50.5t23 -133.5l-48 -273h-72l47 273q10 52 -16 85.5t-76 33.5q-72 0 -123 -46l-61 -346h-73zM197 -217l-19 22q41 34 53 65q-15 1 -23.5 13t-5.5 27q3 18 17 30t33 12q17 0 27 -12t5 -37q-10 -55 -87 -120z" />
    <glyph glyph-name="Ncaron" unicode="&#x147;" horiz-adv-x="713" 
d="M199 700h51l336 -558l99 558h75l-123 -700h-51l-337 558l-98 -558h-75zM486 737l-104 125l45 38l72 -87l103 87l31 -38z" />
    <glyph glyph-name="ncaron" unicode="&#x148;" horiz-adv-x="521" 
d="M152 450h73l-7 -37q64 44 141 44q76 0 113 -50.5t23 -133.5l-48 -273h-72l47 273q10 52 -16 85.5t-76 33.5q-72 0 -123 -46l-61 -346h-73zM350 512l-104 125l46 38l71 -87l103 87l31 -38z" />
    <glyph glyph-name="Eng" unicode="&#x14a;" horiz-adv-x="713" 
d="M461 -250l9 49q55 0 65 53l31 175l-317 531l-98 -558h-75l123 700h51l336 -558l99 558h75l-150 -850q-9 -48 -41 -76t-75 -28q-24 0 -33 4z" />
    <glyph glyph-name="eng" unicode="&#x14b;" horiz-adv-x="521" 
d="M274 -250l9 49q55 0 65 53l74 421q10 52 -16 85.5t-76 33.5q-72 0 -123 -46l-61 -346h-73l79 450h73l-7 -37q64 44 141 44q76 0 113 -50.5t23 -133.5l-75 -423q-8 -48 -39 -76t-74 -28q-24 0 -33 4z" />
    <glyph glyph-name="Omacron" unicode="&#x14c;" horiz-adv-x="805" 
d="M111 350q29 159 144 258t272 99t237 -99t52 -258q-29 -159 -143.5 -258t-271.5 -99t-237.5 99t-52.5 258zM189 350q-22 -129 40 -209t184 -80t212.5 80t112.5 209q23 129 -39 209t-184 80t-213 -80t-113 -209zM416 768l8 46h244l-8 -46h-244z" />
    <glyph glyph-name="omacron" unicode="&#x14d;" horiz-adv-x="555" 
d="M84 225q19 104 95 168t179 64t156 -64t35 -168q-19 -104 -94.5 -168t-178.5 -64q-104 0 -157 64.5t-35 167.5zM160 225q-13 -74 22 -120.5t105 -46.5t121.5 46.5t65.5 120.5q13 74 -22.5 120.5t-105.5 46.5t-121.5 -46.5t-64.5 -120.5zM251 543l8 47h244l-8 -47h-244z
" />
    <glyph glyph-name="Obreve" unicode="&#x14e;" horiz-adv-x="805" 
d="M111 350q29 159 144 258t272 99t237 -99t52 -258q-29 -159 -143.5 -258t-271.5 -99t-237.5 99t-52.5 258zM189 350q-22 -129 40 -209t184 -80t212.5 80t112.5 209q23 129 -39 209t-184 80t-213 -80t-113 -209zM544 807q63 0 110 42l31 -38q-67 -59 -150 -59
q-82 0 -130 59l45 38q32 -42 94 -42z" />
    <glyph glyph-name="obreve" unicode="&#x14f;" horiz-adv-x="555" 
d="M84 225q19 104 95 168t179 64t156 -64t35 -168q-19 -104 -94.5 -168t-178.5 -64q-104 0 -157 64.5t-35 167.5zM160 225q-13 -74 22 -120.5t105 -46.5t121.5 46.5t65.5 120.5q13 74 -22.5 120.5t-105.5 46.5t-121.5 -46.5t-64.5 -120.5zM380 582q62 0 109 42l32 -38
q-67 -59 -151 -59q-81 0 -130 60l45 38q33 -43 95 -43z" />
    <glyph glyph-name="Ohungarumlaut" unicode="&#x150;" horiz-adv-x="805" 
d="M111 350q29 159 144 258t272 99t237 -99t52 -258q-29 -159 -143.5 -258t-271.5 -99t-237.5 99t-52.5 258zM189 350q-22 -129 40 -209t184 -80t212.5 80t112.5 209q23 129 -39 209t-184 80t-213 -80t-113 -209zM402 775l148 125l31 -38l-147 -125zM552 775l147 125l31 -38
l-147 -125z" />
    <glyph glyph-name="ohungarumlaut" unicode="&#x151;" horiz-adv-x="555" 
d="M84 225q19 104 95 168t179 64t156 -64t35 -168q-19 -104 -94.5 -168t-178.5 -64q-104 0 -157 64.5t-35 167.5zM160 225q-13 -74 22 -120.5t105 -46.5t121.5 46.5t65.5 120.5q13 74 -22.5 120.5t-105.5 46.5t-121.5 -46.5t-64.5 -120.5zM238 550l147 125l31 -38l-146 -125
zM387 550l148 125l30 -38l-146 -125z" />
    <glyph glyph-name="OE" unicode="&#x152;" horiz-adv-x="875" 
d="M665 637l-44 -253h238l-11 -63h-238l-46 -258h276l-10 -63h-349q-46 -7 -80 -7q-157 0 -237.5 99t-52.5 258q29 159 144 258t272 99q33 0 77 -7h344l-12 -63h-271zM413 61q42 0 78 11l98 556q-32 11 -74 11q-122 0 -213 -80t-113 -209t40 -209t184 -80z" />
    <glyph glyph-name="oe" unicode="&#x153;" horiz-adv-x="841" 
d="M834 206h-343q-7 -67 29 -107.5t105 -40.5q76 0 129 47l36 -45q-76 -67 -181 -67t-155 65q-75 -65 -178 -65q-104 0 -157 64.5t-35 167.5q19 104 95 168t179 64q100 0 152 -63q69 63 164 63q97 0 138.5 -67t21.5 -184zM287 58q80 0 135 60q-15 50 -3 109q9 59 40 107
q-34 58 -113 58q-70 0 -121.5 -46.5t-64.5 -120.5t22 -120.5t105 -46.5zM664 393q-57 0 -101.5 -36.5t-61.5 -98.5h269q5 63 -22.5 99t-83.5 36z" />
    <glyph glyph-name="Racute" unicode="&#x154;" horiz-adv-x="534" 
d="M418 0l-114 309h-96l-54 -309h-78l123 700h196q92 0 138.5 -53.5t31.5 -142.5q-14 -75 -63 -125t-121 -65l123 -314h-86zM487 504q10 58 -18.5 94t-84.5 36h-119l-46 -260h119q56 0 97.5 36t51.5 94zM336 775l148 125l31 -38l-147 -125z" />
    <glyph glyph-name="racute" unicode="&#x155;" horiz-adv-x="345" 
d="M348 456q10 0 28 -2l-11 -64q-15 3 -33 3q-73 0 -128 -62l-58 -331h-73l79 450h73l-10 -54q65 60 133 60zM222 550l148 125l31 -38l-147 -125z" />
    <glyph glyph-name="Rcommaaccent" unicode="&#x156;" horiz-adv-x="534" 
d="M418 0l-114 309h-96l-54 -309h-78l123 700h196q92 0 138.5 -53.5t31.5 -142.5q-14 -75 -63 -125t-121 -65l123 -314h-86zM487 504q10 58 -18.5 94t-84.5 36h-119l-46 -260h119q56 0 97.5 36t51.5 94zM206 -217l-19 22q41 34 53 65q-15 1 -23 13t-6 27q3 18 17.5 30
t32.5 12q17 0 27 -12t6 -37q-11 -55 -88 -120z" />
    <glyph glyph-name="rcommaaccent" unicode="&#x157;" horiz-adv-x="345" 
d="M348 456q10 0 28 -2l-11 -64q-15 3 -33 3q-73 0 -128 -62l-58 -331h-73l79 450h73l-10 -54q65 60 133 60zM46 -217l-18 22q42 37 52 65q-14 2 -22.5 13.5t-5.5 26.5q3 18 17 30t32 12t28 -12t5 -37q-9 -54 -88 -120z" />
    <glyph glyph-name="Rcaron" unicode="&#x158;" horiz-adv-x="534" 
d="M418 0l-114 309h-96l-54 -309h-78l123 700h196q92 0 138.5 -53.5t31.5 -142.5q-14 -75 -63 -125t-121 -65l123 -314h-86zM487 504q10 58 -18.5 94t-84.5 36h-119l-46 -260h119q56 0 97.5 36t51.5 94zM391 737l-103 125l45 38l72 -87l102 87l31 -38z" />
    <glyph glyph-name="rcaron" unicode="&#x159;" horiz-adv-x="345" 
d="M348 456q10 0 28 -2l-11 -64q-15 3 -33 3q-73 0 -128 -62l-58 -331h-73l79 450h73l-10 -54q65 60 133 60zM278 512l-104 125l45 38l72 -87l103 87l30 -38z" />
    <glyph glyph-name="Sacute" unicode="&#x15a;" horiz-adv-x="530" 
d="M564 625l-56 -48q-20 27 -58 44.5t-79 17.5q-62 0 -99 -36t-45 -82q-8 -45 21.5 -75t76.5 -48.5t93 -40t73.5 -62.5t16.5 -102q-15 -82 -81 -141t-169 -59q-132 0 -202 92l55 47q24 -34 65.5 -52.5t86.5 -18.5q72 0 115.5 41t51.5 89q6 32 -8.5 56t-42 39t-61.5 28.5
t-67 29.5t-59 37t-38.5 56.5t-4.5 81.5q14 79 73 133.5t154 54.5q123 0 188 -82zM327 775l147 125l31 -38l-147 -125z" />
    <glyph glyph-name="sacute" unicode="&#x15b;" horiz-adv-x="384" 
d="M395 404l-53 -45q-29 36 -80 36q-34 0 -55 -20t-24 -45q-5 -26 13.5 -43.5t47.5 -29t58 -25t46 -40t10 -64.5q-9 -55 -55.5 -95t-117.5 -40q-91 0 -137 60l53 45q31 -44 90 -44q41 0 65 23t29 50q4 25 -14.5 42t-47.5 28t-58 25t-46 40.5t-10 66.5q10 53 51.5 90.5
t107.5 37.5q85 0 127 -53zM219 550l148 125l30 -38l-146 -125z" />
    <glyph glyph-name="Scircumflex" unicode="&#x15c;" horiz-adv-x="530" 
d="M564 625l-56 -48q-20 27 -58 44.5t-79 17.5q-62 0 -99 -36t-45 -82q-8 -45 21.5 -75t76.5 -48.5t93 -40t73.5 -62.5t16.5 -102q-15 -82 -81 -141t-169 -59q-132 0 -202 92l55 47q24 -34 65.5 -52.5t86.5 -18.5q72 0 115.5 41t51.5 89q6 32 -8.5 56t-42 39t-61.5 28.5
t-67 29.5t-59 37t-38.5 56.5t-4.5 81.5q14 79 73 133.5t154 54.5q123 0 188 -82zM411 900l102 -125l-44 -38l-72 87l-102 -87l-32 38z" />
    <glyph glyph-name="scircumflex" unicode="&#x15d;" horiz-adv-x="384" 
d="M395 404l-53 -45q-29 36 -80 36q-34 0 -55 -20t-24 -45q-5 -26 13.5 -43.5t47.5 -29t58 -25t46 -40t10 -64.5q-9 -55 -55.5 -95t-117.5 -40q-91 0 -137 60l53 45q31 -44 90 -44q41 0 65 23t29 50q4 25 -14.5 42t-47.5 28t-58 25t-46 40.5t-10 66.5q10 53 51.5 90.5
t107.5 37.5q85 0 127 -53zM303 675l103 -125l-45 -38l-72 87l-102 -87l-32 38z" />
    <glyph glyph-name="Scedilla" unicode="&#x15e;" horiz-adv-x="530" 
d="M564 625l-56 -48q-20 27 -58 44.5t-79 17.5q-62 0 -99 -36t-45 -82q-8 -45 21.5 -75t76.5 -48.5t93 -40t73.5 -62.5t16.5 -102q-15 -79 -76.5 -137t-157.5 -62l-9 -53q30 -5 44 -25t9 -51q-7 -36 -33.5 -58t-63.5 -22q-36 0 -56 25l30 25q11 -14 32 -14t36 12t19 33
t-9.5 34t-46.5 13l15 81q-120 6 -185 91l55 47q24 -34 65.5 -52.5t86.5 -18.5q72 0 115.5 41t51.5 89q6 32 -8.5 56t-42 39t-61.5 28.5t-67 29.5t-59 37t-38.5 56.5t-4.5 81.5q14 79 73 133.5t154 54.5q123 0 188 -82z" />
    <glyph glyph-name="scedilla" unicode="&#x15f;" horiz-adv-x="384" 
d="M395 404l-53 -45q-29 36 -80 36q-34 0 -55 -20t-24 -45q-5 -26 13.5 -43.5t47.5 -29t58 -25t46 -40t10 -64.5q-9 -52 -50.5 -91t-106.5 -43l-10 -53q30 -5 44 -25t9 -51q-7 -36 -33.5 -58t-63.5 -22q-36 0 -56 25l30 25q11 -14 32 -14q46 0 56 45q3 21 -10.5 34t-46.5 13
l15 81q-79 6 -119 59l53 45q31 -44 90 -44q41 0 65 23t29 50q4 25 -14.5 42t-47.5 28t-58 25t-46 40.5t-10 66.5q10 53 51.5 90.5t107.5 37.5q85 0 127 -53z" />
    <glyph glyph-name="Scaron" unicode="&#x160;" horiz-adv-x="530" 
d="M564 625l-56 -48q-20 27 -58 44.5t-79 17.5q-62 0 -99 -36t-45 -82q-8 -45 21.5 -75t76.5 -48.5t93 -40t73.5 -62.5t16.5 -102q-15 -82 -81 -141t-169 -59q-132 0 -202 92l55 47q24 -34 65.5 -52.5t86.5 -18.5q72 0 115.5 41t51.5 89q6 32 -8.5 56t-42 39t-61.5 28.5
t-67 29.5t-59 37t-38.5 56.5t-4.5 81.5q14 79 73 133.5t154 54.5q123 0 188 -82zM382 737l-103 125l44 38l73 -87l102 87l31 -38z" />
    <glyph glyph-name="scaron" unicode="&#x161;" horiz-adv-x="384" 
d="M395 404l-53 -45q-29 36 -80 36q-34 0 -55 -20t-24 -45q-5 -26 13.5 -43.5t47.5 -29t58 -25t46 -40t10 -64.5q-9 -55 -55.5 -95t-117.5 -40q-91 0 -137 60l53 45q31 -44 90 -44q41 0 65 23t29 50q4 25 -14.5 42t-47.5 28t-58 25t-46 40.5t-10 66.5q10 53 51.5 90.5
t107.5 37.5q85 0 127 -53zM274 512l-104 125l46 38l71 -87l103 87l31 -38z" />
    <glyph glyph-name="Tcommaaccent" unicode="&#x162;" horiz-adv-x="557" 
d="M428 637l-112 -637h-75l112 637h-201l11 63h477l-11 -63h-201zM218 -217l-19 22q41 34 53 65q-15 1 -23.5 13t-5.5 27q3 18 17 30t33 12q17 0 27 -12t5 -37q-10 -55 -87 -120z" />
    <glyph glyph-name="tcommaaccent" unicode="&#x163;" horiz-adv-x="319" 
d="M98 392l11 58h58l17 100h75l-17 -100h121l-11 -58h-121l-44 -253q-7 -37 11 -60.5t54 -23.5q21 0 43 10l-11 -62q-26 -10 -55 -10q-65 0 -97 40t-20 106l44 253h-58zM113 -217l-18 22q41 34 52 65q-14 2 -22.5 13.5t-5.5 26.5q3 18 17 30t32 12t28 -12t5 -37
q-9 -54 -88 -120z" />
    <glyph glyph-name="Tcaron" unicode="&#x164;" horiz-adv-x="557" 
d="M428 637l-112 -637h-75l112 637h-201l11 63h477l-11 -63h-201zM408 737l-103 125l45 38l72 -87l102 87l31 -38z" />
    <glyph glyph-name="tcaron" unicode="&#x165;" horiz-adv-x="358" 
d="M98 392l11 58h58l17 100h75l-17 -100h121l-11 -58h-121l-44 -253q-7 -37 11 -60.5t54 -23.5q21 0 43 10l-11 -62q-26 -10 -55 -10q-65 0 -97 40t-20 106l44 253h-58zM361 535l-21 26q47 40 59 73q-17 3 -26.5 16.5t-6.5 31.5q5 21 21.5 35t37.5 14q20 0 32 -14t6 -43
q-11 -62 -102 -139z" />
    <glyph glyph-name="Tbar" unicode="&#x166;" horiz-adv-x="557" 
d="M155 341l11 58h146l41 238h-201l11 63h477l-11 -63h-201l-41 -238h145l-10 -58h-146l-60 -341h-75l60 341h-146z" />
    <glyph glyph-name="tbar" unicode="&#x167;" horiz-adv-x="319" 
d="M73 244l9 56h58l16 92h-58l11 58h58l17 100h75l-17 -100h121l-11 -58h-121l-16 -92h121l-9 -56h-121l-19 -105q-7 -37 11 -60.5t54 -23.5q21 0 43 10l-11 -62q-26 -10 -55 -10q-65 0 -97 40t-20 106l19 105h-58z" />
    <glyph glyph-name="Utilde" unicode="&#x168;" horiz-adv-x="673" 
d="M566 255l79 445h75l-78 -445q-21 -118 -106 -190t-201 -72q-117 0 -176 72t-39 190l79 445h75l-78 -445q-16 -87 26 -140.5t124 -53.5q83 0 144 53.5t76 140.5zM375 764h-42q7 39 34.5 63t63.5 24q31 0 55 -24t44 -24q19 0 33 12.5t18 31.5h42q-7 -39 -34.5 -63
t-65.5 -24q-25 0 -40.5 12t-28 24t-29.5 12q-19 0 -32.5 -12t-17.5 -32z" />
    <glyph glyph-name="utilde" unicode="&#x169;" horiz-adv-x="531" 
d="M537 450l-48 -265q-15 -86 -77 -139t-148 -53t-130 53t-29 139l47 265h76l-47 -265q-10 -57 16.5 -92t79.5 -35t92 35.5t49 91.5l47 265h72zM264 539h-42q6 39 34 63.5t65 24.5q31 0 55 -24.5t44 -24.5q18 0 32 12.5t17 31.5h43q-7 -39 -34.5 -63t-65.5 -24q-32 0 -55 24
t-43 24q-18 0 -32 -12t-18 -32z" />
    <glyph glyph-name="Umacron" unicode="&#x16a;" horiz-adv-x="673" 
d="M566 255l79 445h75l-78 -445q-21 -118 -106 -190t-201 -72q-117 0 -176 72t-39 190l79 445h75l-78 -445q-16 -87 26 -140.5t124 -53.5q83 0 144 53.5t76 140.5zM350 768l8 46h244l-8 -46h-244z" />
    <glyph glyph-name="umacron" unicode="&#x16b;" horiz-adv-x="531" 
d="M537 450l-48 -265q-15 -86 -77 -139t-148 -53t-130 53t-29 139l47 265h76l-47 -265q-10 -57 16.5 -92t79.5 -35t92 35.5t49 91.5l47 265h72zM238 543l9 47h244l-9 -47h-244z" />
    <glyph glyph-name="Ubreve" unicode="&#x16c;" horiz-adv-x="673" 
d="M566 255l79 445h75l-78 -445q-21 -118 -106 -190t-201 -72q-117 0 -176 72t-39 190l79 445h75l-78 -445q-16 -87 26 -140.5t124 -53.5q83 0 144 53.5t76 140.5zM478 807q62 0 110 42l31 -38q-67 -59 -150 -59q-82 0 -130 59l45 38q32 -42 94 -42z" />
    <glyph glyph-name="ubreve" unicode="&#x16d;" horiz-adv-x="531" 
d="M537 450l-48 -265q-15 -86 -77 -139t-148 -53t-130 53t-29 139l47 265h76l-47 -265q-10 -57 16.5 -92t79.5 -35t92 35.5t49 91.5l47 265h72zM368 582q61 0 109 42l31 -38q-67 -59 -151 -59q-82 0 -129 60l44 38q35 -43 96 -43z" />
    <glyph glyph-name="Uring" unicode="&#x16e;" horiz-adv-x="673" 
d="M566 255l79 445h75l-78 -445q-21 -118 -106 -190t-201 -72q-117 0 -176 72t-39 190l79 445h75l-78 -445q-16 -87 26 -140.5t124 -53.5q83 0 144 53.5t76 140.5zM393 820q7 40 36 65t68 25t58.5 -25t12.5 -65t-35 -64.5t-68 -24.5q-39 0 -59 24.5t-13 64.5zM428 820
q-4 -24 8 -39t35 -15t40.5 15t21.5 39q5 24 -7.5 39t-35.5 15t-40.5 -14.5t-21.5 -39.5z" />
    <glyph glyph-name="uring" unicode="&#x16f;" horiz-adv-x="531" 
d="M537 450l-48 -265q-15 -86 -77 -139t-148 -53t-130 53t-29 139l47 265h76l-47 -265q-10 -57 16.5 -92t79.5 -35t92 35.5t49 91.5l47 265h72zM282 596q8 40 36.5 64.5t67.5 24.5q40 0 59.5 -24.5t12.5 -64.5q-8 -41 -36 -65.5t-68 -24.5q-39 0 -59 25t-13 65zM317 595
q-4 -24 8 -39t35 -15q24 0 41 15t22 39q4 25 -8.5 40t-35.5 15t-40.5 -15t-21.5 -40z" />
    <glyph glyph-name="Uhungarumlaut" unicode="&#x170;" horiz-adv-x="673" 
d="M566 255l79 445h75l-78 -445q-21 -118 -106 -190t-201 -72q-117 0 -176 72t-39 190l79 445h75l-78 -445q-16 -87 26 -140.5t124 -53.5q83 0 144 53.5t76 140.5zM336 775l148 125l31 -38l-147 -125zM485 775l148 125l31 -38l-147 -125z" />
    <glyph glyph-name="uhungarumlaut" unicode="&#x171;" horiz-adv-x="531" 
d="M537 450l-48 -265q-15 -86 -77 -139t-148 -53t-130 53t-29 139l47 265h76l-47 -265q-10 -57 16.5 -92t79.5 -35t92 35.5t49 91.5l47 265h72zM225 550l148 125l31 -38l-147 -125zM375 550l147 125l31 -38l-147 -125z" />
    <glyph glyph-name="Uogonek" unicode="&#x172;" horiz-adv-x="673" 
d="M385 -39q-5 -27 7.5 -42.5t37.5 -15.5q24 0 43 16l22 -27q-29 -26 -72 -26q-42 0 -62.5 26t-13.5 69q1 18 12 33q-4 0 -12 -0.5t-12 -0.5q-117 0 -176 72t-39 190l79 445h75l-78 -445q-16 -87 26 -140.5t124 -53.5q83 0 144 53.5t76 140.5l79 445h75l-78 -445
q-18 -100 -82.5 -168t-157.5 -87q-12 -15 -17 -39z" />
    <glyph glyph-name="uogonek" unicode="&#x173;" horiz-adv-x="531" 
d="M305 -39q-5 -27 7.5 -42.5t36.5 -15.5q25 0 43 16l23 -27q-31 -26 -73 -26t-62.5 26t-13.5 69q2 18 12 33q-5 -1 -14 -1q-86 0 -130 53t-29 139l47 265h76l-47 -265q-10 -57 16.5 -92t79.5 -35t92 35.5t49 91.5l47 265h72l-48 -265q-13 -71 -57.5 -120t-109.5 -65
q-14 -15 -17 -39z" />
    <glyph glyph-name="Wcircumflex" unicode="&#x174;" horiz-adv-x="1133" 
d="M1228 700l-386 -700h-76l-99 571l-300 -571h-76l-140 700h87l110 -584l302 584h79l95 -584l317 584h87zM725 900l102 -125l-44 -38l-72 87l-102 -87l-32 38z" />
    <glyph glyph-name="wcircumflex" unicode="&#x175;" horiz-adv-x="792" 
d="M845 450l-253 -450h-76l-59 348l-181 -348h-76l-95 450h83l65 -362l185 362h74l57 -362l193 362h83zM515 675l103 -125l-45 -38l-72 87l-102 -87l-32 38z" />
    <glyph glyph-name="Ycircumflex" unicode="&#x176;" horiz-adv-x="667" 
d="M295 0l53 302l-197 398h88l160 -323l275 323h87l-338 -399l-52 -301h-76zM491 900l103 -125l-44 -38l-72 87l-102 -87l-32 38z" />
    <glyph glyph-name="ycircumflex" unicode="&#x177;" horiz-adv-x="529" 
d="M582 450l-445 -700h-81l174 250l-125 450h81l94 -363l221 363h81zM383 675l103 -125l-44 -38l-72 87l-103 -87l-31 38z" />
    <glyph glyph-name="Ydieresis" unicode="&#x178;" horiz-adv-x="667" 
d="M295 0l53 302l-197 398h88l160 -323l275 323h87l-338 -399l-52 -301h-76zM333 797q3 19 19 33t36 14q19 0 30 -13.5t8 -33.5q-4 -19 -19.5 -32.5t-35.5 -13.5t-31 13.5t-7 32.5zM520 797q4 20 19.5 33.5t35.5 13.5t31 -13.5t8 -33.5q-4 -20 -20 -33t-36 -13t-31 13.5
t-7 32.5z" />
    <glyph glyph-name="Zacute" unicode="&#x179;" horiz-adv-x="625" 
d="M169 637l11 63h515l-4 -27l-521 -610h416l-11 -63h-525l5 28l520 609h-406zM387 775l147 125l32 -38l-148 -125z" />
    <glyph glyph-name="zacute" unicode="&#x17a;" horiz-adv-x="470" 
d="M123 392l10 58h366l-5 -27l-328 -365h264l-10 -58h-370l5 28l328 364h-260zM270 550l147 125l31 -38l-147 -125z" />
    <glyph glyph-name="Zdotaccent" unicode="&#x17b;" horiz-adv-x="625" 
d="M169 637l11 63h515l-4 -27l-521 -610h416l-11 -63h-525l5 28l520 609h-406zM405 810q5 20 21.5 34.5t36.5 14.5q21 0 32.5 -14.5t7.5 -34.5q-3 -21 -19.5 -35t-37.5 -14q-20 0 -32 14t-9 35z" />
    <glyph glyph-name="zdotaccent" unicode="&#x17c;" horiz-adv-x="470" 
d="M123 392l10 58h366l-5 -27l-328 -365h264l-10 -58h-370l5 28l328 364h-260zM289 585q3 20 20 34.5t37 14.5q21 0 32.5 -14t8.5 -35q-5 -20 -21.5 -34.5t-36.5 -14.5q-21 0 -32.5 14.5t-7.5 34.5z" />
    <glyph glyph-name="Zcaron" unicode="&#x17d;" horiz-adv-x="625" 
d="M169 637l11 63h515l-4 -27l-521 -610h416l-11 -63h-525l5 28l520 609h-406zM442 737l-103 125l45 38l72 -87l102 87l31 -38z" />
    <glyph glyph-name="zcaron" unicode="&#x17e;" horiz-adv-x="470" 
d="M123 392l10 58h366l-5 -27l-328 -365h264l-10 -58h-370l5 28l328 364h-260zM325 512l-104 125l45 38l72 -87l103 87l31 -38z" />
    <glyph glyph-name="longs" unicode="&#x17f;" horiz-adv-x="302" 
d="M28 -250l152 856q12 68 60 109.5t116 41.5q30 0 53 -10l-12 -62q-17 10 -40 10q-39 0 -67 -25t-35 -64l-151 -856h-76z" />
    <glyph glyph-name="uni018F" unicode="&#x18f;" horiz-adv-x="746" 
d="M756 350q-28 -159 -134.5 -258t-250.5 -99t-216 99t-44 258l6 29h565q11 117 -51.5 188.5t-178.5 71.5q-129 0 -219 -81l-40 48q115 101 274 101q157 0 237.5 -99t51.5 -258zM383 61q102 0 180 70t107 185h-484q-13 -115 41 -185t156 -70z" />
    <glyph glyph-name="florin" unicode="&#x192;" horiz-adv-x="324" 
d="M-4 -250l8 49q55 0 65 53l95 540h-63l11 58h62l28 156q12 68 60 109.5t116 41.5q30 0 53 -10l-12 -62q-17 10 -40 10q-39 0 -67 -25t-35 -64l-27 -156h128l-11 -58h-128l-96 -542q-8 -48 -40 -76t-76 -28q-23 0 -31 4z" />
    <glyph glyph-name="uni01DD" unicode="&#x1dd;" horiz-adv-x="508" 
d="M88 244h343q7 67 -29 107.5t-105 40.5q-76 0 -128 -47l-37 45q76 67 182 67q104 0 156.5 -64.5t33.5 -169.5q-18 -102 -88.5 -166t-166.5 -64q-97 0 -139 67.5t-22 183.5zM258 57q57 0 101.5 36.5t62.5 98.5h-270q-5 -63 22.5 -99t83.5 -36z" />
    <glyph glyph-name="Aringacute" unicode="&#x1fa;" horiz-adv-x="749" 
d="M490 876l147 125l31 -38l-121 -103q29 -7 42.5 -30t8.5 -57q-11 -61 -62 -82l185 -691h-87l-53 202h-343l-123 -202h-87l428 691q-45 22 -34 82q6 33 28 56.5t53 30.5zM481 604l-203 -334h287zM458 772q-4 -24 8 -39t35 -15t40.5 15t21.5 39t-8 39.5t-35 15.5t-40.5 -15
t-21.5 -40z" />
    <glyph glyph-name="aringacute" unicode="&#x1fb;" horiz-adv-x="539" 
d="M359 457q123 0 174 -73l-67 -384h-73l6 36q-61 -43 -139 -43q-97 0 -145.5 64t-30.5 168q19 104 94.5 168t180.5 64zM160 225q-13 -74 22.5 -120.5t106.5 -46.5t122 43l44 256q-38 35 -109 35q-70 0 -121.5 -46.5t-64.5 -120.5zM353 674l147 126l31 -38l-121 -104
q29 -6 43.5 -30t8.5 -58q-8 -41 -36 -65.5t-68 -24.5q-39 0 -59 25t-13 65q6 34 27.5 57t52.5 30zM321 570q-4 -24 8 -39t35 -15q24 0 41.5 14.5t21.5 39.5q4 24 -8.5 39t-35.5 15t-40 -15t-22 -39z" />
    <glyph glyph-name="AEacute" unicode="&#x1fc;" horiz-adv-x="772" 
d="M562 637l-45 -253h239l-11 -63h-239l-45 -258h276l-11 -63h-351l35 202h-172l-123 -202h-87l434 700h382l-11 -63h-271zM278 270h144l59 334zM485 775l147 125l32 -38l-147 -125z" />
    <glyph glyph-name="aeacute" unicode="&#x1fd;" horiz-adv-x="720" 
d="M342 259l10 55q6 32 -13.5 57.5t-63.5 25.5q-62 0 -104 -37l-33 40q66 57 154 57q78 0 111 -52q63 52 149 52q97 0 139 -67t22 -184h-308l-16 -94q33 -54 115 -54q76 0 128 47l36 -45q-75 -67 -180 -67q-113 0 -162 69q-69 -69 -152 -69q-63 0 -90 36.5t-18 86.5
q12 68 80.5 107t162.5 39q23 0 33 -3zM425 314l-10 -56h234q5 62 -23 98.5t-83 36.5q-69 0 -116 -50q0 -9 -2 -29zM314 101l20 108q-16 2 -30 2q-65 0 -110.5 -24t-52.5 -64q-6 -26 9 -48t56 -22q58 0 108 48zM404 550l148 125l31 -38l-147 -125z" />
    <glyph glyph-name="Oslashacute" unicode="&#x1fe;" horiz-adv-x="805" 
d="M52 -7l108 103q-76 98 -49 254q29 159 144 258t272 99q126 0 203 -65l68 65h78l-109 -104q76 -98 49 -253q-29 -159 -143.5 -258t-271.5 -99q-124 0 -204 64l-67 -64h-78zM189 350q-21 -119 31 -197l452 434q-61 52 -157 52q-122 0 -213 -80t-113 -209zM738 350
q21 117 -30 196l-453 -433q60 -52 158 -52q122 0 212.5 80t112.5 209zM477 775l147 125l32 -38l-147 -125z" />
    <glyph glyph-name="oslashacute" unicode="&#x1ff;" horiz-adv-x="555" 
d="M52 -7l65 67q-51 64 -33 165q19 104 95 168t179 64q69 0 116 -29l33 34h76l-68 -70q52 -65 34 -167q-19 -104 -94.5 -168t-178.5 -64q-71 0 -119 31l-30 -31h-75zM478 225q12 67 -15 113l-257 -264q32 -21 80 -21q72 0 125.5 48t66.5 124zM155 225q-12 -66 14 -111
l255 263q-32 20 -77 20q-72 0 -125 -47.5t-67 -124.5zM312 550l148 125l31 -38l-147 -125z" />
    <glyph glyph-name="Scommaaccent" unicode="&#x218;" horiz-adv-x="530" 
d="M564 625l-56 -48q-20 27 -58 44.5t-79 17.5q-62 0 -99 -36t-45 -82q-8 -45 21.5 -75t76.5 -48.5t93 -40t73.5 -62.5t16.5 -102q-15 -82 -81 -141t-169 -59q-132 0 -202 92l55 47q24 -34 65.5 -52.5t86.5 -18.5q72 0 115.5 41t51.5 89q6 32 -8.5 56t-42 39t-61.5 28.5
t-67 29.5t-59 37t-38.5 56.5t-4.5 81.5q14 79 73 133.5t154 54.5q123 0 188 -82zM199 -217l-18 22q42 37 52 65q-14 2 -22.5 13.5t-5.5 26.5q3 18 17 30t32 12t28 -12t5 -37q-9 -54 -88 -120z" />
    <glyph glyph-name="scommaaccent" unicode="&#x219;" horiz-adv-x="384" 
d="M395 404l-53 -45q-29 36 -80 36q-34 0 -55 -20t-24 -45q-5 -26 13.5 -43.5t47.5 -29t58 -25t46 -40t10 -64.5q-9 -55 -55.5 -95t-117.5 -40q-91 0 -137 60l53 45q31 -44 90 -44q41 0 65 23t29 50q4 25 -14.5 42t-47.5 28t-58 25t-46 40.5t-10 66.5q10 53 51.5 90.5
t107.5 37.5q85 0 127 -53zM124 -217l-19 22q41 34 53 65q-15 1 -23 13t-6 27q3 18 17.5 30t32.5 12q17 0 27 -12t6 -37q-11 -55 -88 -120z" />
    <glyph glyph-name="uni021A" unicode="&#x21a;" horiz-adv-x="557" 
d="M428 637l-112 -637h-75l112 637h-201l11 63h477l-11 -63h-201zM218 -217l-19 22q41 34 53 65q-15 1 -23.5 13t-5.5 27q3 18 17 30t33 12q17 0 27 -12t5 -37q-10 -55 -87 -120z" />
    <glyph glyph-name="uni021B" unicode="&#x21b;" horiz-adv-x="319" 
d="M98 392l11 58h58l17 100h75l-17 -100h121l-11 -58h-121l-44 -253q-7 -37 11 -60.5t54 -23.5q21 0 43 10l-11 -62q-26 -10 -55 -10q-65 0 -97 40t-20 106l44 253h-58zM113 -217l-18 22q41 34 52 65q-14 2 -22.5 13.5t-5.5 26.5q3 18 17 30t32 12t28 -12t5 -37
q-9 -54 -88 -120z" />
    <glyph glyph-name="dotlessj" unicode="&#x237;" 
d="M-26 -250l9 49q54 0 64 53l105 598h73l-106 -600q-8 -48 -39 -76t-75 -28q-22 0 -31 4z" />
    <glyph glyph-name="circumflex" unicode="&#x2c6;" horiz-adv-x="352" 
d="M295 675l103 -125l-45 -38l-72 87l-102 -87l-32 38z" />
    <glyph glyph-name="caron" unicode="&#x2c7;" horiz-adv-x="352" 
d="M266 512l-104 125l46 38l71 -87l103 87l31 -38z" />
    <glyph glyph-name="breve" unicode="&#x2d8;" horiz-adv-x="354" 
d="M279 582q62 0 110 42l31 -38q-67 -59 -151 -59q-81 0 -130 60l45 38q35 -43 95 -43z" />
    <glyph glyph-name="dotaccent" unicode="&#x2d9;" 
d="M164 585q3 20 20 34.5t37 14.5q21 0 32.5 -14t8.5 -35q-5 -21 -21.5 -35t-37.5 -14q-20 0 -31.5 14.5t-7.5 34.5z" />
    <glyph glyph-name="ring" unicode="&#x2da;" horiz-adv-x="275" 
d="M155 596q7 40 36 64.5t68 24.5t58.5 -24.5t12.5 -64.5q-7 -41 -35 -65.5t-68 -24.5q-39 0 -59 25t-13 65zM190 595q-4 -24 8 -39t35 -15t40.5 15t22.5 39q4 24 -8.5 39.5t-35.5 15.5t-40.5 -15t-21.5 -40z" />
    <glyph glyph-name="ogonek" unicode="&#x2db;" horiz-adv-x="256" 
d="M79 -39q-5 -27 7.5 -42.5t36.5 -15.5q25 0 44 16l22 -27q-29 -26 -72 -26q-42 0 -63 26t-13 69q3 22 16 39h39q-12 -15 -17 -39z" />
    <glyph glyph-name="tilde" unicode="&#x2dc;" horiz-adv-x="337" 
d="M168 539h-43q7 39 35 63.5t64 24.5q25 0 40.5 -12.5t28.5 -24.5t30 -12q19 0 32.5 12t17.5 32h43q-7 -39 -35 -63t-66 -24q-20 0 -34.5 7.5t-20.5 16.5t-17 16.5t-25 7.5q-19 0 -33 -12t-17 -32z" />
    <glyph glyph-name="hungarumlaut" unicode="&#x2dd;" horiz-adv-x="414" 
d="M147 550l148 125l30 -38l-146 -125zM296 550l148 125l31 -38l-147 -125z" />
    <glyph glyph-name="uni0400" unicode="&#x400;" horiz-adv-x="498" 
d="M263 637l-44 -253h261l-11 -63h-262l-45 -258h299l-11 -63h-374l123 700h369l-11 -63h-294zM357 900l103 -125l-45 -38l-103 125z" />
    <glyph glyph-name="afii10023" unicode="&#x401;" horiz-adv-x="498" 
d="M263 637l-44 -253h261l-11 -63h-262l-45 -258h299l-11 -63h-374l123 700h369l-11 -63h-294zM262 797q3 20 19 33.5t35 13.5t30.5 -13.5t8.5 -33.5q-4 -19 -19.5 -32.5t-35.5 -13.5t-31 13.5t-7 32.5zM449 797q3 20 18.5 33.5t35.5 13.5t31.5 -13.5t8.5 -33.5
q-4 -19 -20 -32.5t-36 -13.5t-31 13.5t-7 32.5z" />
    <glyph glyph-name="afii10051" unicode="&#x402;" horiz-adv-x="694" 
d="M489 0l8 49q56 0 65 53l26 143q9 53 -16.5 86t-75.5 33q-74 0 -124 -45l-56 -319h-75l112 637h-201l11 63h477l-11 -63h-201l-45 -253q65 46 141 46q78 0 115.5 -51t23.5 -134l-26 -145q-9 -48 -40 -76t-76 -28q-24 0 -32 4z" />
    <glyph glyph-name="afii10052" unicode="&#x403;" horiz-adv-x="466" 
d="M323 775l147 125l31 -38l-147 -125zM76 0l123 700h349l-11 -63h-274l-112 -637h-75z" />
    <glyph glyph-name="afii10053" unicode="&#x404;" horiz-adv-x="699" 
d="M518 639q-115 0 -202.5 -70t-117.5 -185h415l-11 -63h-415q-13 -117 50 -188.5t179 -71.5q126 0 219 80l40 -47q-115 -101 -274 -101q-157 0 -237.5 99t-52.5 258q29 159 144 258t272 99q158 0 238 -101l-57 -48q-64 81 -190 81z" />
    <glyph glyph-name="afii10054" unicode="&#x405;" horiz-adv-x="530" 
d="M564 625l-56 -48q-20 27 -58 44.5t-79 17.5q-62 0 -99 -36t-45 -82q-8 -45 21.5 -75t76.5 -48.5t93 -40t73.5 -62.5t16.5 -102q-15 -82 -81 -141t-169 -59q-132 0 -202 92l55 47q24 -34 65.5 -52.5t86.5 -18.5q72 0 115.5 41t51.5 89q6 32 -8.5 56t-42 39t-61.5 28.5
t-67 29.5t-59 37t-38.5 56.5t-4.5 81.5q14 79 73 133.5t154 54.5q123 0 188 -82z" />
    <glyph glyph-name="afii10055" unicode="&#x406;" horiz-adv-x="222" 
d="M73 0l123 700h76l-123 -700h-76z" />
    <glyph glyph-name="afii10056" unicode="&#x407;" horiz-adv-x="222" 
d="M73 0l123 700h76l-123 -700h-76zM126 797q3 19 19 33t36 14q19 0 30.5 -13.5t8.5 -33.5q-4 -19 -20 -32.5t-36 -13.5q-19 0 -30 13t-8 33zM283 797q4 20 19.5 33.5t35.5 13.5t31 -13.5t8 -33.5q-4 -20 -20 -33t-36 -13t-31 13.5t-7 32.5z" />
    <glyph glyph-name="afii10057" unicode="&#x408;" horiz-adv-x="453" 
d="M337 190l90 510h75l-90 -510q-15 -88 -79 -142.5t-152 -54.5t-133 55l58 49q27 -36 84 -36q55 0 95.5 35.5t51.5 93.5z" />
    <glyph glyph-name="afii10058" unicode="&#x409;" horiz-adv-x="942" 
d="M489 0l112 637h-256l-82 -464q-14 -81 -63.5 -129t-114.5 -48q-35 0 -47 4l8 49q54 0 91.5 31t47.5 89l94 531h410l-54 -309h122q91 0 137.5 -53t31.5 -142q-16 -89 -81.5 -142.5t-156.5 -53.5h-199zM848 196q10 58 -18.5 94t-85.5 36h-121l-45 -260h121q56 0 97 35.5
t52 94.5z" />
    <glyph glyph-name="afii10059" unicode="&#x40a;" horiz-adv-x="937" 
d="M274 700l-54 -309h332l55 309h77l-54 -309h121q92 0 138.5 -53t31.5 -142q-16 -89 -81.5 -142.5t-156.5 -53.5h-199l56 326h-332l-57 -326h-75l123 700h75zM843 196q10 58 -18.5 94t-85.5 36h-121l-46 -260h122q56 0 97 35.5t52 94.5z" />
    <glyph glyph-name="afii10060" unicode="&#x40b;" horiz-adv-x="694" 
d="M428 637l-45 -253q65 46 141 46q78 0 115.5 -51t23.5 -134l-43 -245h-75l43 245q9 53 -16.5 86t-75.5 33q-74 0 -124 -45l-56 -319h-75l112 637h-201l11 63h477l-11 -63h-201z" />
    <glyph glyph-name="afii10061" unicode="&#x40c;" horiz-adv-x="596" 
d="M73 0l123 700h76l-123 -700h-76zM468 0l-246 359l349 341h95l-349 -341l248 -359h-97zM372 775l147 125l31 -38l-147 -125z" />
    <glyph glyph-name="uni040D" unicode="&#x40d;" horiz-adv-x="706" 
d="M447 900l103 -125l-44 -38l-103 125zM701 700h52l-123 -700h-76l98 558l-525 -558h-51l123 700h75l-99 -558z" />
    <glyph glyph-name="afii10062" unicode="&#x40e;" horiz-adv-x="609" 
d="M446 807q63 0 110 42l31 -38q-67 -59 -150 -59q-82 0 -130 59l45 38q32 -42 94 -42zM706 700l-475 -700h-81l157 220l-158 480h81l129 -393l266 393h81z" />
    <glyph glyph-name="afii10145" unicode="&#x40f;" horiz-adv-x="696" 
d="M313 0h-237l123 700h75l-112 -637h393l112 637h76l-123 -700h-237l-27 -150h-70z" />
    <glyph glyph-name="afii10017" unicode="&#x410;" horiz-adv-x="749" 
d="M634 0l-53 202h-343l-123 -202h-87l434 700h72l187 -700h-87zM481 604l-203 -334h287z" />
    <glyph glyph-name="afii10018" unicode="&#x411;" horiz-adv-x="537" 
d="M76 0l123 700h356l-11 -63h-279l-43 -246h130q91 0 137.5 -53t31.5 -142q-16 -89 -81.5 -142.5t-156.5 -53.5h-207zM443 196q10 58 -18.5 94t-85.5 36h-129l-45 -260h129q56 0 97 35.5t52 94.5z" />
    <glyph glyph-name="afii10019" unicode="&#x412;" horiz-adv-x="545" 
d="M76 0l123 700h191q84 0 127 -49t28 -131q-18 -106 -108 -151q52 -18 76 -64.5t13 -111.5q-16 -88 -80 -140.5t-153 -52.5h-217zM451 198q11 58 -18 94t-86 36h-136l-46 -262h136q57 0 98.5 36t51.5 96zM469 514q10 54 -16.5 87t-78.5 33h-109l-42 -240h109q52 0 89.5 33
t47.5 87z" />
    <glyph glyph-name="afii10020" unicode="&#x413;" horiz-adv-x="466" 
d="M76 0l123 700h349l-11 -63h-274l-112 -637h-75z" />
    <glyph glyph-name="afii10021" unicode="&#x414;" horiz-adv-x="680" 
d="M574 0h-468l-27 -150h-70l37 211q54 0 91.5 39t50.5 116l86 484h421l-113 -637h73l-38 -213h-70zM266 215q-17 -103 -83 -152h322l101 574h-266z" />
    <glyph glyph-name="afii10022" unicode="&#x415;" horiz-adv-x="498" 
d="M263 637l-44 -253h261l-11 -63h-262l-45 -258h299l-11 -63h-374l123 700h369l-11 -63h-294z" />
    <glyph glyph-name="afii10024" unicode="&#x416;" horiz-adv-x="904" 
d="M414 0l123 700h75l-123 -700h-75zM784 0l-221 359l329 341h87l-329 -341l223 -359h-89zM467 359l-347 -359h-90l349 359l-208 341h87z" />
    <glyph glyph-name="afii10025" unicode="&#x417;" horiz-adv-x="545" 
d="M242 328l12 66h78q55 0 93.5 33t48.5 91q10 56 -17 89.5t-85 33.5q-87 0 -176 -75l-38 47q111 94 231 94q93 0 134.5 -51t26.5 -133q-19 -110 -113 -154q52 -18 76 -64.5t13 -112.5q-16 -91 -86 -145t-172 -54q-134 0 -212 101l57 47q63 -82 161 -82q72 0 119 38t58 100
q11 59 -18 95t-86 36h-105z" />
    <glyph glyph-name="afii10026" unicode="&#x418;" horiz-adv-x="706" 
d="M701 700h52l-123 -700h-76l98 558l-525 -558h-51l123 700h75l-99 -558z" />
    <glyph glyph-name="afii10027" unicode="&#x419;" horiz-adv-x="706" 
d="M494 807q63 0 110 42l32 -38q-69 -59 -151 -59t-130 59l45 38q34 -42 94 -42zM701 700h52l-123 -700h-76l98 558l-525 -558h-51l123 700h75l-99 -558z" />
    <glyph glyph-name="afii10028" unicode="&#x41a;" horiz-adv-x="596" 
d="M73 0l123 700h76l-123 -700h-76zM468 0l-246 359l349 341h95l-349 -341l248 -359h-97z" />
    <glyph glyph-name="afii10029" unicode="&#x41b;" horiz-adv-x="658" 
d="M38 0l8 49q54 0 91.5 31t47.5 89l94 531h426l-123 -700h-78l112 637h-271l-82 -464q-14 -81 -63.5 -129t-114.5 -48q-35 0 -47 4z" />
    <glyph glyph-name="afii10030" unicode="&#x41c;" horiz-adv-x="809" 
d="M658 0l95 545l-304 -384h-34l-168 384l-96 -545h-75l123 700h57l195 -433l347 433h58l-123 -700h-75z" />
    <glyph glyph-name="afii10031" unicode="&#x41d;" horiz-adv-x="690" 
d="M274 700l-55 -316h388l55 316h75l-123 -700h-75l56 321h-388l-56 -321h-75l123 700h75z" />
    <glyph glyph-name="afii10032" unicode="&#x41e;" horiz-adv-x="805" 
d="M111 350q29 159 144 258t272 99t237 -99t52 -258q-29 -159 -143.5 -258t-271.5 -99t-237.5 99t-52.5 258zM189 350q-22 -129 40 -209t184 -80t212.5 80t112.5 209q23 129 -39 209t-184 80t-213 -80t-113 -209z" />
    <glyph glyph-name="afii10033" unicode="&#x41f;" horiz-adv-x="661" 
d="M199 700h509l-123 -700h-75l111 637h-358l-112 -637h-75z" />
    <glyph glyph-name="afii10034" unicode="&#x420;" horiz-adv-x="519" 
d="M76 0l123 700h189q91 0 138 -53.5t31 -142.5t-81 -142t-157 -53h-111l-54 -309h-78zM480 504q10 59 -18.5 94.5t-85.5 35.5h-111l-46 -260h111q57 0 98.5 35.5t51.5 94.5z" />
    <glyph glyph-name="afii10035" unicode="&#x421;" horiz-adv-x="699" 
d="M189 350q-22 -129 40.5 -209t186.5 -80q126 0 219 80l40 -47q-115 -101 -274 -101q-157 0 -237.5 99t-52.5 258q29 159 144 258t272 99q158 0 238 -101l-57 -48q-64 81 -190 81q-123 0 -215 -80t-114 -209z" />
    <glyph glyph-name="afii10036" unicode="&#x422;" horiz-adv-x="557" 
d="M428 637l-112 -637h-75l112 637h-201l11 63h477l-11 -63h-201z" />
    <glyph glyph-name="afii10037" unicode="&#x423;" horiz-adv-x="609" 
d="M706 700l-475 -700h-81l157 220l-158 480h81l129 -393l266 393h81z" />
    <glyph glyph-name="afii10038" unicode="&#x424;" horiz-adv-x="769" 
d="M347 0l11 68q-132 0 -200.5 78.5t-46.5 203.5q23 126 119 204t228 78l12 68h75l-12 -68q133 0 201 -78.5t45 -203.5q-22 -125 -117.5 -203.5t-228.5 -78.5l-11 -68h-75zM521 564l-76 -428q98 0 169 59t88 155t-33 155t-148 59zM370 136l76 428q-98 0 -169.5 -59.5
t-87.5 -154.5q-17 -95 33.5 -154.5t147.5 -59.5z" />
    <glyph glyph-name="afii10039" unicode="&#x425;" horiz-adv-x="721" 
d="M593 0l-180 303l-286 -303h-96l336 354l-206 346h97l173 -294l277 294h97l-329 -346l214 -354h-97z" />
    <glyph glyph-name="afii10040" unicode="&#x426;" horiz-adv-x="725" 
d="M619 0h-543l123 700h75l-112 -637h393l112 637h76l-113 -637h70l-37 -213h-71z" />
    <glyph glyph-name="afii10041" unicode="&#x427;" horiz-adv-x="578" 
d="M502 0h-73l55 315q-65 -19 -153 -19q-99 0 -141.5 55t-24.5 158l34 191h73l-34 -189q-27 -154 119 -154q79 0 138 19l57 324h73z" />
    <glyph glyph-name="afii10042" unicode="&#x428;" horiz-adv-x="1014" 
d="M938 0h-862l123 700h75l-112 -637h318l112 637h76l-113 -637h318l113 637h75z" />
    <glyph glyph-name="afii10043" unicode="&#x429;" horiz-adv-x="1044" 
d="M938 0h-862l123 700h75l-112 -637h318l112 637h76l-113 -637h318l113 637h75l-112 -637h70l-38 -213h-70z" />
    <glyph glyph-name="afii10044" unicode="&#x42a;" horiz-adv-x="649" 
d="M152 637l11 63h233l-54 -309h121q92 0 138.5 -53t31.5 -142q-16 -89 -81.5 -142.5t-156.5 -53.5h-199l111 637h-155zM555 196q10 58 -18.5 94t-85.5 36h-121l-46 -260h122q56 0 97 35.5t52 94.5z" />
    <glyph glyph-name="afii10045" unicode="&#x42b;" horiz-adv-x="731" 
d="M76 0l123 700h78l-55 -309h122q91 0 137.5 -53t31.5 -142q-16 -89 -81.5 -142.5t-156.5 -53.5h-199zM435 196q10 58 -18.5 94t-84.5 36h-122l-45 -260h121q57 0 97.5 35.5t51.5 94.5zM580 0l123 700h75l-123 -700h-75z" />
    <glyph glyph-name="afii10046" unicode="&#x42c;" horiz-adv-x="529" 
d="M76 0l123 700h78l-55 -309h122q91 0 137.5 -53t31.5 -142q-16 -89 -81.5 -142.5t-156.5 -53.5h-199zM435 196q10 58 -18.5 94t-84.5 36h-122l-45 -260h121q57 0 97.5 35.5t51.5 94.5z" />
    <glyph glyph-name="afii10047" unicode="&#x42d;" horiz-adv-x="699" 
d="M187 558l-40 48q115 101 274 101q157 0 237 -99t52 -258q-29 -159 -143.5 -258t-271.5 -99q-159 0 -239 101l57 47q64 -80 191 -80q116 0 204 71.5t117 188.5h-352l11 63h352q11 115 -52 185t-178 70q-127 0 -219 -81z" />
    <glyph glyph-name="afii10048" unicode="&#x42e;" horiz-adv-x="1029" 
d="M274 700l-55 -316h185q36 145 139.5 234t238.5 89q143 0 214.5 -99t43.5 -258t-134.5 -258t-249.5 -99q-137 0 -208.5 90t-54.5 238h-186l-56 -321h-75l123 700h75zM474 350q-22 -129 31.5 -209t161.5 -80q109 0 191 80t104 209q23 129 -30.5 209t-162.5 80
q-108 0 -190.5 -80t-104.5 -209z" />
    <glyph glyph-name="afii10049" unicode="&#x42f;" horiz-adv-x="544" 
d="M591 700l-123 -700h-77l54 309h-107l-216 -309h-86l227 313q-71 12 -104.5 63t-19.5 128q15 89 81 142.5t157 53.5h214zM217 504q-10 -58 18 -94t84 -36h137l46 260h-137q-56 0 -97 -36t-51 -94z" />
    <glyph glyph-name="afii10065" unicode="&#x430;" horiz-adv-x="539" 
d="M359 457q123 0 174 -73l-67 -384h-73l6 36q-61 -43 -139 -43q-97 0 -145.5 64t-30.5 168q19 104 94.5 168t180.5 64zM160 225q-13 -74 22.5 -120.5t106.5 -46.5t122 43l44 256q-38 35 -109 35q-70 0 -121.5 -46.5t-64.5 -120.5z" />
    <glyph glyph-name="afii10066" unicode="&#x431;" horiz-adv-x="565" 
d="M567 755l33 -41q-37 -35 -82.5 -60t-82 -36t-76 -29t-69.5 -41t-56 -71t-41 -119h5q70 99 181 99q93 0 145 -65t34 -169q-18 -103 -94 -166.5t-187 -63.5q-39 0 -69 8.5t-56 29.5t-38.5 56.5t-16 89.5t11.5 128q17 98 50.5 168t72.5 104.5t87 60t90 37t86 32t72 48.5z
M177 224q-13 -74 17.5 -120t100.5 -46q71 0 123.5 46.5t65.5 121.5q13 74 -23 120t-106 46q-69 0 -116.5 -45.5t-61.5 -122.5z" />
    <glyph glyph-name="afii10067" unicode="&#x432;" horiz-adv-x="442" 
d="M73 0l79 450h166q59 0 87 -31.5t19 -82.5q-11 -66 -71 -98q36 -13 52 -43t8 -71q-10 -56 -52 -90t-106 -34h-182zM280 208h-98l-27 -152h98q34 0 58.5 21t30.5 55t-11.5 55t-50.5 21zM192 259h82q29 0 51 19t27 49q5 29 -10.5 48t-44.5 19h-82z" />
    <glyph glyph-name="afii10068" unicode="&#x433;" horiz-adv-x="368" 
d="M214 392l-68 -392h-73l79 450h254l-11 -58h-181z" />
    <glyph glyph-name="afii10069" unicode="&#x434;" horiz-adv-x="534" 
d="M505 58l-32 -178h-68l22 120h-322l-22 -120h-68l31 178q38 0 68.5 28.5t37.5 71.5l52 292h310l-69 -392h60zM226 164q-12 -66 -61 -106h207l59 334h-165z" />
    <glyph glyph-name="afii10070" unicode="&#x435;" horiz-adv-x="508" 
d="M501 206h-343q-7 -67 29 -107.5t105 -40.5q76 0 128 47l36 -45q-75 -67 -180 -67q-104 0 -157 64.5t-34 169.5q18 102 89 166t167 64q97 0 138.5 -67t21.5 -184zM331 393q-57 0 -101.5 -36.5t-61.5 -98.5h269q5 62 -23 98.5t-83 36.5z" />
    <glyph glyph-name="afii10072" unicode="&#x436;" horiz-adv-x="664" 
d="M549 0l-140 235l-41 -235h-72l41 235l-223 -235h-83l226 237l-131 213h84l128 -212l37 212h72l-37 -211l202 211h84l-206 -213l143 -237h-84z" />
    <glyph glyph-name="afii10073" unicode="&#x437;" horiz-adv-x="408" 
d="M270 457q67 0 100.5 -33t23.5 -86q-13 -72 -75 -102q75 -26 60 -116q-10 -58 -58.5 -92.5t-125.5 -34.5q-95 0 -150 67l49 41q38 -48 104 -48q45 0 74.5 22t35.5 57q6 34 -11 54t-52 20h-69l9 51h52q31 0 54.5 20t29.5 50q5 28 -12.5 49t-55.5 21q-58 0 -107 -44l-34 42
q72 62 158 62z" />
    <glyph glyph-name="afii10074" unicode="&#x438;" horiz-adv-x="533" 
d="M225 450l-58 -333l313 333h59l-79 -450h-73l58 333l-313 -333h-59l79 450h73z" />
    <glyph glyph-name="afii10075" unicode="&#x439;" horiz-adv-x="533" 
d="M369 582q61 0 109 42l31 -38q-67 -59 -151 -59q-82 0 -129 60l44 38q35 -43 96 -43zM225 450l-58 -333l313 333h59l-79 -450h-73l58 333l-313 -333h-59l79 450h73z" />
    <glyph glyph-name="afii10076" unicode="&#x43a;" horiz-adv-x="465" 
d="M146 0h-73l79 450h73l-37 -208l222 208h87l-228 -213l166 -237h-87l-162 231z" />
    <glyph glyph-name="afii10077" unicode="&#x43b;" horiz-adv-x="500" 
d="M38 0l8 49q38 0 64.5 21.5t33.5 63.5l56 316h305l-79 -450h-72l68 392h-160l-46 -261q-11 -64 -49 -99.5t-91 -35.5q-29 0 -38 4z" />
    <glyph glyph-name="afii10078" unicode="&#x43c;" horiz-adv-x="599" 
d="M73 0l79 450h70l109 -271l204 271h70l-79 -450h-68l58 335l-180 -245h-42l-94 245l-59 -335h-68z" />
    <glyph glyph-name="afii10079" unicode="&#x43d;" horiz-adv-x="528" 
d="M225 450l-34 -193h235l35 193h72l-79 -450h-72l34 198h-236l-34 -198h-73l79 450h73z" />
    <glyph glyph-name="afii10080" unicode="&#x43e;" horiz-adv-x="555" 
d="M84 225q19 104 95 168t179 64t156 -64t35 -168q-19 -104 -94.5 -168t-178.5 -64q-104 0 -157 64.5t-35 167.5zM160 225q-13 -74 22 -120.5t105 -46.5t121.5 46.5t65.5 120.5q13 74 -22.5 120.5t-105.5 46.5t-121.5 -46.5t-64.5 -120.5z" />
    <glyph glyph-name="afii10081" unicode="&#x43f;" horiz-adv-x="515" 
d="M369 0l68 392h-223l-68 -392h-73l79 450h369l-79 -450h-73z" />
    <glyph glyph-name="afii10082" unicode="&#x440;" horiz-adv-x="541" 
d="M152 450h73l-7 -38q64 45 142 45q97 0 145 -64t30 -168q-19 -104 -93 -168t-175 -64q-72 0 -117 33l-49 -276h-73zM459 225q13 74 -22.5 120.5t-106.5 46.5q-73 0 -124 -46l-43 -245q35 -43 108 -43q71 0 123 46.5t65 120.5z" />
    <glyph glyph-name="afii10083" unicode="&#x441;" horiz-adv-x="478" 
d="M160 225q-13 -74 22.5 -120.5t106.5 -46.5q74 0 126 47l37 -45q-75 -67 -178 -67t-155.5 64.5t-34.5 167.5q19 104 94 168t178 64q102 0 154 -68l-53 -45q-35 48 -109 48q-71 0 -123 -46.5t-65 -120.5z" />
    <glyph glyph-name="afii10084" unicode="&#x442;" horiz-adv-x="434" 
d="M322 392l-68 -392h-73l68 392h-140l10 58h354l-10 -58h-141z" />
    <glyph glyph-name="afii10085" unicode="&#x443;" horiz-adv-x="529" 
d="M582 450l-445 -700h-81l174 250l-125 450h81l94 -363l221 363h81z" />
    <glyph glyph-name="afii10086" unicode="&#x444;" horiz-adv-x="678" 
d="M400 -5q-11 0 -25 2l-44 -247h-73l44 247q-18 -2 -25 -2q-104 0 -157.5 63.5t-35.5 166.5q19 103 94.5 166.5t179.5 63.5q8 0 24 -2l53 297h73l-53 -297q16 2 26 2q104 0 156.5 -63.5t34.5 -166.5t-93 -166.5t-179 -63.5zM469 392q-11 0 -25 -2l-59 -330q16 -2 25 -2
q70 0 122 46.5t65 120.5t-22.5 120.5t-105.5 46.5zM160 225q-13 -74 22 -120.5t105 -46.5q9 0 25 2l59 330q-16 2 -25 2q-70 0 -121.5 -46.5t-64.5 -120.5z" />
    <glyph glyph-name="afii10087" unicode="&#x445;" horiz-adv-x="513" 
d="M397 0l-109 183l-173 -183h-84l218 229l-132 221h85l102 -173l165 173h85l-211 -221l139 -229h-85z" />
    <glyph glyph-name="afii10088" unicode="&#x446;" horiz-adv-x="535" 
d="M73 0l79 450h73l-69 -392h223l69 392h73l-69 -392h54l-31 -178h-68l22 120h-356z" />
    <glyph glyph-name="afii10089" unicode="&#x447;" horiz-adv-x="475" 
d="M402 0h-73l33 188q-50 -17 -107 -17q-74 0 -107 42t-20 113l22 124h73l-22 -121q-7 -43 12.5 -70.5t68.5 -27.5q55 0 91 20l35 199h73z" />
    <glyph glyph-name="afii10090" unicode="&#x448;" horiz-adv-x="710" 
d="M574 58l69 392h73l-79 -450h-564l79 450h73l-69 -392h172l70 392h72l-69 -392h173z" />
    <glyph glyph-name="afii10091" unicode="&#x449;" horiz-adv-x="730" 
d="M73 0l79 450h73l-69 -392h172l70 392h72l-69 -392h173l69 392h73l-70 -392h55l-32 -178h-68l22 120h-550z" />
    <glyph glyph-name="afii10092" unicode="&#x44a;" horiz-adv-x="512" 
d="M323 0h-162l68 392h-120l10 58h193l-33 -190h90q66 0 98.5 -36t21.5 -94q-10 -58 -54.5 -94t-111.5 -36zM356 204h-87l-26 -148h87q32 0 56.5 20.5t29.5 53.5q6 32 -11 53t-49 21z" />
    <glyph glyph-name="afii10093" unicode="&#x44b;" horiz-adv-x="599" 
d="M73 0l79 450h73l-33 -190h89q67 0 99 -36t22 -94t-54.5 -94t-111.5 -36h-163zM269 204h-88l-26 -148h88q32 0 56.5 20.5t29.5 53.5q6 32 -11 53t-49 21zM453 0l79 450h73l-79 -450h-73z" />
    <glyph glyph-name="afii10094" unicode="&#x44c;" horiz-adv-x="425" 
d="M73 0l79 450h73l-33 -190h89q67 0 99 -36t22 -94t-54.5 -94t-111.5 -36h-163zM269 204h-88l-26 -148h88q32 0 56.5 20.5t29.5 53.5q6 32 -11 53t-49 21z" />
    <glyph glyph-name="afii10095" unicode="&#x44d;" horiz-adv-x="478" 
d="M188 201l10 53h201q3 62 -33 100t-99 38q-75 0 -125 -47l-38 45q75 67 179 67q103 0 155 -64t34 -168q-19 -104 -93.5 -168t-177.5 -64q-102 0 -155 67l53 46q35 -48 109 -48q64 0 114 39t68 104h-202z" />
    <glyph glyph-name="afii10096" unicode="&#x44e;" horiz-adv-x="747" 
d="M225 450l-34 -193h113q26 90 95.5 145t160.5 55q99 0 149 -64t32 -168q-19 -104 -91.5 -168t-171.5 -64q-93 0 -143 56t-42 149h-113l-34 -198h-73l79 450h73zM372 225q-13 -74 19.5 -120.5t97.5 -46.5q66 0 114.5 46.5t62.5 120.5q13 74 -20 120.5t-98 46.5
t-113.5 -46.5t-62.5 -120.5z" />
    <glyph glyph-name="afii10097" unicode="&#x44f;" horiz-adv-x="463" 
d="M468 450l-79 -450h-73l33 185h-82l-135 -185h-77l145 190q-47 11 -67.5 45t-11.5 82q10 60 55.5 96.5t114.5 36.5h177zM256 241h102l27 153h-102q-34 0 -58.5 -21t-30.5 -55t11 -55.5t51 -21.5z" />
    <glyph glyph-name="uni0450" unicode="&#x450;" horiz-adv-x="508" 
d="M501 206h-343q-7 -67 29 -107.5t105 -40.5q76 0 128 47l36 -45q-75 -67 -180 -67q-104 0 -157 64.5t-34 169.5q18 102 89 166t167 64q97 0 138.5 -67t21.5 -184zM331 393q-57 0 -101.5 -36.5t-61.5 -98.5h269q5 62 -23 98.5t-83 36.5zM316 675l103 -125l-44 -38l-104 125
z" />
    <glyph glyph-name="afii10071" unicode="&#x451;" horiz-adv-x="508" 
d="M501 206h-343q-7 -67 29 -107.5t105 -40.5q76 0 128 47l36 -45q-75 -67 -180 -67q-104 0 -157 64.5t-34 169.5q18 102 89 166t167 64q97 0 138.5 -67t21.5 -184zM331 393q-57 0 -101.5 -36.5t-61.5 -98.5h269q5 62 -23 98.5t-83 36.5zM217 552q4 20 20.5 33.5t35.5 13.5
t30 -13.5t7 -33.5q-3 -19 -18.5 -32.5t-35.5 -13.5t-31 13.5t-8 32.5zM404 552q4 20 20 33.5t36 13.5t31 -13.5t7 -33.5q-3 -19 -19 -32.5t-36 -13.5t-31 13.5t-8 32.5z" />
    <glyph glyph-name="afii10099" unicode="&#x452;" horiz-adv-x="538" 
d="M288 -250l9 49q56 0 65 53l75 421q9 53 -16.5 86t-76.5 33q-72 0 -123 -45l-60 -347h-73l104 592h-58l10 58h58l18 100h73l-18 -100h173l-10 -58h-174l-31 -180q64 45 140 45q77 0 114 -50.5t22 -133.5l-74 -423q-9 -48 -40 -76t-74 -28q-24 0 -33 4z" />
    <glyph glyph-name="afii10100" unicode="&#x453;" horiz-adv-x="368" 
d="M234 550l147 125l31 -38l-147 -125zM214 392l-68 -392h-73l79 450h254l-11 -58h-181z" />
    <glyph glyph-name="afii10101" unicode="&#x454;" horiz-adv-x="478" 
d="M348 392q-63 0 -112 -37.5t-69 -100.5h232l-9 -53h-233q-5 -65 31.5 -104t100.5 -39q74 0 126 47l37 -45q-75 -67 -178 -67t-155.5 64.5t-34.5 167.5q19 104 94 168t178 64q102 0 154 -68l-53 -45q-35 48 -109 48z" />
    <glyph glyph-name="afii10102" unicode="&#x455;" horiz-adv-x="384" 
d="M395 404l-53 -45q-29 36 -80 36q-34 0 -55 -20t-24 -45q-5 -26 13.5 -43.5t47.5 -29t58 -25t46 -40t10 -64.5q-9 -55 -55.5 -95t-117.5 -40q-91 0 -137 60l53 45q31 -44 90 -44q41 0 65 23t29 50q4 25 -14.5 42t-47.5 28t-58 25t-46 40.5t-10 66.5q10 53 51.5 90.5
t107.5 37.5q85 0 127 -53z" />
    <glyph glyph-name="afii10103" unicode="&#x456;" 
d="M73 0l79 450h73l-79 -450h-73zM164 585q3 20 20 34.5t37 14.5q21 0 32.5 -14t8.5 -35q-5 -21 -21.5 -35t-37.5 -14q-20 0 -31.5 14.5t-7.5 34.5z" />
    <glyph glyph-name="afii10104" unicode="&#x457;" 
d="M73 0l79 450h73l-79 -450h-73zM85 560q4 19 19.5 32.5t35.5 13.5t31 -13.5t7 -32.5q-3 -20 -19 -33.5t-35 -13.5t-30.5 13.5t-8.5 33.5zM237 560q4 20 20 33.5t35 13.5q20 0 31 -13.5t7 -33.5q-3 -20 -19 -33.5t-36 -13.5t-31 14t-7 33z" />
    <glyph glyph-name="afii10105" unicode="&#x458;" 
d="M164 585q3 20 20 34.5t37 14.5q21 0 32.5 -14t8.5 -35q-5 -21 -21.5 -35t-37.5 -14q-20 0 -31.5 14.5t-7.5 34.5zM-26 -250l9 49q54 0 64 53l105 598h73l-106 -600q-8 -48 -39 -76t-75 -28q-22 0 -31 4z" />
    <glyph glyph-name="afii10106" unicode="&#x459;" horiz-adv-x="700" 
d="M354 0l68 392h-160l-46 -261q-11 -64 -49 -99.5t-91 -35.5q-29 0 -38 4l8 49q38 0 64.5 21.5t33.5 63.5l56 316h305l-33 -190h90q66 0 98.5 -36t21.5 -94q-10 -58 -54.5 -94t-111.5 -36h-162zM549 204h-87l-26 -148h87q32 0 56.5 20.5t29.5 53.5q6 32 -11 53t-49 21z" />
    <glyph glyph-name="afii10107" unicode="&#x45a;" horiz-adv-x="728" 
d="M225 450l-34 -193h230l34 193h73l-34 -193h96q65 0 96 -35.5t21 -93.5q-11 -58 -53.5 -93t-108.5 -35h-169l35 198h-231l-34 -198h-73l79 450h73zM577 198h-94l-25 -142h94q31 0 54 19.5t28 51.5q6 33 -10 52t-47 19z" />
    <glyph glyph-name="afii10108" unicode="&#x45b;" horiz-adv-x="538" 
d="M134 592l10 58h58l18 100h73l-18 -100h173l-10 -58h-174l-31 -180q64 45 140 45q77 0 114 -50.5t22 -133.5l-47 -273h-73l48 273q9 53 -16.5 86t-76.5 33q-72 0 -123 -45l-60 -347h-73l104 592h-58z" />
    <glyph glyph-name="afii10109" unicode="&#x45c;" horiz-adv-x="465" 
d="M146 0h-73l79 450h73l-37 -208l222 208h87l-228 -213l166 -237h-87l-162 231zM267 550l148 125l31 -38l-147 -125z" />
    <glyph glyph-name="uni045D" unicode="&#x45d;" horiz-adv-x="533" 
d="M321 675l103 -125l-44 -38l-104 125zM225 450l-58 -333l313 333h59l-79 -450h-73l58 333l-313 -333h-59l79 450h73z" />
    <glyph glyph-name="afii10110" unicode="&#x45e;" horiz-adv-x="529" 
d="M582 450l-445 -700h-81l174 250l-125 450h81l94 -363l221 363h81zM367 582q62 0 109 42l31 -38q-65 -59 -150 -59q-81 0 -130 60l45 38q33 -43 95 -43z" />
    <glyph glyph-name="afii10193" unicode="&#x45f;" horiz-adv-x="515" 
d="M202 -120l22 120h-151l79 450h73l-69 -392h223l69 392h73l-79 -450h-150l-22 -120h-68z" />
    <glyph glyph-name="afii10050" unicode="&#x490;" horiz-adv-x="464" 
d="M263 637l-112 -637h-75l123 700h276l22 125h58l-33 -188h-259z" />
    <glyph glyph-name="afii10098" unicode="&#x491;" horiz-adv-x="365" 
d="M214 392l-68 -392h-73l79 450h186l17 100h58l-28 -158h-171z" />
    <glyph glyph-name="uni04D8" unicode="&#x4d8;" horiz-adv-x="746" 
d="M756 350q-28 -159 -134.5 -258t-250.5 -99t-216 99t-44 258l6 29h565q11 117 -51.5 188.5t-178.5 71.5q-129 0 -219 -81l-40 48q115 101 274 101q157 0 237.5 -99t51.5 -258zM383 61q102 0 180 70t107 185h-484q-13 -115 41 -185t156 -70z" />
    <glyph glyph-name="afii10846" unicode="&#x4d9;" horiz-adv-x="508" 
d="M88 244h343q7 67 -29 107.5t-105 40.5q-76 0 -128 -47l-37 45q76 67 182 67q104 0 156.5 -64.5t33.5 -169.5q-18 -102 -88.5 -166t-166.5 -64q-97 0 -139 67.5t-22 183.5zM258 57q57 0 101.5 36.5t62.5 98.5h-270q-5 -63 22.5 -99t83.5 -36z" />
    <glyph glyph-name="Wgrave" unicode="&#x1e80;" horiz-adv-x="1133" 
d="M1228 700l-386 -700h-76l-99 571l-300 -571h-76l-140 700h87l110 -584l302 584h79l95 -584l317 584h87zM661 900l103 -125l-44 -38l-104 125z" />
    <glyph glyph-name="wgrave" unicode="&#x1e81;" horiz-adv-x="792" 
d="M845 450l-253 -450h-76l-59 348l-181 -348h-76l-95 450h83l65 -362l185 362h74l57 -362l193 362h83zM451 675l103 -125l-44 -38l-104 125z" />
    <glyph glyph-name="Wacute" unicode="&#x1e82;" horiz-adv-x="1133" 
d="M1228 700l-386 -700h-76l-99 571l-300 -571h-76l-140 700h87l110 -584l302 584h79l95 -584l317 584h87zM641 775l147 125l31 -38l-147 -125z" />
    <glyph glyph-name="wacute" unicode="&#x1e83;" horiz-adv-x="792" 
d="M845 450l-253 -450h-76l-59 348l-181 -348h-76l-95 450h83l65 -362l185 362h74l57 -362l193 362h83zM431 550l148 125l30 -38l-146 -125z" />
    <glyph glyph-name="Wdieresis" unicode="&#x1e84;" horiz-adv-x="1133" 
d="M1228 700l-386 -700h-76l-99 571l-300 -571h-76l-140 700h87l110 -584l302 584h79l95 -584l317 584h87zM566 797q3 19 19 33t36 14q19 0 30 -13.5t9 -33.5q-4 -19 -20 -32.5t-36 -13.5t-31 13.5t-7 32.5zM754 797q3 20 18.5 33.5t35.5 13.5t31.5 -13.5t7.5 -33.5t-20 -33
t-36 -13q-19 0 -30 13t-7 33z" />
    <glyph glyph-name="wdieresis" unicode="&#x1e85;" horiz-adv-x="792" 
d="M845 450l-253 -450h-76l-59 348l-181 -348h-76l-95 450h83l65 -362l185 362h74l57 -362l193 362h83zM356 573q4 19 19.5 32.5t35.5 13.5t31 -13.5t7 -32.5q-4 -20 -20 -33.5t-35 -13.5q-20 0 -31 14t-7 33zM543 573q4 20 20 33.5t35 13.5q20 0 31 -13.5t8 -33.5
q-4 -20 -20 -33.5t-35 -13.5q-20 0 -31.5 14t-7.5 33z" />
    <glyph glyph-name="Ygrave" unicode="&#x1ef2;" horiz-adv-x="667" 
d="M295 0l53 302l-197 398h88l160 -323l275 323h87l-338 -399l-52 -301h-76zM428 900l103 -125l-45 -38l-103 125z" />
    <glyph glyph-name="ygrave" unicode="&#x1ef3;" horiz-adv-x="529" 
d="M582 450l-445 -700h-81l174 250l-125 450h81l94 -363l221 363h81zM320 675l103 -125l-45 -38l-104 125z" />
    <glyph glyph-name="figuredash" unicode="&#x2012;" horiz-adv-x="500" 
d="M116 321l11 58h379l-11 -58h-379z" />
    <glyph glyph-name="endash" unicode="&#x2013;" horiz-adv-x="500" 
d="M102 236l10 58h379l-11 -58h-378z" />
    <glyph glyph-name="emdash" unicode="&#x2014;" horiz-adv-x="700" 
d="M102 236l10 58h579l-11 -58h-578z" />
    <glyph glyph-name="quoteleft" unicode="&#x2018;" 
d="M263 707l22 -26q-48 -39 -60 -73q17 -2 26.5 -15.5t6.5 -32.5q-4 -20 -21 -34.5t-38 -14.5q-20 0 -32 14.5t-6 42.5q12 63 102 139z" />
    <glyph glyph-name="quoteright" unicode="&#x2019;" 
d="M171 511l-21 26q46 41 59 73q-17 3 -26.5 16.5t-6.5 31.5q4 21 21 35t38 14q20 0 32 -14t6 -43q-11 -62 -102 -139z" />
    <glyph glyph-name="quotesinglbase" unicode="&#x201a;" 
d="M63 -105l-22 26q47 40 60 73q-17 2 -26.5 15.5t-6.5 32.5q3 20 20 34.5t37 14.5t32 -14t8 -43q-12 -63 -102 -139z" />
    <glyph glyph-name="quotedblleft" unicode="&#x201c;" horiz-adv-x="353" 
d="M401 731l21 -26q-48 -40 -59 -73q17 -2 26.5 -15.5t6.5 -32.5q-4 -20 -21 -34.5t-38 -14.5q-20 0 -32 14.5t-6 42.5q10 62 102 139zM267 731l21 -26q-46 -39 -59 -73q17 -2 26.5 -15.5t6.5 -32.5q-4 -20 -20.5 -34.5t-37.5 -14.5q-20 0 -32 14t-7 43q11 61 102 139z" />
    <glyph glyph-name="quotedblright" unicode="&#x201d;" horiz-adv-x="353" 
d="M175 535l-21 26q47 40 59 73q-17 3 -26.5 16.5t-6.5 31.5q5 21 21.5 35t37.5 14q20 0 32 -14t6 -43q-11 -62 -102 -139zM309 535l-22 26q47 40 60 73q-17 3 -26.5 16.5t-6.5 31.5q4 21 21 35t38 14q20 0 31.5 -14t6.5 -43q-11 -62 -102 -139z" />
    <glyph glyph-name="quotedblbase" unicode="&#x201e;" horiz-adv-x="353" 
d="M63 -105l-22 26q47 40 60 73q-17 2 -26.5 15.5t-6.5 32.5q3 20 20 34.5t37 14.5t32 -14t8 -43q-12 -63 -102 -139zM196 -105l-21 26q48 40 59 73q-17 2 -26.5 16t-6.5 32q4 20 20.5 34.5t37.5 14.5q20 0 32 -14.5t7 -42.5q-12 -63 -102 -139z" />
    <glyph glyph-name="dagger" unicode="&#x2020;" horiz-adv-x="500" 
d="M129 392l11 58h153l53 300h72l-53 -300h153l-11 -58h-152l-114 -642h-72l113 642h-153z" />
    <glyph glyph-name="daggerdbl" unicode="&#x2021;" horiz-adv-x="500" 
d="M72 66l10 58h153l47 268h-153l11 58h153l53 300h72l-53 -300h153l-11 -58h-152l-47 -268h153l-11 -58h-152l-57 -316h-72l56 316h-153z" />
    <glyph glyph-name="bullet" unicode="&#x2022;" horiz-adv-x="259" 
d="M106 275q5 30 29.5 50.5t54.5 20.5t47 -20.5t12 -50.5t-29.5 -50.5t-54.5 -20.5t-47 20.5t-12 50.5z" />
    <glyph glyph-name="ellipsis" unicode="&#x2026;" horiz-adv-x="659" 
d="M68 42q3 20 20 34.5t37 14.5t32 -14.5t9 -34.5q-4 -21 -20.5 -35t-37.5 -14q-20 0 -32 14t-8 35zM287 42q4 20 20.5 34.5t37.5 14.5q20 0 32 -14.5t8 -34.5q-3 -21 -19.5 -35t-37.5 -14t-32.5 14t-8.5 35zM507 42q3 20 20 34.5t37 14.5q21 0 32.5 -14t8.5 -35
q-4 -21 -20.5 -35t-36.5 -14q-21 0 -33 14t-8 35z" />
    <glyph glyph-name="perthousand" unicode="&#x2030;" horiz-adv-x="1247" 
d="M207 0l491 700h74l-491 -700h-74zM134 538q13 75 69 122t131 47q76 0 114 -46.5t25 -122.5t-68.5 -122.5t-130.5 -46.5q-76 0 -114.5 46.5t-25.5 122.5zM200 538q-9 -50 14.5 -81.5t69.5 -31.5t80.5 31.5t42.5 81.5q9 50 -14 81.5t-69 31.5t-80.5 -31.5t-43.5 -81.5z
M504 162q13 76 68.5 122.5t130.5 46.5q76 0 114.5 -46.5t25.5 -122.5q-14 -76 -68.5 -122.5t-130.5 -46.5t-114.5 46.5t-25.5 122.5zM570 162q-9 -50 14 -81.5t69 -31.5t80.5 31.5t43.5 81.5t-14 81.5t-69 31.5t-80.5 -31.5t-43.5 -81.5zM896 162q13 76 68.5 122.5
t130.5 46.5q76 0 114 -46.5t25 -122.5t-68 -122.5t-130 -46.5q-76 0 -114.5 46.5t-25.5 122.5zM962 162q-9 -50 14 -81.5t69 -31.5t80.5 31.5t43.5 81.5t-14.5 81.5t-69.5 31.5t-80 -31.5t-43 -81.5z" />
    <glyph glyph-name="guilsinglleft" unicode="&#x2039;" horiz-adv-x="300" 
d="M220 79l-140 171l200 171l31 -38l-155 -133l109 -133z" />
    <glyph glyph-name="guilsinglright" unicode="&#x203a;" horiz-adv-x="300" 
d="M304 250l-202 -171l-31 38l157 133l-111 133l46 38z" />
    <glyph glyph-name="fraction" unicode="&#x2044;" horiz-adv-x="530" 
d="M53 0l491 700h56l-491 -700h-56z" />
    <glyph glyph-name="Euro" unicode="&#x20ac;" horiz-adv-x="747" 
d="M110 396l7 44h67q48 122 153 194.5t238 72.5q158 0 238 -101l-57 -48q-64 81 -190 81q-100 0 -180.5 -54t-121.5 -145h268l-7 -44h-277q-5 -16 -11 -46q-5 -24 -6 -46h277l-7 -44h-269q8 -92 70 -145.5t162 -53.5q127 0 218 80l41 -47q-117 -101 -274 -101
q-133 0 -212.5 72.5t-84.5 194.5h-66l8 44h59q1 22 6 46q2 17 10 46h-59z" />
    <glyph glyph-name="uni20B4" unicode="&#x20b4;" horiz-adv-x="427" 
d="M112 390l7 44h207l17 14q26 22 40 41.5t19 49.5q8 45 -17.5 73.5t-73.5 28.5q-68 0 -116 -48l-38 47q70 67 166 67q82 0 124 -46t29 -120q-10 -58 -59 -107h43l-7 -44h-84l-92 -78h161l-7 -44h-205l-19 -16q-26 -22 -40 -41.5t-19 -49.5q-8 -45 17.5 -73.5t72.5 -28.5
q68 0 116 48l39 -47q-70 -67 -166 -67q-82 0 -124.5 46t-29.5 120q10 57 60 109h-43l7 44h85l92 78h-162z" />
    <glyph glyph-name="afii61352" unicode="&#x2116;" horiz-adv-x="995" 
d="M199 700h51l336 -558l99 558h75l-123 -700h-51l-337 558l-98 -558h-75zM810 576q10 57 52 92.5t99 35.5t86.5 -35.5t19.5 -92.5t-52 -92.5t-99 -35.5t-86.5 35.5t-19.5 92.5zM858 576q-7 -39 11 -62.5t54 -23.5t62.5 23.5t33.5 62.5q7 38 -11.5 62t-54.5 24
q-35 0 -61.5 -24t-33.5 -62z" />
    <glyph glyph-name="trademark" unicode="&#x2122;" horiz-adv-x="684" 
d="M284 662l-56 -312h-46l56 312h-98l7 38h240l-6 -38h-97zM660 350l45 257l-143 -180h-18l-80 180l-46 -257h-45l62 350h34l95 -207l169 207h35l-62 -350h-46z" />
    <glyph glyph-name="arrowleft" unicode="&#x2190;" horiz-adv-x="996" 
d="M406 -4l-354 354l354 354l47 -48l-272 -272h738v-68h-738l273 -271z" />
    <glyph glyph-name="arrowup" unicode="&#x2191;" horiz-adv-x="811" 
d="M372 -162v737l-272 -273l-48 48l354 354l353 -354l-48 -47l-271 272v-737h-68z" />
    <glyph glyph-name="arrowright" unicode="&#x2192;" horiz-adv-x="996" 
d="M77 316v68h737l-272 272l48 48l354 -354l-354 -354l-48 49l272 271h-737z" />
    <glyph glyph-name="arrowdown" unicode="&#x2193;" horiz-adv-x="811" 
d="M406 -167l-354 354l48 48l272 -272v737h68v-737l271 272l48 -48z" />
    <glyph glyph-name="uni2196" unicode="&#x2196;" horiz-adv-x="766" 
d="M77 132v500h500v-68h-384l521 -521l-48 -48l-521 522v-385h-68z" />
    <glyph glyph-name="uni2197" unicode="&#x2197;" horiz-adv-x="766" 
d="M189 564v68h500v-500h-68v385l-521 -522l-48 48l522 521h-385z" />
    <glyph glyph-name="uni2198" unicode="&#x2198;" horiz-adv-x="766" 
d="M189 0v68h385l-522 521l48 48l521 -521v384h68v-500h-500z" />
    <glyph glyph-name="uni2199" unicode="&#x2199;" horiz-adv-x="766" 
d="M77 0v500h68v-384l521 521l48 -48l-521 -521h384v-68h-500z" />
    <glyph glyph-name="minus" unicode="&#x2212;" horiz-adv-x="436" 
d="M109 273l10 59h314l-10 -59h-314z" />
    <glyph glyph-name="commaaccent" unicode="&#xf6c3;" 
d="M46 -217l-18 22q42 37 52 65q-14 2 -22.5 13.5t-5.5 26.5q3 18 17 30t32 12t28 -12t5 -37q-9 -54 -88 -120z" />
    <glyph glyph-name="gdotaccent.alt" horiz-adv-x="539" 
d="M387 -33l11 63q-60 -37 -132 -37q-99 0 -149.5 64.5t-32.5 167.5q19 104 94.5 168t180.5 64q123 0 174 -73l-73 -417q-18 -102 -89.5 -163t-172.5 -61q-106 0 -159 68l53 45q38 -48 113 -48q71 0 120 43t62 116zM160 225q-13 -74 22 -120.5t105 -46.5q72 0 124 47l44 252
q-40 35 -109 35q-70 0 -121.5 -46.5t-64.5 -120.5zM330 585q3 20 19.5 34.5t37.5 14.5q20 0 32 -14.5t9 -34.5q-5 -21 -21.5 -35t-37.5 -14q-20 0 -31.5 14.5t-7.5 34.5z" />
    <glyph glyph-name="afii10021.alt" horiz-adv-x="816" 
d="M710 0h-604l-27 -150h-70l37 213h57l392 637h72l167 -637h57l-38 -213h-70zM514 605l-324 -542h458z" />
    <glyph glyph-name="afii10029.alt" horiz-adv-x="749" 
d="M28 0l434 700h72l187 -700h-89l-152 602l-363 -602h-89z" />
    <glyph glyph-name="afii10058.alt" horiz-adv-x="1001" 
d="M28 0l434 700h72l82 -309h200q91 0 137.5 -53t31.5 -142q-16 -89 -81.5 -142.5t-156.5 -53.5h-115l-152 602l-363 -602h-89zM804 326h-171l70 -260h55q57 0 97.5 35.5t51.5 94.5q10 58 -18.5 94t-84.5 36z" />
    <glyph glyph-name="afii10069.alt" horiz-adv-x="592" 
d="M565 58l-31 -178h-68l22 120h-383l-22 -120h-68l31 178h49l246 392h69l106 -392h49zM361 367l-186 -309h261z" />
    <glyph glyph-name="afii10077.alt" horiz-adv-x="529" 
d="M26 0l283 450h69l125 -450h-81l-94 363l-221 -363h-81z" />
    <glyph glyph-name="afii10106.alt" horiz-adv-x="707" 
d="M26 0l283 450h69l52 -190h139q67 0 99 -36t21 -94q-10 -58 -54.5 -94t-111.5 -36h-101l-94 363l-221 -363h-81zM556 204h-111l42 -148h43q33 0 57 20.5t30 53.5q5 32 -12 53t-49 21z" />
    <glyph glyph-name="gcommaaccent.alt" horiz-adv-x="539" 
d="M387 -33l11 63q-60 -37 -132 -37q-99 0 -149.5 64.5t-32.5 167.5q19 104 94.5 168t180.5 64q123 0 174 -73l-73 -417q-18 -102 -89.5 -163t-172.5 -61q-106 0 -159 68l53 45q38 -48 113 -48q71 0 120 43t62 116zM160 225q-13 -74 22 -120.5t105 -46.5q72 0 124 47l44 252
q-40 35 -109 35q-70 0 -121.5 -46.5t-64.5 -120.5zM420 683l17 -22q-43 -39 -51 -65q14 -2 22 -13.5t5 -27.5q-3 -17 -17 -29.5t-32 -12.5q-17 0 -27 12.5t-5 36.5q10 57 88 121z" />
    <glyph glyph-name="gcircumflex.alt" horiz-adv-x="539" 
d="M387 -33l11 63q-60 -37 -132 -37q-99 0 -149.5 64.5t-32.5 167.5q19 104 94.5 168t180.5 64q123 0 174 -73l-73 -417q-18 -102 -89.5 -163t-172.5 -61q-106 0 -159 68l53 45q38 -48 113 -48q71 0 120 43t62 116zM160 225q-13 -74 22 -120.5t105 -46.5q72 0 124 47l44 252
q-40 35 -109 35q-70 0 -121.5 -46.5t-64.5 -120.5zM395 675l103 -125l-44 -38l-72 87l-103 -87l-31 38z" />
    <glyph glyph-name="gbreve.alt" horiz-adv-x="539" 
d="M387 -33l11 63q-60 -37 -132 -37q-99 0 -149.5 64.5t-32.5 167.5q19 104 94.5 168t180.5 64q123 0 174 -73l-73 -417q-18 -102 -89.5 -163t-172.5 -61q-106 0 -159 68l53 45q38 -48 113 -48q71 0 120 43t62 116zM160 225q-13 -74 22 -120.5t105 -46.5q72 0 124 47l44 252
q-40 35 -109 35q-70 0 -121.5 -46.5t-64.5 -120.5zM378 582q62 0 110 42l31 -38q-67 -59 -151 -59q-81 0 -130 60l45 38q35 -43 95 -43z" />
    <glyph glyph-name="g.alt" horiz-adv-x="539" 
d="M387 -33l11 63q-60 -37 -132 -37q-99 0 -149.5 64.5t-32.5 167.5q19 104 94.5 168t180.5 64q123 0 174 -73l-73 -417q-18 -102 -89.5 -163t-172.5 -61q-106 0 -159 68l53 45q38 -48 113 -48q71 0 120 43t62 116zM160 225q-13 -74 22 -120.5t105 -46.5q72 0 124 47l44 252
q-40 35 -109 35q-70 0 -121.5 -46.5t-64.5 -120.5z" />
    <glyph glyph-name="zero.fitted" horiz-adv-x="530" 
d="M98 350q29 159 109.5 258t181.5 99q102 0 147.5 -99t17.5 -258q-29 -159 -109 -258t-181 -99q-102 0 -148 99t-18 258zM174 350q-23 -130 5 -211t96 -81t124.5 81t78.5 211q23 130 -5 211t-96 81t-124.5 -81t-78.5 -211z" />
    <glyph glyph-name="germandbls.case" horiz-adv-x="590" 
d="M240 521l-91 -521h-76l92 521q14 83 76.5 134.5t147.5 51.5q86 0 130 -51t30 -133q-11 -61 -52.5 -105t-100.5 -58q-6 -35 11.5 -58.5t45.5 -37t56 -28.5t44.5 -43.5t8.5 -72.5q-8 -51 -54 -89t-117 -38q-91 0 -137 60l53 45q31 -44 90 -44q41 0 64.5 21t28.5 46
q4 24 -8.5 41.5t-33.5 27.5t-46 24t-45.5 29.5t-31 44.5t-3.5 69l11 58q54 0 93 30.5t48 80.5q9 51 -18 83.5t-79 32.5t-90 -34t-47 -87z" />
    <glyph glyph-name="at.case" horiz-adv-x="794" 
d="M651 130l29 -35q-114 -102 -282 -102q-159 0 -239.5 99t-52.5 258q29 159 144.5 258t272.5 99q158 0 237.5 -94t54.5 -234q-10 -54 -32.5 -95t-51.5 -63t-58.5 -32.5t-58.5 -10.5q-64 0 -81 37q-48 -37 -109 -37q-72 0 -108.5 47.5t-22.5 124.5t70 124.5t134 47.5
q91 0 129 -55l-36 -202q-3 -17 10 -26.5t34 -9.5q40 0 74.5 34.5t46.5 109.5q22 123 -43 203t-198 80q-132 0 -228.5 -84.5t-120.5 -221.5q-24 -138 42.5 -222t200.5 -84q146 0 243 86zM352 350q-10 -55 15.5 -88t78.5 -33q49 0 86 29l33 188q-27 25 -78 25q-52 0 -88.5 -33
t-46.5 -88z" />
    <glyph glyph-name="parenleft.case" horiz-adv-x="298" 
d="M380 757l-10 -56q-45 0 -95.5 -99.5t-77.5 -252.5q-27 -156 -12 -253.5t61 -97.5l-9 -55q-80 0 -113.5 114t-1.5 293t105.5 293t152.5 114z" />
    <glyph glyph-name="parenright.case" horiz-adv-x="298" 
d="M174 701l10 56q80 0 113 -114t1 -293q-31 -179 -104.5 -293t-153.5 -114l10 56q46 0 96 99t77 252q27 157 12 254t-61 97z" />
    <glyph glyph-name="bracketleft.case" horiz-adv-x="297" 
d="M379 750l-11 -58h-101l-120 -684h100l-9 -58h-174l141 800h174z" />
    <glyph glyph-name="bracketright.case" horiz-adv-x="297" 
d="M172 692l11 58h173l-141 -800h-173l10 58h100l120 684h-100z" />
    <glyph glyph-name="braceleft.case" horiz-adv-x="318" 
d="M277 -1l-10 -56q-67 0 -103 48.5t-23 124.5l13 75q10 57 -7 93.5t-51 36.5l10 56q34 0 64 36.5t40 93.5l14 77q13 76 66.5 124.5t120.5 48.5l-10 -56q-34 0 -64 -35.5t-40 -91.5l-13 -76q-10 -53 -39.5 -92t-71.5 -57q36 -18 52 -57t7 -92l-14 -74q-10 -56 7.5 -91.5
t51.5 -35.5z" />
    <glyph glyph-name="braceright.case" horiz-adv-x="318" 
d="M30 -57l10 56q33 0 63.5 35.5t39.5 91.5l13 74q9 52 39 91t72 58q-35 18 -51.5 57t-6.5 92l13 76q10 55 -7.5 91t-50.5 36l10 56q67 0 102.5 -48.5t22.5 -124.5l-13 -77q-10 -56 7 -93t50 -37l-10 -56q-33 0 -63 -37t-40 -93l-13 -75q-13 -76 -66.5 -124.5t-120.5 -48.5z
" />
    <glyph glyph-name="exclamdown.case" 
d="M176 658q4 21 21 35t37 14q21 0 32.5 -14t7.5 -35q-3 -20 -20 -34.5t-37 -14.5q-21 0 -32.5 14t-8.5 35zM163 508h72l-89 -508h-73z" />
    <glyph glyph-name="questiondown.case" horiz-adv-x="471" 
d="M405 114l39 -48q-91 -73 -204 -73q-93 0 -135.5 52.5t-29.5 127.5q7 41 28.5 71t48 48.5t52.5 37.5t47.5 49t28.5 72l11 57h73l-11 -57q-9 -51 -31.5 -88.5t-48.5 -58.5t-51.5 -38.5t-45.5 -40t-25 -51.5q-9 -45 16 -80.5t85 -35.5q87 0 153 56zM402 658
q-3 -20 -20 -34.5t-37 -14.5q-21 0 -32.5 14t-8.5 35q4 21 21 35t37 14q21 0 32.5 -14t7.5 -35z" />
    <glyph glyph-name="guillemotleft.case" horiz-adv-x="470" 
d="M237 179l-140 171l200 171l32 -38l-156 -133l109 -133zM407 179l-141 171l201 171l32 -38l-157 -133l109 -133z" />
    <glyph glyph-name="guillemotright.case" horiz-adv-x="470" 
d="M490 350l-201 -171l-31 38l156 133l-109 133l44 38zM321 350l-201 -171l-32 38l157 133l-110 133l45 38z" />
    <glyph glyph-name="one.fitted" horiz-adv-x="530" 
d="M112 0l10 58h115l102 577l-127 -21l11 59l201 31l-114 -646h116l-10 -58h-304z" />
    <glyph glyph-name="guilsinglright.case" horiz-adv-x="300" 
d="M321 350l-201 -171l-32 38l157 133l-110 133l45 38z" />
    <glyph glyph-name="hyphen.case" horiz-adv-x="340" 
d="M116 321l11 58h219l-11 -58h-219z" />
    <glyph glyph-name="endash.case" horiz-adv-x="500" 
d="M116 321l11 58h379l-11 -58h-379z" />
    <glyph glyph-name="emdash.case" horiz-adv-x="700" 
d="M116 321l11 58h579l-11 -58h-579z" />
    <glyph glyph-name="bar.case" 
d="M64 -50l141 800h73l-141 -800h-73z" />
    <glyph glyph-name="brokenbar.case" 
d="M64 -50l61 350h73l-61 -350h-73zM278 750l-62 -350h-73l62 350h73z" />
    <glyph glyph-name="asciitilde.case" horiz-adv-x="433" 
d="M138 299h-50q8 47 43.5 77t81.5 30q27 0 46 -10t28.5 -22t26 -22t36.5 -10q25 0 44 16.5t24 43.5h49q-8 -48 -43.5 -78t-82.5 -30q-27 0 -46 10t-28.5 22.5t-25.5 22.5t-36 10q-25 0 -44 -16.5t-23 -43.5z" />
    <glyph glyph-name="dagger.case" horiz-adv-x="500" 
d="M145 479l10 58h153l38 213h72l-38 -213h153l-10 -58h-152l-94 -529h-72l93 529h-153z" />
    <glyph glyph-name="daggerdbl.case" horiz-adv-x="500" 
d="M92 179l10 58h153l43 242h-153l10 58h153l38 213h72l-38 -213h153l-10 -58h-152l-43 -242h153l-11 -58h-152l-41 -229h-72l40 229h-153z" />
    <glyph glyph-name="bullet.case" horiz-adv-x="259" 
d="M119 350q6 30 30 50.5t54 20.5t47 -20.5t12 -50.5t-29.5 -50.5t-54.5 -20.5t-47 20.5t-12 50.5z" />
    <glyph glyph-name="A.smcp" horiz-adv-x="586" 
d="M478 0l-39 131h-248l-83 -131h-81l321 504h66l145 -504h-81zM365 413l-137 -219h198z" />
    <glyph glyph-name="Aacute.smcp" horiz-adv-x="586" 
d="M478 0l-39 131h-248l-83 -131h-81l321 504h66l145 -504h-81zM365 413l-137 -219h198zM340 562l115 95l29 -34l-116 -96z" />
    <glyph glyph-name="Abreve.smcp" horiz-adv-x="586" 
d="M478 0l-39 131h-248l-83 -131h-81l321 504h66l145 -504h-81zM365 413l-137 -219h198zM396 586q46 0 80 29l29 -34q-53 -45 -118 -45q-64 0 -101 45l40 34q24 -29 70 -29z" />
    <glyph glyph-name="Acircumflex.smcp" horiz-adv-x="586" 
d="M478 0l-39 131h-248l-83 -131h-81l321 504h66l145 -504h-81zM365 413l-137 -219h198zM408 657l82 -95l-41 -35l-53 62l-75 -62l-28 35z" />
    <glyph glyph-name="Agrave.smcp" horiz-adv-x="586" 
d="M478 0l-39 131h-248l-83 -131h-81l321 504h66l145 -504h-81zM365 413l-137 -219h198zM361 657l82 -95l-41 -35l-82 96z" />
    <glyph glyph-name="Adieresis.smcp" horiz-adv-x="586" 
d="M478 0l-39 131h-248l-83 -131h-81l321 504h66l145 -504h-81zM365 413l-137 -219h198zM283 575q2 16 15.5 28t30.5 12t26.5 -11.5t7.5 -28.5q-3 -17 -17 -28.5t-31 -11.5t-26.5 11.5t-5.5 28.5zM424 575q3 17 17 28.5t31 11.5t26.5 -11.5t7.5 -28.5q-4 -17 -17.5 -28.5
t-30.5 -11.5t-27 11.5t-7 28.5z" />
    <glyph glyph-name="Amacron.smcp" horiz-adv-x="586" 
d="M478 0l-39 131h-248l-83 -131h-81l321 504h66l145 -504h-81zM365 413l-137 -219h198zM295 549l7 42h189l-7 -42h-189z" />
    <glyph glyph-name="Aogonek.smcp" horiz-adv-x="586" 
d="M499 -26q-3 -18 6 -28.5t27 -10.5q19 0 30 10l20 -23q-23 -20 -56 -20q-32 0 -49 19.5t-11 51.5q3 17 12 27l-39 131h-248l-83 -131h-81l321 504h66l145 -504h-48q-8 -10 -12 -26zM365 413l-137 -219h198z" />
    <glyph glyph-name="Aring.smcp" horiz-adv-x="586" 
d="M478 0l-39 131h-248l-83 -131h-81l321 504h66l145 -504h-81zM365 413l-137 -219h198zM329 588q5 30 27 48t52 18q31 0 45.5 -18t9.5 -48t-26.5 -48t-52.5 -18q-29 0 -44.5 18t-10.5 48zM359 587q-2 -16 6.5 -25.5t24.5 -9.5q17 0 29 9.5t14 25.5q3 16 -5.5 26t-25.5 10
q-16 0 -28 -10t-15 -26z" />
    <glyph glyph-name="Atilde.smcp" horiz-adv-x="586" 
d="M478 0l-39 131h-248l-83 -131h-81l321 504h66l145 -504h-81zM365 413l-137 -219h198zM319 546h-38q4 30 26.5 49t52.5 19q24 0 42.5 -16.5t32.5 -16.5q13 0 23 8.5t12 21.5h39q-6 -31 -28.5 -49.5t-52.5 -18.5q-24 0 -42 16.5t-32 16.5q-30 0 -35 -30z" />
    <glyph glyph-name="AE.smcp" horiz-adv-x="602" 
d="M441 446l-29 -164h171l-10 -58h-171l-29 -166h198l-10 -58h-268l22 131h-124l-83 -131h-81l321 504h297l-10 -58h-194zM228 194h99l38 221z" />
    <glyph glyph-name="AEacute.smcp" horiz-adv-x="602" 
d="M441 446l-29 -164h171l-10 -58h-171l-29 -166h198l-10 -58h-268l22 131h-124l-83 -131h-81l321 504h297l-10 -58h-194zM228 194h99l38 221zM367 562l116 95l28 -34l-116 -96z" />
    <glyph glyph-name="B.smcp" horiz-adv-x="432" 
d="M61 0l88 504h151q65 0 98 -36t23 -96q-12 -70 -75 -106q37 -14 53.5 -47t8.5 -78q-10 -64 -59.5 -102.5t-118.5 -38.5h-169zM339 146q7 37 -13 60.5t-58 23.5h-94l-30 -169h94q39 0 66.5 23t34.5 62zM350 367q6 34 -11.5 55t-52.5 21h-74l-27 -152h74q35 0 60 21t31 55z
" />
    <glyph glyph-name="C.smcp" horiz-adv-x="543" 
d="M162 252q-16 -87 29.5 -141t132.5 -54q92 0 154 53l38 -44q-86 -72 -206 -72q-119 0 -180 71.5t-41 186.5t106.5 186.5t205.5 71.5q118 0 180 -72l-53 -45q-44 54 -135 54q-87 0 -151 -54t-80 -141z" />
    <glyph glyph-name="Cacute.smcp" horiz-adv-x="543" 
d="M162 252q-16 -87 29.5 -141t132.5 -54q92 0 154 53l38 -44q-86 -72 -206 -72q-119 0 -180 71.5t-41 186.5t106.5 186.5t205.5 71.5q118 0 180 -72l-53 -45q-44 54 -135 54q-87 0 -151 -54t-80 -141zM342 564l116 96l28 -35l-115 -95z" />
    <glyph glyph-name="Ccaron.smcp" horiz-adv-x="543" 
d="M162 252q-16 -87 29.5 -141t132.5 -54q92 0 154 53l38 -44q-86 -72 -206 -72q-119 0 -180 71.5t-41 186.5t106.5 186.5t205.5 71.5q118 0 180 -72l-53 -45q-44 54 -135 54q-87 0 -151 -54t-80 -141zM386 527l-81 96l40 34l54 -61l75 61l28 -34z" />
    <glyph glyph-name="Ccedilla.smcp" horiz-adv-x="543" 
d="M162 252q-16 -87 29.5 -141t132.5 -54q92 0 154 53l38 -44q-80 -67 -192 -72l-7 -34q47 -11 40 -57q-4 -27 -25 -44t-50 -17q-30 0 -44 19l25 21q14 -10 25 -10q14 0 25.5 9t13.5 23q5 32 -43 32l11 58q-112 4 -169 75.5t-37 182.5q20 115 106.5 186.5t205.5 71.5
q118 0 180 -72l-53 -45q-44 54 -135 54q-87 0 -151 -54t-80 -141z" />
    <glyph glyph-name="Ccircumflex.smcp" horiz-adv-x="543" 
d="M162 252q-16 -87 29.5 -141t132.5 -54q92 0 154 53l38 -44q-86 -72 -206 -72q-119 0 -180 71.5t-41 186.5t106.5 186.5t205.5 71.5q118 0 180 -72l-53 -45q-44 54 -135 54q-87 0 -151 -54t-80 -141zM411 657l83 -95l-42 -35l-53 62l-75 -62l-28 35z" />
    <glyph glyph-name="Cdotaccent.smcp" horiz-adv-x="543" 
d="M162 252q-16 -87 29.5 -141t132.5 -54q92 0 154 53l38 -44q-86 -72 -206 -72q-119 0 -180 71.5t-41 186.5t106.5 186.5t205.5 71.5q118 0 180 -72l-53 -45q-44 54 -135 54q-87 0 -151 -54t-80 -141zM356 584q3 18 17.5 30.5t32.5 12.5t28.5 -12.5t7.5 -30.5
q-3 -17 -18 -29.5t-33 -12.5t-28 12.5t-7 29.5z" />
    <glyph glyph-name="D.smcp" horiz-adv-x="541" 
d="M61 0l88 504h169q119 0 180.5 -69t41.5 -183t-105.5 -183t-204.5 -69h-169zM467 252q15 87 -29 139t-131 52h-95l-68 -382h96q87 0 149 52t78 139z" />
    <glyph glyph-name="Dcaron.smcp" horiz-adv-x="541" 
d="M61 0l88 504h169q119 0 180.5 -69t41.5 -183t-105.5 -183t-204.5 -69h-169zM467 252q15 87 -29 139t-131 52h-95l-68 -382h96q87 0 149 52t78 139zM355 527l-81 96l40 34l54 -61l74 61l29 -34z" />
    <glyph glyph-name="Dcroat.smcp" horiz-adv-x="549" 
d="M80 225l9 54h38l40 225h159q120 0 181 -69t41 -183t-105 -183t-205 -69h-159l39 225h-38zM475 252q15 87 -29 139t-131 52h-86l-29 -164h114l-10 -54h-113l-29 -164h86q87 0 149 52t78 139z" />
    <glyph glyph-name="Eth.smcp" horiz-adv-x="549" 
d="M80 225l9 54h38l40 225h159q120 0 181 -69t41 -183t-105 -183t-205 -69h-159l39 225h-38zM475 252q15 87 -29 139t-131 52h-86l-29 -164h114l-10 -54h-113l-29 -164h86q87 0 149 52t78 139z" />
    <glyph glyph-name="Thorn.smcp" horiz-adv-x="412" 
d="M61 0l88 504h73l-18 -101h75q72 0 108.5 -39.5t24.5 -105.5q-11 -66 -61.5 -105t-122.5 -39h-75l-19 -114h-73zM340 258q7 38 -13 61.5t-58 23.5h-75l-30 -168h75q38 0 66 23t35 60z" />
    <glyph glyph-name="E.smcp" horiz-adv-x="388" 
d="M210 446l-29 -164h186l-10 -58h-187l-29 -166h214l-10 -58h-284l88 504h281l-10 -58h-210z" />
    <glyph glyph-name="Eacute.smcp" horiz-adv-x="388" 
d="M210 446l-29 -164h186l-10 -58h-187l-29 -166h214l-10 -58h-284l88 504h281l-10 -58h-210zM249 562l115 95l29 -34l-116 -96z" />
    <glyph glyph-name="Ebreve.smcp" horiz-adv-x="388" 
d="M210 446l-29 -164h186l-10 -58h-187l-29 -166h214l-10 -58h-284l88 504h281l-10 -58h-210zM305 586q46 0 80 29l28 -34q-53 -45 -117 -45t-102 45l40 34q26 -29 71 -29z" />
    <glyph glyph-name="Ecaron.smcp" horiz-adv-x="388" 
d="M210 446l-29 -164h186l-10 -58h-187l-29 -166h214l-10 -58h-284l88 504h281l-10 -58h-210zM294 527l-82 96l41 34l53 -61l75 61l29 -34z" />
    <glyph glyph-name="Ecircumflex.smcp" horiz-adv-x="388" 
d="M210 446l-29 -164h186l-10 -58h-187l-29 -166h214l-10 -58h-284l88 504h281l-10 -58h-210zM317 657l82 -95l-41 -35l-53 62l-75 -62l-28 35z" />
    <glyph glyph-name="Edieresis.smcp" horiz-adv-x="388" 
d="M210 446l-29 -164h186l-10 -58h-187l-29 -166h214l-10 -58h-284l88 504h281l-10 -58h-210zM191 575q3 17 17 28.5t30 11.5q17 0 26.5 -11.5t7.5 -28.5q-4 -17 -17.5 -28.5t-30.5 -11.5t-26.5 11.5t-6.5 28.5zM333 575q3 17 17 28.5t30 11.5q17 0 27 -11.5t7 -28.5
t-17 -28.5t-31 -11.5t-26.5 11.5t-6.5 28.5z" />
    <glyph glyph-name="Edotaccent.smcp" horiz-adv-x="388" 
d="M210 446l-29 -164h186l-10 -58h-187l-29 -166h214l-10 -58h-284l88 504h281l-10 -58h-210zM262 584q3 18 17.5 30.5t32.5 12.5t28.5 -12.5t6.5 -30.5q-3 -17 -17.5 -29.5t-32.5 -12.5t-28 12.5t-7 29.5z" />
    <glyph glyph-name="Egrave.smcp" horiz-adv-x="388" 
d="M210 446l-29 -164h186l-10 -58h-187l-29 -166h214l-10 -58h-284l88 504h281l-10 -58h-210zM270 657l82 -95l-41 -35l-81 96z" />
    <glyph glyph-name="Emacron.smcp" horiz-adv-x="388" 
d="M210 446l-29 -164h186l-10 -58h-187l-29 -166h214l-10 -58h-284l88 504h281l-10 -58h-210zM203 549l8 42h189l-8 -42h-189z" />
    <glyph glyph-name="Eogonek.smcp" horiz-adv-x="388" 
d="M258 -26q-4 -18 5 -28.5t27 -10.5t31 10l20 -23q-25 -20 -56 -20q-33 0 -50 19.5t-11 51.5q3 17 12 27h-175l88 504h281l-10 -58h-210l-29 -164h186l-10 -58h-187l-29 -166h214l-10 -58h-75q-10 -12 -12 -26z" />
    <glyph glyph-name="F.smcp" horiz-adv-x="370" 
d="M210 446l-29 -164h175l-10 -58h-176l-39 -224h-70l88 504h270l-10 -58h-199z" />
    <glyph glyph-name="G.smcp" horiz-adv-x="566" 
d="M348 213l10 58h194l-36 -205q-86 -72 -206 -72q-119 0 -180 71.5t-41 186.5t106.5 186.5t205.5 71.5q118 0 180 -72l-53 -45q-44 54 -135 54q-87 0 -151 -54t-80 -141t29.5 -141t132.5 -54q71 0 125 34l22 122h-123z" />
    <glyph glyph-name="Gbreve.smcp" horiz-adv-x="566" 
d="M348 213l10 58h194l-36 -205q-86 -72 -206 -72q-119 0 -180 71.5t-41 186.5t106.5 186.5t205.5 71.5q118 0 180 -72l-53 -45q-44 54 -135 54q-87 0 -151 -54t-80 -141t29.5 -141t132.5 -54q71 0 125 34l22 122h-123zM413 586q46 0 80 29l29 -34q-53 -45 -118 -45
q-64 0 -101 45l40 34q26 -29 70 -29z" />
    <glyph glyph-name="Gcircumflex.smcp" horiz-adv-x="566" 
d="M348 213l10 58h194l-36 -205q-86 -72 -206 -72q-119 0 -180 71.5t-41 186.5t106.5 186.5t205.5 71.5q118 0 180 -72l-53 -45q-44 54 -135 54q-87 0 -151 -54t-80 -141t29.5 -141t132.5 -54q71 0 125 34l22 122h-123zM426 657l82 -95l-41 -35l-53 62l-76 -62l-27 35z" />
    <glyph glyph-name="Gcommaaccent.smcp" horiz-adv-x="566" 
d="M348 213l10 58h194l-36 -205q-86 -72 -206 -72q-119 0 -180 71.5t-41 186.5t106.5 186.5t205.5 71.5q118 0 180 -72l-53 -45q-44 54 -135 54q-87 0 -151 -54t-80 -141t29.5 -141t132.5 -54q71 0 125 34l22 122h-123zM254 -168l-15 19q32 28 40 48q-12 1 -18.5 11t-4.5 22
q2 15 14.5 25.5t27.5 10.5q14 0 22.5 -9.5t5.5 -30.5q-7 -42 -72 -96z" />
    <glyph glyph-name="Gdotaccent.smcp" horiz-adv-x="566" 
d="M348 213l10 58h194l-36 -205q-86 -72 -206 -72q-119 0 -180 71.5t-41 186.5t106.5 186.5t205.5 71.5q118 0 180 -72l-53 -45q-44 54 -135 54q-87 0 -151 -54t-80 -141t29.5 -141t132.5 -54q71 0 125 34l22 122h-123zM370 584q3 18 17.5 30.5t32.5 12.5t28.5 -12.5
t7.5 -30.5q-3 -17 -18 -29.5t-33 -12.5t-28 12.5t-7 29.5z" />
    <glyph glyph-name="H.smcp" horiz-adv-x="535" 
d="M219 504l-38 -222h272l39 222h70l-88 -504h-70l39 224h-273l-39 -224h-70l88 504h70z" />
    <glyph glyph-name="Hbar.smcp" horiz-adv-x="545" 
d="M81 0l63 364h-43l10 54h43l15 86h70l-15 -86h238l15 86h70l-14 -86h47l-9 -54h-48l-64 -364h-70l39 224h-238l-39 -224h-70zM201 282h237l15 82h-238z" />
    <glyph glyph-name="Hcircumflex.smcp" horiz-adv-x="535" 
d="M219 504l-38 -222h272l39 222h70l-88 -504h-70l39 224h-273l-39 -224h-70l88 504h70zM383 657l82 -95l-41 -35l-53 62l-75 -62l-28 35z" />
    <glyph glyph-name="I.smcp" horiz-adv-x="189" 
d="M59 0l88 504h71l-88 -504h-71z" />
    <glyph glyph-name="Iacute.smcp" horiz-adv-x="189" 
d="M59 0l88 504h71l-88 -504h-71zM142 562l115 95l29 -34l-116 -96z" />
    <glyph glyph-name="Ibreve.smcp" horiz-adv-x="190" 
d="M60 0l88 504h70l-88 -504h-70zM198 586q46 0 80 29l29 -34q-53 -45 -118 -45q-64 0 -101 45l40 34q26 -29 70 -29z" />
    <glyph glyph-name="Icircumflex.smcp" horiz-adv-x="190" 
d="M59 0l88 504h71l-88 -504h-71zM210 657l82 -95l-41 -35l-53 62l-75 -62l-28 35z" />
    <glyph glyph-name="Idieresis.smcp" horiz-adv-x="190" 
d="M60 0l88 504h70l-88 -504h-70zM94 575q3 17 17 28.5t31 11.5t26.5 -12t6.5 -28q-3 -17 -16.5 -28.5t-30.5 -11.5t-27 11.5t-7 28.5zM216 575q3 17 17 28.5t30 11.5q17 0 27 -11.5t8 -28.5q-4 -17 -18 -28.5t-31 -11.5t-26.5 11.5t-6.5 28.5z" />
    <glyph glyph-name="Idotaccent.smcp" horiz-adv-x="190" 
d="M60 0l88 504h70l-88 -504h-70zM154 584q4 18 18 30.5t32 12.5q19 0 29 -12.5t7 -30.5q-3 -17 -17.5 -29.5t-33.5 -12.5q-18 0 -28 12.5t-7 29.5z" />
    <glyph glyph-name="Igrave.smcp" horiz-adv-x="189" 
d="M59 0l88 504h71l-88 -504h-71zM163 657l82 -95l-41 -35l-81 96z" />
    <glyph glyph-name="Imacron.smcp" horiz-adv-x="190" 
d="M60 0l88 504h70l-88 -504h-70zM97 549l7 42h189l-7 -42h-189z" />
    <glyph glyph-name="Iogonek.smcp" horiz-adv-x="190" 
d="M59 0l88 504h71l-88 -504h-71zM81 -26q-4 -18 5.5 -28.5t26.5 -10.5q19 0 30 10l21 -23q-25 -20 -56 -20q-32 0 -49 19.5t-11 51.5q1 16 11 27h34q-8 -10 -12 -26z" />
    <glyph glyph-name="Itilde.smcp" horiz-adv-x="189" 
d="M59 0l88 504h71l-88 -504h-71zM121 546h-38q5 30 27 49t52 19q24 0 42.5 -16.5t32.5 -16.5q13 0 23 8.5t12 21.5h38q-5 -31 -27.5 -49.5t-52.5 -18.5q-24 0 -42 16.5t-32 16.5q-13 0 -23 -8.5t-12 -21.5z" />
    <glyph glyph-name="IJ.smcp" horiz-adv-x="394" 
d="M92 180l57 324h70l-57 -324h-70zM289 140l63 364h71l-64 -364q-12 -65 -61 -105.5t-116 -40.5t-103 41l53 45q18 -23 58 -23q37 0 64.5 23t34.5 60z" />
    <glyph glyph-name="J.smcp" horiz-adv-x="359" 
d="M253 140l64 364h70l-63 -364q-12 -65 -61.5 -105.5t-116.5 -40.5q-68 0 -102 41l53 45q18 -23 57 -23q38 0 65 23t34 60z" />
    <glyph glyph-name="Jcircumflex.smcp" horiz-adv-x="358" 
d="M253 140l64 364h70l-63 -364q-12 -65 -61.5 -105.5t-116.5 -40.5q-68 0 -102 41l53 45q18 -23 57 -23q38 0 65 23t34 60zM379 657l82 -95l-41 -35l-53 62l-76 -62l-27 35z" />
    <glyph glyph-name="K.smcp" horiz-adv-x="474" 
d="M59 0l88 504h71l-88 -504h-71zM355 0l-177 259l250 245h89l-251 -245l180 -259h-91z" />
    <glyph glyph-name="Kcommaaccent.smcp" horiz-adv-x="474" 
d="M59 0l88 504h71l-88 -504h-71zM355 0l-177 259l250 245h89l-251 -245l180 -259h-91zM189 -168l-16 19q33 27 40 48q-12 1 -18.5 11t-4.5 22q3 15 15 25.5t27 10.5q14 0 23 -9.5t5 -30.5q-6 -42 -71 -96z" />
    <glyph glyph-name="L.smcp" horiz-adv-x="368" 
d="M219 504l-78 -446h199l-10 -58h-269l88 504h70z" />
    <glyph glyph-name="Lacute.smcp" horiz-adv-x="368" 
d="M219 504l-78 -446h199l-10 -58h-269l88 504h70zM216 562l115 95l29 -34l-116 -96z" />
    <glyph glyph-name="Lcaron.smcp" horiz-adv-x="368" 
d="M219 504l-78 -446h199l-10 -58h-269l88 504h70zM188 527l-81 96l40 34l54 -61l75 61l29 -34z" />
    <glyph glyph-name="Lcommaaccent.smcp" horiz-adv-x="368" 
d="M219 504l-78 -446h199l-10 -58h-269l88 504h70zM146 -168l-15 19q30 27 39 48q-12 1 -18.5 11t-4.5 22q3 15 15 25.5t27 10.5t23.5 -9.5t5.5 -30.5q-7 -42 -72 -96z" />
    <glyph glyph-name="Ldot.smcp" horiz-adv-x="368" 
d="M219 504l-78 -446h199l-10 -58h-269l88 504h70zM271 234q3 18 17 30.5t32 12.5t29 -12.5t8 -30.5q-4 -18 -18.5 -30.5t-32.5 -12.5t-28 12.5t-7 30.5z" />
    <glyph glyph-name="Lslash.smcp" horiz-adv-x="396" 
d="M43 163l87 71l47 270h71l-38 -215l74 60l28 -34l-114 -95l-29 -162h199l-10 -58h-269l29 166l-46 -38z" />
    <glyph glyph-name="M.smcp" horiz-adv-x="622" 
d="M491 0l63 360l-210 -250h-28l-121 250l-64 -360h-70l88 504h53l145 -293l249 293h53l-88 -504h-70z" />
    <glyph glyph-name="N.smcp" horiz-adv-x="553" 
d="M149 504h46l250 -370l64 370h71l-88 -504h-46l-250 370l-65 -370h-70z" />
    <glyph glyph-name="Nacute.smcp" horiz-adv-x="553" 
d="M149 504h46l250 -370l64 370h71l-88 -504h-46l-250 370l-65 -370h-70zM323 562l116 95l28 -34l-116 -96z" />
    <glyph glyph-name="Ncaron.smcp" horiz-adv-x="553" 
d="M149 504h46l250 -370l64 370h71l-88 -504h-46l-250 370l-65 -370h-70zM368 527l-81 96l40 34l54 -61l75 61l28 -34z" />
    <glyph glyph-name="Ncommaaccent.smcp" horiz-adv-x="553" 
d="M149 504h46l250 -370l64 370h71l-88 -504h-46l-250 370l-65 -370h-70zM228 -168l-16 19q32 27 41 48q-13 1 -19.5 11t-4.5 22q3 15 15 25.5t28 10.5q14 0 22.5 -9.5t5.5 -30.5q-7 -42 -72 -96z" />
    <glyph glyph-name="Ntilde.smcp" horiz-adv-x="553" 
d="M149 504h46l250 -370l64 370h71l-88 -504h-46l-250 370l-65 -370h-70zM302 546h-38q5 30 27 49t52 19q24 0 42.5 -16.5t32.5 -16.5q13 0 23 8.5t12 21.5h38q-5 -31 -27.5 -49.5t-52.5 -18.5q-24 0 -42 16.5t-32 16.5q-13 0 -23 -8.5t-12 -21.5z" />
    <glyph glyph-name="Eng.smcp" horiz-adv-x="553" 
d="M351 -180l8 45q38 0 44 36l23 127l-230 342l-65 -370h-70l88 504h46l250 -370l64 370h71l-107 -605q-6 -37 -32 -59.5t-63 -22.5q-19 0 -27 3z" />
    <glyph glyph-name="O.smcp" horiz-adv-x="623" 
d="M89 252q20 115 106.5 186.5t205.5 71.5q118 0 179 -71.5t41 -186.5t-106.5 -186.5t-204.5 -71.5q-119 0 -180 71.5t-41 186.5zM162 252q-16 -87 28 -141t130 -54t149.5 54t78.5 141q16 87 -28.5 141t-130.5 54t-148.5 -54t-78.5 -141z" />
    <glyph glyph-name="Oacute.smcp" horiz-adv-x="623" 
d="M89 252q20 115 106.5 186.5t205.5 71.5q118 0 179 -71.5t41 -186.5t-106.5 -186.5t-204.5 -71.5q-119 0 -180 71.5t-41 186.5zM162 252q-16 -87 28 -141t130 -54t149.5 54t78.5 141q16 87 -28.5 141t-130.5 54t-148.5 -54t-78.5 -141zM358 562l116 95l28 -34l-116 -96z
" />
    <glyph glyph-name="Obreve.smcp" horiz-adv-x="623" 
d="M89 252q20 115 106.5 186.5t205.5 71.5q118 0 179 -71.5t41 -186.5t-106.5 -186.5t-204.5 -71.5q-119 0 -180 71.5t-41 186.5zM162 252q-16 -87 28 -141t130 -54t149.5 54t78.5 141q16 87 -28.5 141t-130.5 54t-148.5 -54t-78.5 -141zM414 586q46 0 80 29l29 -34
q-53 -45 -118 -45q-63 0 -101 45l40 34q26 -29 70 -29z" />
    <glyph glyph-name="Ocircumflex.smcp" horiz-adv-x="623" 
d="M89 252q20 115 106.5 186.5t205.5 71.5q118 0 179 -71.5t41 -186.5t-106.5 -186.5t-204.5 -71.5q-119 0 -180 71.5t-41 186.5zM162 252q-16 -87 28 -141t130 -54t149.5 54t78.5 141q16 87 -28.5 141t-130.5 54t-148.5 -54t-78.5 -141zM426 657l83 -95l-41 -35l-54 62
l-75 -62l-28 35z" />
    <glyph glyph-name="Odieresis.smcp" horiz-adv-x="623" 
d="M89 252q20 115 106.5 186.5t205.5 71.5q118 0 179 -71.5t41 -186.5t-106.5 -186.5t-204.5 -71.5q-119 0 -180 71.5t-41 186.5zM162 252q-16 -87 28 -141t130 -54t149.5 54t78.5 141q16 87 -28.5 141t-130.5 54t-148.5 -54t-78.5 -141zM301 575q2 16 16 28t31 12t26.5 -12
t6.5 -28q-3 -17 -16.5 -28.5t-30.5 -11.5t-27 11.5t-6 28.5zM443 575q2 16 16 28t31 12t27 -11.5t7 -28.5t-17 -28.5t-31 -11.5t-27 11.5t-6 28.5z" />
    <glyph glyph-name="Ograve.smcp" horiz-adv-x="623" 
d="M89 252q20 115 106.5 186.5t205.5 71.5q118 0 179 -71.5t41 -186.5t-106.5 -186.5t-204.5 -71.5q-119 0 -180 71.5t-41 186.5zM162 252q-16 -87 28 -141t130 -54t149.5 54t78.5 141q16 87 -28.5 141t-130.5 54t-148.5 -54t-78.5 -141zM379 657l83 -95l-41 -35l-82 96z
" />
    <glyph glyph-name="Ohungarumlaut.smcp" horiz-adv-x="623" 
d="M89 252q20 115 106.5 186.5t205.5 71.5q118 0 179 -71.5t41 -186.5t-106.5 -186.5t-204.5 -71.5q-119 0 -180 71.5t-41 186.5zM162 252q-16 -87 28 -141t130 -54t149.5 54t78.5 141q16 87 -28.5 141t-130.5 54t-148.5 -54t-78.5 -141zM300 562l115 95l29 -34l-116 -96z
M417 562l115 95l29 -34l-116 -96z" />
    <glyph glyph-name="Omacron.smcp" horiz-adv-x="623" 
d="M89 252q20 115 106.5 186.5t205.5 71.5q118 0 179 -71.5t41 -186.5t-106.5 -186.5t-204.5 -71.5q-119 0 -180 71.5t-41 186.5zM162 252q-16 -87 28 -141t130 -54t149.5 54t78.5 141q16 87 -28.5 141t-130.5 54t-148.5 -54t-78.5 -141zM313 549l7 42h189l-7 -42h-189z" />
    <glyph glyph-name="Oslash.smcp" horiz-adv-x="622" 
d="M43 -6l82 77q-55 71 -36 181q20 115 106.5 186.5t205.5 71.5q87 0 148 -43l46 43h72l-83 -77q57 -71 37 -181q-20 -115 -106.5 -186.5t-204.5 -71.5q-91 0 -149 43l-46 -43h-72zM162 252q-15 -76 19 -129l314 293q-42 31 -106 31q-86 0 -149 -54t-78 -141zM548 252
q13 76 -20 128l-313 -293q43 -30 105 -30q86 0 149 54t79 141z" />
    <glyph glyph-name="Oslashacute.smcp" horiz-adv-x="622" 
d="M43 -6l82 77q-55 71 -36 181q20 115 106.5 186.5t205.5 71.5q87 0 148 -43l46 43h72l-83 -77q57 -71 37 -181q-20 -115 -106.5 -186.5t-204.5 -71.5q-91 0 -149 43l-46 -43h-72zM162 252q-15 -76 19 -129l314 293q-42 31 -106 31q-86 0 -149 -54t-78 -141zM548 252
q13 76 -20 128l-313 -293q43 -30 105 -30q86 0 149 54t79 141zM358 562l115 95l29 -34l-116 -96z" />
    <glyph glyph-name="Otilde.smcp" horiz-adv-x="623" 
d="M89 252q20 115 106.5 186.5t205.5 71.5q118 0 179 -71.5t41 -186.5t-106.5 -186.5t-204.5 -71.5q-119 0 -180 71.5t-41 186.5zM162 252q-16 -87 28 -141t130 -54t149.5 54t78.5 141q16 87 -28.5 141t-130.5 54t-148.5 -54t-78.5 -141zM337 546h-38q5 30 27 49t52 19
q24 0 42.5 -16.5t32.5 -16.5q29 0 36 30h37q-5 -30 -27 -49t-52 -19q-25 0 -43 16.5t-32 16.5q-13 0 -23 -8.5t-12 -21.5z" />
    <glyph glyph-name="OE.smcp" horiz-adv-x="681" 
d="M521 446l-29 -164h171l-10 -58h-171l-30 -166h198l-9 -58h-266q-44 -6 -65 -6q-119 0 -180 71.5t-41 186.5t106.5 186.5t205.5 71.5q23 0 61 -6h263l-10 -58h-194zM320 57q31 0 64 10l65 370q-30 10 -60 10q-86 0 -148.5 -54t-78.5 -141t28 -141t130 -54z" />
    <glyph glyph-name="P.smcp" horiz-adv-x="412" 
d="M61 0l88 504h148q71 0 108 -39.5t25 -105.5q-11 -66 -61.5 -105.5t-122.5 -39.5h-75l-37 -214h-73zM358 359q7 38 -13 61t-59 23h-74l-30 -168h74q39 0 67 23t35 61z" />
    <glyph glyph-name="Q.smcp" horiz-adv-x="623" 
d="M537 -17l-52 61q-78 -50 -175 -50q-119 0 -180 71.5t-41 186.5t106.5 186.5t205.5 71.5q118 0 179 -71.5t41 -186.5q-16 -94 -84 -164l53 -60zM162 252q-16 -87 28 -141t130 -54q75 0 126 32l-67 77l52 45l62 -71q45 48 55 112q16 87 -28.5 141t-130.5 54t-148.5 -54
t-78.5 -141z" />
    <glyph glyph-name="R.smcp" horiz-adv-x="425" 
d="M316 0l-80 214h-65l-37 -214h-73l88 504h154q72 0 108.5 -39.5t25.5 -105.5q-10 -52 -44.5 -88t-85.5 -50l90 -221h-81zM364 359q6 38 -13.5 61t-57.5 23h-81l-30 -168h81q38 0 66 23.5t35 60.5z" />
    <glyph glyph-name="Racute.smcp" horiz-adv-x="425" 
d="M316 0l-80 214h-65l-37 -214h-73l88 504h154q72 0 108.5 -39.5t25.5 -105.5q-10 -52 -44.5 -88t-85.5 -50l90 -221h-81zM364 359q6 38 -13.5 61t-57.5 23h-81l-30 -168h81q38 0 66 23.5t35 60.5zM255 562l115 95l29 -34l-117 -96z" />
    <glyph glyph-name="Rcaron.smcp" horiz-adv-x="425" 
d="M316 0l-80 214h-65l-37 -214h-73l88 504h154q72 0 108.5 -39.5t25.5 -105.5q-10 -52 -44.5 -88t-85.5 -50l90 -221h-81zM364 359q6 38 -13.5 61t-57.5 23h-81l-30 -168h81q38 0 66 23.5t35 60.5zM299 527l-81 96l41 34l53 -61l75 61l29 -34z" />
    <glyph glyph-name="Rcommaaccent.smcp" horiz-adv-x="425" 
d="M316 0l-80 214h-65l-37 -214h-73l88 504h154q72 0 108.5 -39.5t25.5 -105.5q-10 -52 -44.5 -88t-85.5 -50l90 -221h-81zM364 359q6 38 -13.5 61t-57.5 23h-81l-30 -168h81q38 0 66 23.5t35 60.5zM164 -168l-16 19q31 25 41 48q-13 1 -19.5 11t-4.5 22q3 15 15.5 25.5
t27.5 10.5t23.5 -9.5t4.5 -30.5q-7 -44 -72 -96z" />
    <glyph glyph-name="S.smcp" horiz-adv-x="424" 
d="M439 447l-52 -44q-37 44 -99 44q-42 0 -67.5 -23.5t-30.5 -52.5t17.5 -48.5t56.5 -32t68 -28t54.5 -45.5t12.5 -75q-11 -62 -61.5 -105t-129.5 -43q-101 0 -158 70l51 44q43 -51 111 -51q48 0 78 26t36 57q4 24 -11.5 41.5t-41.5 27t-56 23t-55 28t-38.5 43t-6.5 67.5
q10 59 56.5 99.5t118.5 40.5q93 0 147 -63z" />
    <glyph glyph-name="Sacute.smcp" horiz-adv-x="424" 
d="M439 447l-52 -44q-37 44 -99 44q-42 0 -67.5 -23.5t-30.5 -52.5t17.5 -48.5t56.5 -32t68 -28t54.5 -45.5t12.5 -75q-11 -62 -61.5 -105t-129.5 -43q-101 0 -158 70l51 44q43 -51 111 -51q48 0 78 26t36 57q4 24 -11.5 41.5t-41.5 27t-56 23t-55 28t-38.5 43t-6.5 67.5
q10 59 56.5 99.5t118.5 40.5q93 0 147 -63zM251 562l115 95l28 -34l-116 -96z" />
    <glyph glyph-name="Scaron.smcp" horiz-adv-x="424" 
d="M439 447l-52 -44q-37 44 -99 44q-42 0 -67.5 -23.5t-30.5 -52.5t17.5 -48.5t56.5 -32t68 -28t54.5 -45.5t12.5 -75q-11 -62 -61.5 -105t-129.5 -43q-101 0 -158 70l51 44q43 -51 111 -51q48 0 78 26t36 57q4 24 -11.5 41.5t-41.5 27t-56 23t-55 28t-38.5 43t-6.5 67.5
q10 59 56.5 99.5t118.5 40.5q93 0 147 -63zM295 527l-81 96l40 34l54 -61l75 61l29 -34z" />
    <glyph glyph-name="Scedilla.smcp" horiz-adv-x="424" 
d="M439 447l-52 -44q-37 44 -99 44q-42 0 -67.5 -23.5t-30.5 -52.5t17.5 -48.5t56.5 -32t68 -28t54.5 -45.5t12.5 -75q-11 -60 -57.5 -101.5t-118.5 -45.5l-7 -35q48 -12 39 -57q-5 -27 -25.5 -44t-49.5 -17q-27 0 -43 19l25 21q12 -10 24 -10q33 0 40 32q5 32 -43 32l11 59
q-92 5 -144 69l51 44q43 -51 111 -51q48 0 78 26t36 57q4 24 -11.5 41.5t-41.5 27t-56 23t-55 28t-38.5 43t-6.5 67.5q10 59 56.5 99.5t118.5 40.5q93 0 147 -63z" />
    <glyph glyph-name="Scircumflex.smcp" horiz-adv-x="424" 
d="M439 447l-52 -44q-37 44 -99 44q-42 0 -67.5 -23.5t-30.5 -52.5t17.5 -48.5t56.5 -32t68 -28t54.5 -45.5t12.5 -75q-11 -62 -61.5 -105t-129.5 -43q-101 0 -158 70l51 44q43 -51 111 -51q48 0 78 26t36 57q4 24 -11.5 41.5t-41.5 27t-56 23t-55 28t-38.5 43t-6.5 67.5
q10 59 56.5 99.5t118.5 40.5q93 0 147 -63zM319 657l83 -95l-42 -35l-54 62l-75 -62l-27 35z" />
    <glyph glyph-name="Scommaaccent.smcp" horiz-adv-x="424" 
d="M439 447l-52 -44q-37 44 -99 44q-42 0 -67.5 -23.5t-30.5 -52.5t17.5 -48.5t56.5 -32t68 -28t54.5 -45.5t12.5 -75q-11 -62 -61.5 -105t-129.5 -43q-101 0 -158 70l51 44q43 -51 111 -51q48 0 78 26t36 57q4 24 -11.5 41.5t-41.5 27t-56 23t-55 28t-38.5 43t-6.5 67.5
q10 59 56.5 99.5t118.5 40.5q93 0 147 -63zM162 -168l-16 19q31 26 40 48q-12 1 -18.5 11t-4.5 22q3 15 15 25.5t27 10.5t23.5 -9.5t4.5 -30.5q-7 -43 -71 -96z" />
    <glyph glyph-name="T.smcp" horiz-adv-x="438" 
d="M332 446l-78 -446h-70l78 446h-146l10 58h362l-10 -58h-146z" />
    <glyph glyph-name="Tbar.smcp" horiz-adv-x="438" 
d="M120 240l9 53h106l27 153h-146l10 58h362l-10 -58h-146l-27 -153h106l-10 -53h-105l-42 -240h-70l41 240h-105z" />
    <glyph glyph-name="Tcaron.smcp" horiz-adv-x="438" 
d="M332 446l-78 -446h-70l78 446h-146l10 58h362l-10 -58h-146zM311 527l-82 96l41 34l54 -61l74 61l29 -34z" />
    <glyph glyph-name="Tcommaaccent.smcp" horiz-adv-x="438" 
d="M332 446l-78 -446h-70l78 446h-146l10 58h362l-10 -58h-146zM170 -168l-15 19q33 27 40 48q-12 1 -18.5 11t-4.5 22q3 15 15 25.5t28 10.5q13 0 21.5 -9.5t5.5 -30.5q-7 -44 -72 -96z" />
    <glyph glyph-name="uni021A.smcp" horiz-adv-x="438" 
d="M332 446l-78 -446h-70l78 446h-146l10 58h362l-10 -58h-146zM170 -168l-15 19q33 27 40 48q-12 1 -18.5 11t-4.5 22q3 15 15 25.5t28 10.5q13 0 21.5 -9.5t5.5 -30.5q-7 -44 -72 -96z" />
    <glyph glyph-name="two.fitted" horiz-adv-x="530" 
d="M66 65l359 303q48 40 62 118q12 69 -19.5 112t-93.5 43q-61 0 -107 -43t-59 -112h-75q18 99 88 160t165 61q97 0 145 -61t31 -160q-18 -101 -97 -167l-303 -256h326l-11 -63h-422z" />
    <glyph glyph-name="three.fitted" horiz-adv-x="530" 
d="M279 349l10 62h46q51 0 88.5 32.5t46.5 83.5t-17.5 83t-76.5 32t-87.5 -32t-45.5 -83h-75q13 80 74.5 130t145.5 50q85 0 128 -50t29 -130q-9 -50 -38.5 -87.5t-72.5 -57.5q50 -22 72.5 -68.5t11.5 -110.5q-17 -94 -87.5 -152t-168.5 -58t-148 58t-34 152h75
q-11 -65 21.5 -105t96.5 -40t111.5 40t58.5 105t-21.5 105.5t-96.5 40.5h-46z" />
    <glyph glyph-name="four.fitted" horiz-adv-x="530" 
d="M350 0l23 136h-316l6 36l405 528h75l-89 -501h63l-11 -63h-60l-23 -136h-73zM158 199h228l70 390z" />
    <glyph glyph-name="five.fitted" horiz-adv-x="530" 
d="M514 214q-17 -99 -87 -160t-166 -61t-145.5 57.5t-32.5 149.5h72q-11 -62 21.5 -101.5t95.5 -39.5q62 0 108 43t59 112q13 75 -22.5 122t-105.5 47q-74 0 -125 -43l-49 21l104 339h307l-11 -63h-243l-67 -211q41 23 100 23q102 0 154 -65t33 -170z" />
    <glyph glyph-name="six.fitted" horiz-adv-x="530" 
d="M417 707l56 -36q-129 -144 -216 -261q38 20 84 20q98 0 148.5 -60t33.5 -158t-89 -158.5t-171 -60.5t-149.5 61t-31.5 164q16 89 77 175.5t241 294.5q11 13 17 19zM156 212q-12 -68 21 -111t98 -43t113 43t60 111q12 69 -21 112t-98 43t-113 -43t-60 -112z" />
    <glyph glyph-name="seven.fitted" horiz-adv-x="530" 
d="M165 637l11 63h424l-5 -27l-372 -673h-78l350 637h-330z" />
    <glyph glyph-name="eight.fitted" horiz-adv-x="530" 
d="M168 527q13 80 75 130t146 50q85 0 128.5 -50t29.5 -130q-9 -50 -38.5 -87.5t-72.5 -57.5q50 -22 73 -68.5t12 -110.5q-17 -94 -88 -152t-169 -58q-99 0 -150 58t-34 152q11 64 50 110.5t97 68.5q-79 43 -59 145zM155 203q-11 -64 22 -104.5t98 -40.5t112.5 40.5
t58.5 104.5t-22 104.5t-98 40.5t-112.5 -40.5t-58.5 -104.5zM243 527q-9 -51 17.5 -83t76.5 -32t88 32t47 83t-17.5 83t-77.5 32q-50 0 -87.5 -32t-46.5 -83z" />
    <glyph glyph-name="nine.fitted" horiz-adv-x="530" 
d="M235 -7l-57 36q127 139 217 261q-38 -20 -84 -20q-98 0 -148.5 60t-32.5 158q17 98 89 158.5t171 60.5t149 -61t31 -164q-15 -88 -74 -171.5t-235 -287.5q-17 -20 -26 -30zM496 488q12 68 -21 111t-98 43q-64 0 -112 -43t-60 -111q-12 -69 21 -112t98 -43t112.5 43
t59.5 112z" />
    <glyph glyph-name="guilsinglleft.case" horiz-adv-x="300" 
d="M237 179l-140 171l200 171l32 -38l-156 -133l109 -133z" />
    <glyph glyph-name="Uring.smcp" horiz-adv-x="519" 
d="M419 185l57 319h70l-56 -319q-15 -85 -79.5 -138t-153.5 -53q-88 0 -133.5 52.5t-30.5 138.5l56 319h70l-56 -319q-10 -57 19.5 -92.5t85.5 -35.5q57 0 99 35.5t52 92.5zM295 588q5 30 27 48t52 18q31 0 46 -18t10 -48t-27 -48t-52 -18t-45.5 18t-10.5 48zM326 587
q-2 -16 6 -25.5t24 -9.5q17 0 29 9.5t14 25.5q3 16 -5.5 26t-24.5 10q-36 0 -43 -36z" />
    <glyph glyph-name="Utilde.smcp" horiz-adv-x="519" 
d="M419 185l57 319h70l-56 -319q-15 -85 -79.5 -138t-153.5 -53q-88 0 -133.5 52.5t-30.5 138.5l56 319h70l-56 -319q-10 -57 19.5 -92.5t85.5 -35.5q57 0 99 35.5t52 92.5zM285 546h-37q4 30 26 49t52 19q24 0 42.5 -16.5t32.5 -16.5q29 0 36 30h38q-6 -31 -28.5 -49.5
t-52.5 -18.5q-24 0 -42 16.5t-32 16.5q-13 0 -23 -8.5t-12 -21.5z" />
    <glyph glyph-name="V.smcp" horiz-adv-x="586" 
d="M647 504l-321 -504h-66l-145 504h83l111 -411l255 411h83z" />
    <glyph glyph-name="W.smcp" horiz-adv-x="859" 
d="M921 504l-282 -504h-71l-72 382l-204 -382h-72l-105 504h82l77 -394l207 394h73l69 -394l216 394h82z" />
    <glyph glyph-name="Wacute.smcp" horiz-adv-x="859" 
d="M921 504l-282 -504h-71l-72 382l-204 -382h-72l-105 504h82l77 -394l207 394h73l69 -394l216 394h82zM476 562l116 95l29 -34l-117 -96z" />
    <glyph glyph-name="Wcircumflex.smcp" horiz-adv-x="859" 
d="M921 504l-282 -504h-71l-72 382l-204 -382h-72l-105 504h82l77 -394l207 394h73l69 -394l216 394h82zM545 657l82 -95l-41 -35l-54 62l-74 -62l-29 35z" />
    <glyph glyph-name="Wdieresis.smcp" horiz-adv-x="859" 
d="M921 504l-282 -504h-71l-72 382l-204 -382h-72l-105 504h82l77 -394l207 394h73l69 -394l216 394h82zM419 575q2 16 16 28t31 12q16 0 26 -11.5t8 -28.5q-4 -17 -17.5 -28.5t-30.5 -11.5t-27 11.5t-6 28.5zM561 575q3 17 17 28.5t30 11.5q17 0 27 -11.5t7 -28.5
t-17 -28.5t-31 -11.5t-26.5 11.5t-6.5 28.5z" />
    <glyph glyph-name="Wgrave.smcp" horiz-adv-x="859" 
d="M921 504l-282 -504h-71l-72 382l-204 -382h-72l-105 504h82l77 -394l207 394h73l69 -394l216 394h82zM497 657l83 -95l-41 -35l-82 96z" />
    <glyph glyph-name="X.smcp" horiz-adv-x="566" 
d="M447 0l-128 208l-200 -208h-91l247 255l-153 249h91l123 -200l192 200h92l-241 -249l159 -255h-91z" />
    <glyph glyph-name="Y.smcp" horiz-adv-x="524" 
d="M226 0l37 212l-148 292h81l115 -223l192 223h82l-252 -293l-36 -211h-71z" />
    <glyph glyph-name="Yacute.smcp" horiz-adv-x="524" 
d="M226 0l37 212l-148 292h81l115 -223l192 223h82l-252 -293l-36 -211h-71zM309 562l115 95l29 -34l-116 -96z" />
    <glyph glyph-name="Ycircumflex.smcp" horiz-adv-x="524" 
d="M226 0l37 212l-148 292h81l115 -223l192 223h82l-252 -293l-36 -211h-71zM377 657l82 -95l-41 -35l-53 62l-75 -62l-28 35z" />
    <glyph glyph-name="Ydieresis.smcp" horiz-adv-x="524" 
d="M226 0l37 212l-148 292h81l115 -223l192 223h82l-252 -293l-36 -211h-71zM251 575q3 17 17 28.5t30 11.5q17 0 26.5 -11.5t7.5 -28.5q-4 -17 -17.5 -28.5t-30.5 -11.5t-26.5 11.5t-6.5 28.5zM393 575q2 16 16 28t31 12t27 -11.5t7 -28.5t-17 -28.5t-31 -11.5t-27 11.5
t-6 28.5z" />
    <glyph glyph-name="Ygrave.smcp" horiz-adv-x="524" 
d="M226 0l37 212l-148 292h81l115 -223l192 223h82l-252 -293l-36 -211h-71zM330 657l82 -95l-41 -35l-82 96z" />
    <glyph glyph-name="Z.smcp" horiz-adv-x="489" 
d="M128 446l10 58h393l-4 -22l-369 -424h296l-10 -58h-399l4 22l368 424h-289z" />
    <glyph glyph-name="Zacute.smcp" horiz-adv-x="489" 
d="M128 446l10 58h393l-4 -22l-369 -424h296l-10 -58h-399l4 22l368 424h-289zM292 562l115 95l29 -34l-117 -96z" />
    <glyph glyph-name="Zcaron.smcp" horiz-adv-x="489" 
d="M128 446l10 58h393l-4 -22l-369 -424h296l-10 -58h-399l4 22l368 424h-289zM337 527l-82 96l41 34l53 -61l75 61l29 -34z" />
    <glyph glyph-name="Zdotaccent.smcp" horiz-adv-x="489" 
d="M128 446l10 58h393l-4 -22l-369 -424h296l-10 -58h-399l4 22l368 424h-289zM304 584q4 18 18 30.5t32 12.5t28.5 -12.5t7.5 -30.5q-3 -17 -17.5 -29.5t-32.5 -12.5t-28.5 12.5t-7.5 29.5z" />
    <glyph glyph-name="uni018F.smcp" horiz-adv-x="576" 
d="M574 252q-20 -115 -99.5 -186.5t-188.5 -71.5q-108 0 -162.5 71.5t-34.5 186.5l5 27h410q5 76 -40 122t-125 46q-90 0 -154 -54l-37 45q88 72 205 72q119 0 180 -71.5t41 -186.5zM297 57q68 0 122 44.5t74 118.5h-334q-5 -74 32 -118.5t106 -44.5z" />
    <glyph glyph-name="afii10017.smcp" horiz-adv-x="586" 
d="M478 0l-39 131h-248l-83 -131h-81l321 504h66l145 -504h-81zM365 413l-137 -219h198z" />
    <glyph glyph-name="afii10018.smcp" horiz-adv-x="424" 
d="M61 0l88 504h276l-10 -58h-203l-28 -156h87q71 0 107.5 -39.5t25.5 -105.5q-12 -66 -62 -105.5t-122 -39.5h-159zM331 145q7 38 -12.5 61t-58.5 23h-86l-30 -168h86q39 0 66.5 23t34.5 61z" />
    <glyph glyph-name="afii10019.smcp" horiz-adv-x="432" 
d="M61 0l88 504h151q65 0 98 -36t23 -96q-12 -70 -75 -106q37 -14 53.5 -47t8.5 -78q-10 -64 -59.5 -102.5t-118.5 -38.5h-169zM339 146q7 37 -13 60.5t-58 23.5h-94l-30 -169h94q39 0 66.5 23t34.5 62zM350 367q6 34 -11.5 55t-52.5 21h-74l-27 -152h74q35 0 60 21t31 55z
" />
    <glyph glyph-name="afii10020.smcp" horiz-adv-x="368" 
d="M61 0l88 504h269l-10 -58h-198l-79 -446h-70z" />
    <glyph glyph-name="afii10021.smcp" horiz-adv-x="532" 
d="M433 0h-334l-20 -108h-65l28 164q40 0 67.5 28.5t37.5 82.5l59 337h326l-78 -446h55l-30 -166h-66zM220 167q-13 -72 -60 -109h221l69 388h-181z" />
    <glyph glyph-name="afii10022.smcp" horiz-adv-x="388" 
d="M210 446l-29 -164h186l-10 -58h-187l-29 -166h214l-10 -58h-284l88 504h281l-10 -58h-210z" />
    <glyph glyph-name="afii10023.smcp" horiz-adv-x="388" 
d="M210 446l-29 -164h186l-10 -58h-187l-29 -166h214l-10 -58h-284l88 504h281l-10 -58h-210zM191 575q3 17 17 28.5t30 11.5q17 0 26.5 -11.5t7.5 -28.5q-4 -17 -17.5 -28.5t-30.5 -11.5t-26.5 11.5t-6.5 28.5zM333 575q3 17 17 28.5t30 11.5q17 0 27 -11.5t7 -28.5
t-17 -28.5t-31 -11.5t-26.5 11.5t-6.5 28.5z" />
    <glyph glyph-name="afii10024.smcp" horiz-adv-x="710" 
d="M320 0l88 504h70l-88 -504h-70zM598 0l-160 259l237 245h81l-236 -245l162 -259h-84zM363 259l-251 -259h-84l253 259l-151 245h81z" />
    <glyph glyph-name="afii10025.smcp" horiz-adv-x="432" 
d="M190 230l11 61h57q38 0 64 20.5t33 57.5q6 37 -13 58.5t-60 21.5q-62 0 -124 -51l-35 43q83 69 175 69q72 0 105.5 -37.5t23.5 -97.5q-13 -74 -81 -109q37 -15 53.5 -47.5t8.5 -78.5q-12 -67 -65 -106.5t-131 -39.5q-102 0 -163 72l52 44q47 -55 116 -55q50 0 82.5 25
t39.5 66q7 37 -13 60.5t-58 23.5h-78z" />
    <glyph glyph-name="afii10026.smcp" horiz-adv-x="546" 
d="M526 504h47l-88 -504h-71l65 370l-372 -370h-46l88 504h70l-64 -370z" />
    <glyph glyph-name="afii10027.smcp" horiz-adv-x="546" 
d="M376 586q46 0 80 29l28 -34q-53 -45 -117 -45t-102 45l40 34q27 -29 71 -29zM526 504h47l-88 -504h-71l65 370l-372 -370h-46l88 504h70l-64 -370z" />
    <glyph glyph-name="afii10028.smcp" horiz-adv-x="474" 
d="M59 0l88 504h71l-88 -504h-71zM355 0l-177 259l250 245h89l-251 -245l180 -259h-91z" />
    <glyph glyph-name="afii10029.smcp" horiz-adv-x="513" 
d="M36 0l7 45q40 0 67.5 22.5t34.5 62.5l66 374h329l-88 -504h-74l79 446h-183l-56 -313q-11 -62 -50 -99t-93 -37q-27 0 -39 3z" />
    <glyph glyph-name="afii10030.smcp" horiz-adv-x="622" 
d="M491 0l63 360l-210 -250h-28l-121 250l-64 -360h-70l88 504h53l145 -293l249 293h53l-88 -504h-70z" />
    <glyph glyph-name="afii10031.smcp" horiz-adv-x="535" 
d="M219 504l-38 -222h272l39 222h70l-88 -504h-70l39 224h-273l-39 -224h-70l88 504h70z" />
    <glyph glyph-name="afii10032.smcp" horiz-adv-x="623" 
d="M89 252q20 115 106.5 186.5t205.5 71.5q118 0 179 -71.5t41 -186.5t-106.5 -186.5t-204.5 -71.5q-119 0 -180 71.5t-41 186.5zM162 252q-16 -87 28 -141t130 -54t149.5 54t78.5 141q16 87 -28.5 141t-130.5 54t-148.5 -54t-78.5 -141z" />
    <glyph glyph-name="afii10033.smcp" horiz-adv-x="511" 
d="M149 504h389l-88 -504h-70l78 446h-248l-79 -446h-70z" />
    <glyph glyph-name="afii10034.smcp" horiz-adv-x="412" 
d="M61 0l88 504h148q71 0 108 -39.5t25 -105.5q-11 -66 -61.5 -105.5t-122.5 -39.5h-75l-37 -214h-73zM358 359q7 38 -13 61t-59 23h-74l-30 -168h74q39 0 67 23t35 61z" />
    <glyph glyph-name="afii10035.smcp" horiz-adv-x="543" 
d="M162 252q-16 -87 29.5 -141t132.5 -54q92 0 154 53l38 -44q-86 -72 -206 -72q-119 0 -180 71.5t-41 186.5t106.5 186.5t205.5 71.5q118 0 180 -72l-53 -45q-44 54 -135 54q-87 0 -151 -54t-80 -141z" />
    <glyph glyph-name="afii10036.smcp" horiz-adv-x="438" 
d="M332 446l-78 -446h-70l78 446h-146l10 58h362l-10 -58h-146z" />
    <glyph glyph-name="afii10037.smcp" horiz-adv-x="477" 
d="M540 504l-349 -504h-76l117 158l-119 346h75l93 -263l184 263h75z" />
    <glyph glyph-name="afii10038.smcp" horiz-adv-x="608" 
d="M269 0l8 48q-100 0 -152 56.5t-36 147.5t88 147.5t172 56.5l8 48h70l-8 -48q100 0 151.5 -56.5t35.5 -147.5t-87.5 -147.5t-171.5 -56.5l-8 -48h-70zM408 393l-50 -282q68 0 116.5 39t59.5 102t-24 102t-102 39zM288 111l49 282q-67 0 -115.5 -39t-59.5 -102t24 -102
t102 -39z" />
    <glyph glyph-name="afii10039.smcp" horiz-adv-x="566" 
d="M447 0l-128 208l-200 -208h-91l247 255l-153 249h91l123 -200l192 200h92l-241 -249l159 -255h-91z" />
    <glyph glyph-name="afii10040.smcp" horiz-adv-x="563" 
d="M464 0h-403l88 504h70l-78 -446h275l79 446h70l-78 -446h52l-29 -166h-66z" />
    <glyph glyph-name="afii10041.smcp" horiz-adv-x="453" 
d="M392 0h-68l38 220q-52 -13 -111 -13q-75 0 -107.5 40.5t-19.5 116.5l25 140h68l-24 -138q-18 -103 82 -103q55 0 97 13l40 228h68z" />
    <glyph glyph-name="afii10042.smcp" horiz-adv-x="771" 
d="M710 0h-649l88 504h70l-78 -446h219l78 446h71l-79 -446h220l78 446h70z" />
    <glyph glyph-name="afii10043.smcp" horiz-adv-x="796" 
d="M697 0h-636l88 504h70l-78 -446h219l78 446h71l-79 -446h220l78 446h70l-78 -446h53l-30 -166h-66z" />
    <glyph glyph-name="afii10044.smcp" horiz-adv-x="512" 
d="M116 446l10 58h188l-38 -214h82q71 0 108 -39.5t26 -105.5q-12 -66 -62 -105.5t-122 -39.5h-155l78 446h-115zM419 145q7 38 -12.5 61t-58.5 23h-82l-30 -168h82q39 0 67 23t34 61z" />
    <glyph glyph-name="afii10045.smcp" horiz-adv-x="576" 
d="M61 0l88 504h73l-38 -214h83q71 0 107.5 -39.5t25.5 -105.5t-61.5 -105.5t-121.5 -39.5h-156zM327 145q7 38 -12.5 61t-57.5 23h-83l-30 -168h83q38 0 65.5 23t34.5 61zM445 0l88 504h70l-88 -504h-70z" />
    <glyph glyph-name="afii10046.smcp" horiz-adv-x="420" 
d="M61 0l88 504h73l-38 -214h83q71 0 107.5 -39.5t25.5 -105.5t-61.5 -105.5t-121.5 -39.5h-156zM327 145q7 38 -12.5 61t-57.5 23h-83l-30 -168h83q38 0 65.5 23t34.5 61z" />
    <glyph glyph-name="afii10047.smcp" horiz-adv-x="543" 
d="M152 393l-38 45q88 72 206 72q119 0 180 -71.5t41 -186.5t-106.5 -186.5t-205.5 -71.5q-118 0 -180 72l52 44q47 -53 136 -53q80 0 141 45.5t83 121.5h-252l10 58h252q5 74 -40.5 119.5t-124.5 45.5q-90 0 -154 -54z" />
    <glyph glyph-name="afii10048.smcp" horiz-adv-x="792" 
d="M219 504l-38 -222h128q27 103 104.5 165.5t178.5 62.5q109 0 164 -71.5t35 -186.5t-100.5 -186.5t-189.5 -71.5q-102 0 -157 63t-45 167h-129l-39 -224h-70l88 504h70zM375 252q-16 -87 22 -141t114 -54q77 0 134.5 54t72.5 141q16 87 -22.5 141t-115.5 54
q-76 0 -132.5 -54t-72.5 -141z" />
    <glyph glyph-name="afii10049.smcp" horiz-adv-x="430" 
d="M457 504l-88 -504h-73l38 214h-72l-150 -214h-80l163 219q-50 11 -73.5 48.5t-13.5 91.5q12 66 62 105.5t122 39.5h165zM181 359q-7 -37 13 -60.5t58 -23.5h92l30 168h-92q-39 0 -67 -23t-34 -61z" />
    <glyph glyph-name="afii10050.smcp" horiz-adv-x="366" 
d="M210 446l-79 -446h-70l88 504h203l16 90h54l-26 -148h-186z" />
    <glyph glyph-name="afii10051.smcp" horiz-adv-x="537" 
d="M370 0l7 45q37 0 45 36l16 94q6 33 -11 54t-51 21q-50 0 -83 -28l-39 -222h-70l78 446h-146l10 58h362l-10 -58h-146l-29 -166q47 31 102 31q58 0 86.5 -37.5t17.5 -98.5l-17 -96q-7 -38 -32 -60t-63 -22q-21 0 -27 3z" />
    <glyph glyph-name="afii10052.smcp" horiz-adv-x="368" 
d="M242 562l115 95l28 -34l-116 -96zM61 0l88 504h269l-10 -58h-198l-79 -446h-70z" />
    <glyph glyph-name="afii10053.smcp" horiz-adv-x="543" 
d="M393 447q-80 0 -140.5 -45t-82.5 -120h296l-10 -58h-296q-5 -76 39 -121.5t125 -45.5q92 0 154 53l38 -44q-86 -72 -206 -72q-119 0 -180 71.5t-41 186.5t106.5 186.5t205.5 71.5q118 0 180 -72l-53 -45q-44 54 -135 54z" />
    <glyph glyph-name="afii10054.smcp" horiz-adv-x="424" 
d="M439 447l-52 -44q-37 44 -99 44q-42 0 -67.5 -23.5t-30.5 -52.5t17.5 -48.5t56.5 -32t68 -28t54.5 -45.5t12.5 -75q-11 -62 -61.5 -105t-129.5 -43q-101 0 -158 70l51 44q43 -51 111 -51q48 0 78 26t36 57q4 24 -11.5 41.5t-41.5 27t-56 23t-55 28t-38.5 43t-6.5 67.5
q10 59 56.5 99.5t118.5 40.5q93 0 147 -63z" />
    <glyph glyph-name="afii10055.smcp" horiz-adv-x="189" 
d="M59 0l88 504h71l-88 -504h-71z" />
    <glyph glyph-name="afii10056.smcp" horiz-adv-x="190" 
d="M60 0l88 504h70l-88 -504h-70zM94 575q3 17 17 28.5t31 11.5t26.5 -12t6.5 -28q-3 -17 -16.5 -28.5t-30.5 -11.5t-27 11.5t-7 28.5zM216 575q3 17 17 28.5t30 11.5q17 0 27 -11.5t8 -28.5q-4 -17 -18 -28.5t-31 -11.5t-26.5 11.5t-6.5 28.5z" />
    <glyph glyph-name="afii10057.smcp" horiz-adv-x="359" 
d="M253 140l64 364h70l-63 -364q-12 -65 -61.5 -105.5t-116.5 -40.5q-68 0 -102 41l53 45q18 -23 57 -23q38 0 65 23t34 60z" />
    <glyph glyph-name="afii10058.smcp" horiz-adv-x="728" 
d="M369 0l78 446h-173l-56 -313q-11 -62 -50 -99t-93 -37q-27 0 -39 3l7 45q40 0 67.5 22.5t34.5 62.5l66 374h318l-38 -214h83q72 0 108.5 -39.5t24.5 -105.5q-11 -66 -61 -105.5t-122 -39.5h-155zM634 145q7 37 -12.5 60.5t-57.5 23.5h-83l-30 -168h83q39 0 66.5 23
t33.5 61z" />
    <glyph glyph-name="afii10059.smcp" horiz-adv-x="725" 
d="M219 504l-37 -214h234l38 214h73l-38 -214h83q71 0 107.5 -39.5t25.5 -105.5q-12 -66 -62 -105.5t-121 -39.5h-156l40 229h-235l-40 -229h-70l88 504h70zM632 145q7 38 -12.5 61t-57.5 23h-83l-30 -168h83q39 0 66.5 23t33.5 61z" />
    <glyph glyph-name="afii10060.smcp" horiz-adv-x="537" 
d="M332 446l-29 -166q47 31 102 31q58 0 86.5 -37.5t17.5 -98.5l-30 -175h-71l30 175q6 33 -11 54t-51 21q-50 0 -83 -28l-39 -222h-70l78 446h-146l10 58h362l-10 -58h-146z" />
    <glyph glyph-name="afii10061.smcp" horiz-adv-x="474" 
d="M59 0l88 504h71l-88 -504h-71zM355 0l-177 259l250 245h89l-251 -245l180 -259h-91zM284 562l115 95l29 -34l-117 -96z" />
    <glyph glyph-name="afii10062.smcp" horiz-adv-x="477" 
d="M341 586q47 0 81 29l28 -34q-53 -45 -117 -45t-102 45l41 34q24 -29 69 -29zM540 504l-349 -504h-76l117 158l-119 346h75l93 -263l184 263h75z" />
    <glyph glyph-name="afii10145.smcp" horiz-adv-x="538" 
d="M237 0h-176l88 504h70l-78 -446h275l79 446h70l-88 -504h-175l-20 -108h-65z" />
    <glyph glyph-name="uni040D.smcp" horiz-adv-x="546" 
d="M341 657l82 -95l-41 -35l-81 96zM526 504h47l-88 -504h-71l65 370l-372 -370h-46l88 504h70l-64 -370z" />
    <glyph glyph-name="uni0400.smcp" horiz-adv-x="388" 
d="M210 446l-29 -164h186l-10 -58h-187l-29 -166h214l-10 -58h-284l88 504h281l-10 -58h-210zM270 657l83 -95l-42 -35l-81 96z" />
    <glyph glyph-name="uni04D8.smcp" horiz-adv-x="576" 
d="M574 252q-20 -115 -99.5 -186.5t-188.5 -71.5q-108 0 -162.5 71.5t-34.5 186.5l5 27h410q5 76 -40 122t-125 46q-90 0 -154 -54l-37 45q88 72 205 72q119 0 180 -71.5t41 -186.5zM297 57q68 0 122 44.5t74 118.5h-334q-5 -74 32 -118.5t106 -44.5z" />
    <glyph glyph-name="afii10056_afii10056.smcp" horiz-adv-x="379" 
d="M60 0l88 504h70l-88 -504h-70zM94 575q3 17 17 28.5t31 11.5t26.5 -12t6.5 -28q-3 -17 -16.5 -28.5t-30.5 -11.5t-27 11.5t-7 28.5zM249 0l88 504h71l-88 -504h-71zM406 575q2 17 16 28.5t31 11.5t27 -11.5t7 -28.5t-17 -28.5t-31 -11.5t-27 11.5t-6 28.5zM250 575
q2 17 16 28.5t31 11.5t27 -11.5t7 -28.5t-17 -28.5t-31 -11.5t-27 11.5t-6 28.5z" />
    <glyph glyph-name="afii10021.alt.smcp" horiz-adv-x="625" 
d="M527 0h-428l-20 -108h-65l29 166h41l283 446h67l127 -446h41l-30 -166h-65zM385 414l-220 -356h315z" />
    <glyph glyph-name="afii10029.alt.smcp" horiz-adv-x="586" 
d="M27 0l321 504h66l145 -504h-83l-111 411l-255 -411h-83z" />
    <glyph glyph-name="afii10058.alt.smcp" horiz-adv-x="777" 
d="M27 0l321 504h66l62 -214h147q71 0 108 -39.5t26 -105.5q-12 -66 -62 -105.5t-122 -39.5h-97l-111 411l-255 -411h-83zM613 229h-120l50 -168h40q39 0 66.5 23t34.5 61q7 37 -13 60.5t-58 23.5z" />
    <glyph glyph-name="Aringacute.smcp" horiz-adv-x="586" 
d="M369 633l116 96l28 -34l-92 -76q45 -11 37 -63q-8 -42 -42 -59l143 -497h-81l-39 131h-248l-83 -131h-81l317 498q-29 18 -21 58q4 23 19.5 40t38.5 22zM365 413l-137 -219h198zM354 555q-3 -16 5.5 -25.5t24.5 -9.5q17 0 29 9.5t15 25.5t-6 26t-26 10q-35 0 -42 -36z
" />
    <glyph glyph-name="germandbls.smcp" horiz-adv-x="464" 
d="M194 369l-64 -369h-71l65 369q10 63 58.5 102t115.5 39t102 -38.5t24 -100.5q-7 -42 -36.5 -73t-71.5 -44q-4 -23 9 -38t33.5 -24t41 -19t32.5 -31t6 -52q-7 -39 -43 -67.5t-90 -28.5q-71 0 -107 46l49 42q24 -31 63 -31q25 0 41 12.5t19 27.5q3 17 -10.5 29t-34 21
t-40.5 20.5t-31.5 34t-5.5 55.5l10 52q38 0 64.5 19.5t31.5 51.5q6 33 -12.5 54.5t-53.5 21.5t-61.5 -23t-32.5 -58z" />
    <glyph glyph-name="at.smcp" horiz-adv-x="614" 
d="M490 98l28 -32q-86 -72 -210 -72q-120 0 -181.5 71.5t-41.5 186.5t106.5 186.5t205.5 71.5t180 -68t43 -169q-13 -75 -57.5 -110t-94.5 -35q-47 0 -63 28q-36 -28 -82 -28q-53 0 -79.5 34t-16.5 90t52 90t101 34q73 0 100 -43l-23 -131q-2 -14 6.5 -21t23.5 -7
q25 0 47.5 22.5t30.5 69.5q16 87 -31.5 142.5t-143.5 55.5t-165 -58.5t-86 -153.5t32 -153.5t145 -58.5q103 0 174 58zM280 252q-7 -36 11 -57t54 -21q33 0 59 18l21 123q-18 15 -54 15q-35 0 -60 -21.5t-31 -56.5z" />
    <glyph glyph-name="parenleft.smcp" horiz-adv-x="241" 
d="M294 546l-9 -51q-32 0 -67 -69t-53 -175q-19 -108 -8.5 -175t42.5 -67l-9 -51q-63 0 -90.5 82t-4.5 212t79.5 212t119.5 82z" />
    <glyph glyph-name="parenright.smcp" horiz-adv-x="241" 
d="M130 495l9 51q63 0 91 -82.5t5 -211.5q-23 -130 -79.5 -212t-120.5 -82l10 51q32 0 66.5 68.5t53.5 174.5q18 109 7.5 176t-42.5 67z" />
    <glyph glyph-name="bracketleft.smcp" horiz-adv-x="243" 
d="M295 540l-9 -53h-73l-83 -470h72l-9 -53h-141l102 576h141z" />
    <glyph glyph-name="bracketright.smcp" horiz-adv-x="243" 
d="M129 487l9 53h141l-102 -576h-141l9 53h73l84 470h-73z" />
    <glyph glyph-name="braceleft.smcp" horiz-adv-x="255" 
d="M219 9l-9 -51q-54 0 -83.5 36t-19.5 92l9 51q7 38 -5 63t-34 25l9 51q22 0 42.5 25t27.5 64l9 53q10 56 52.5 92t95.5 36l-9 -51q-22 0 -42 -24.5t-27 -61.5l-9 -53q-7 -36 -29 -64t-54 -41q59 -29 45 -106l-8 -51q-7 -37 5 -61t34 -24z" />
    <glyph glyph-name="braceright.smcp" horiz-adv-x="255" 
d="M30 -42l9 51q22 0 42.5 24t27.5 61l8 51q13 76 82 106q-27 13 -39 41t-5 64l9 53q7 37 -5 61.5t-34 24.5l8 51q54 0 83.5 -36t19.5 -92l-9 -53q-7 -39 5 -64t34 -25l-9 -51q-22 0 -42.5 -25t-27.5 -63l-9 -51q-10 -56 -52 -92t-96 -36z" />
    <glyph glyph-name="exclamdown.smcp" horiz-adv-x="187" 
d="M132 467q4 18 18.5 30.5t32.5 12.5t28 -12.5t7 -30.5t-17.5 -30t-32.5 -12t-28.5 12.5t-7.5 29.5zM122 361h68l-63 -361h-68z" />
    <glyph glyph-name="questiondown.smcp" horiz-adv-x="376" 
d="M312 92l36 -44q-73 -54 -156 -54q-71 0 -105 38t-24 94q5 29 21 50.5t35 34.5t38.5 26.5t35 34t20.5 47.5l7 42h68l-7 -42q-8 -43 -31 -74.5t-47 -45.5t-44.5 -32.5t-24.5 -39.5q-5 -28 12 -50.5t58 -22.5q58 0 108 38zM316 467q-3 -17 -17.5 -29.5t-32.5 -12.5
t-28.5 12.5t-7.5 29.5q3 18 18 30.5t33 12.5t28 -12.5t7 -30.5z" />
    <glyph glyph-name="bar.smcp" horiz-adv-x="187" 
d="M52 -36l102 576h68l-102 -576h-68z" />
    <glyph glyph-name="brokenbar.smcp" horiz-adv-x="187" 
d="M52 -36l45 252h68l-45 -252h-68zM222 540l-45 -252h-68l45 252h68z" />
    <glyph glyph-name="dagger.smcp" horiz-adv-x="395" 
d="M109 337l10 53h112l27 150h68l-27 -150h113l-9 -53h-113l-66 -373h-68l66 373h-113z" />
    <glyph glyph-name="daggerdbl.smcp" horiz-adv-x="395" 
d="M71 121l10 53h112l29 163h-113l10 53h112l27 150h68l-27 -150h113l-9 -53h-113l-29 -163h113l-9 -53h-113l-28 -157h-68l28 157h-113z" />
    <glyph glyph-name="zero.smcp" horiz-adv-x="443" 
d="M89 252q20 115 81.5 186.5t140.5 71.5q78 0 114 -71.5t16 -186.5t-81.5 -186.5t-139.5 -71.5q-79 0 -115 71.5t-16 186.5zM160 252q-16 -88 3.5 -143t66.5 -55t86 55t55 143q16 87 -4 142.5t-67 55.5t-86 -55t-54 -143z" />
    <glyph glyph-name="one.smcp" horiz-adv-x="265" 
d="M109 430l9 54l155 23l-89 -507h-68l78 444z" />
    <glyph glyph-name="two.smcp" horiz-adv-x="409" 
d="M53 58l264 215q32 28 40 76q8 44 -13 72t-63 28q-41 0 -72 -28t-39 -72h-70q13 72 66 116.5t126 44.5t110.5 -44.5t24.5 -116.5q-13 -75 -71 -121l-209 -170h229l-10 -58h-322z" />
    <glyph glyph-name="three.smcp" horiz-adv-x="421" 
d="M218 243l10 58h34q34 0 59.5 21t31.5 53q5 33 -13 54t-52 21t-59.5 -21t-30.5 -54h-70q10 60 57.5 97.5t113.5 37.5t100.5 -37.5t23.5 -97.5q-13 -68 -78 -102q74 -36 58 -124q-12 -69 -66 -112t-129 -43t-114 43t-27 112h70q-7 -42 16 -68.5t66 -26.5t75 26.5t39 68.5
q8 41 -15 67.5t-66 26.5h-34z" />
    <glyph glyph-name="four.smcp" horiz-adv-x="436" 
d="M275 0l16 93h-238l6 32l301 379h69l-62 -353h45l-10 -58h-43l-16 -93h-68zM149 151h155l44 250z" />
    <glyph glyph-name="five.smcp" horiz-adv-x="409" 
d="M393 155q-13 -72 -66 -116.5t-126 -44.5t-111 42.5t-26 111.5h68q-7 -41 15.5 -67t64.5 -26q41 0 72.5 28t38.5 72q8 50 -16 80t-72 30q-49 0 -85 -28l-46 17l75 250h236l-10 -58h-176l-42 -131q28 11 63 11q78 0 117.5 -47t25.5 -124z" />
    <glyph glyph-name="six.smcp" horiz-adv-x="417" 
d="M316 510l53 -34q-89 -88 -156 -175q21 10 51 10q74 0 112.5 -43t25.5 -115q-12 -71 -66 -115t-129 -44q-76 0 -113.5 44t-24.5 121q13 74 68.5 150t178.5 201zM138 153q-8 -44 14.5 -71.5t65.5 -27.5t74.5 27.5t39.5 71.5t-14.5 72t-65.5 28t-75 -28t-39 -72z" />
    <glyph glyph-name="seven.smcp" horiz-adv-x="417" 
d="M124 446l9 58h327l-4 -22l-268 -482h-73l246 446h-237z" />
    <glyph glyph-name="eight.smcp" horiz-adv-x="422" 
d="M129 375q11 60 58 97.5t113 37.5q67 0 101.5 -37.5t23.5 -97.5q-13 -68 -78 -102q74 -36 58 -124q-12 -69 -66 -112t-130 -43q-74 0 -113.5 43t-27.5 112q17 89 102 124q-54 34 -41 102zM139 149q-7 -42 15.5 -68.5t65.5 -26.5q44 0 75.5 26.5t38.5 68.5q8 41 -14.5 67.5
t-65.5 26.5t-75 -26.5t-40 -67.5zM200 375q-6 -32 12 -52.5t52 -20.5t59.5 20.5t31.5 52.5q5 33 -13 54t-52 21t-59.5 -21t-30.5 -54z" />
    <glyph glyph-name="nine.smcp" horiz-adv-x="417" 
d="M189 -6l-53 34q89 88 156 175q-21 -10 -51 -10q-74 0 -112.5 43t-25.5 115q12 71 66 115t129 44q76 0 113.5 -44t24.5 -121q-13 -74 -68.5 -150t-178.5 -201zM367 351q8 44 -14.5 71.5t-65.5 27.5t-74.5 -27.5t-39.5 -71.5t14 -72t65 -28t75 28t40 72z" />
    <glyph glyph-name="dollar.smcp" horiz-adv-x="424" 
d="M178 -72l11 67q-89 6 -139 69l51 44q37 -46 99 -51l30 169q-30 12 -47 21t-37.5 26t-27.5 41t-1 56q10 56 53 95.5t110 43.5l12 67h39l-12 -68q76 -9 120 -61l-52 -44q-29 34 -79 42l-28 -161q26 -10 39 -16t33.5 -19t30 -26t15 -34t1.5 -47q-10 -58 -55 -99.5
t-115 -47.5l-12 -67h-39zM326 140q4 25 -11.5 41t-47.5 30l-27 -151q36 8 58.5 31t27.5 49zM190 371q-7 -43 53 -71l26 145q-34 -6 -54.5 -27.5t-24.5 -46.5z" />
    <glyph glyph-name="Euro.smcp" horiz-adv-x="577" 
d="M86 281l8 39h49q36 87 114.5 138.5t178.5 51.5q118 0 180 -72l-52 -45q-46 54 -136 54q-69 0 -124.5 -34t-84.5 -93h188l-7 -39h-196q-4 -12 -7 -29q-3 -15 -3 -29h196l-6 -39h-189q9 -59 52.5 -93t111.5 -34q91 0 155 53l37 -44q-88 -72 -206 -72q-100 0 -160.5 51.5
t-65.5 138.5h-49l7 39h43q2 20 4 29l6 29h-44z" />
    <glyph glyph-name="sterling.smcp" horiz-adv-x="407" 
d="M77 225l10 54h56l15 85q11 65 60.5 105.5t116.5 40.5q66 0 102 -41l-53 -45q-18 23 -57 23q-38 0 -65 -23t-34 -60l-15 -85h129l-10 -54h-129l-23 -133q14 -4 45 -22.5t51 -18.5q19 0 32 11.5t16 28.5h55q-7 -44 -38.5 -70.5t-72.5 -26.5q-33 0 -72 23t-59 23
q-18 0 -31 -10.5t-16 -29.5h-55q11 69 75 91l24 134h-57z" />
    <glyph glyph-name="yen.smcp" horiz-adv-x="524" 
d="M152 153l7 39h100l4 20l-148 292h81l115 -223l192 223h82l-252 -293l-4 -19h102l-7 -39h-101l-9 -52h101l-7 -39h-101l-10 -62h-71l11 62h-101l7 39h101l9 52h-101z" />
    <glyph glyph-name="uni20B4.smcp" horiz-adv-x="343" 
d="M88 278l6 39h156l10 8q34 28 39 58q5 29 -12.5 47.5t-50.5 18.5q-45 0 -79 -31l-36 43q55 49 126 49q64 0 98 -34.5t24 -89.5q-7 -39 -34 -69h24l-7 -39h-60l-62 -50h114l-7 -39h-154l-12 -10q-34 -27 -40 -58q-4 -29 13.5 -47.5t49.5 -18.5q46 0 80 31l35 -43
q-54 -49 -126 -49q-64 0 -97.5 34.5t-23.5 89.5q7 39 36 71h-26l7 39h62l61 50h-114z" />
    <glyph glyph-name="numbersign.smcp" horiz-adv-x="480" 
d="M259 0l39 119h-118l-40 -119h-68l39 119h-53l10 54h62l52 158h-61l10 54h69l41 119h68l-41 -119h119l40 119h68l-40 -119h54l-10 -54h-61l-53 -158h62l-10 -54h-70l-40 -119h-68zM251 331l-53 -158h119l52 158h-118z" />
    <glyph glyph-name="zero.fitted.smcp" horiz-adv-x="417" 
d="M80 252q20 115 80.5 186.5t137.5 71.5t112 -71.5t15 -186.5t-80.5 -186.5t-137.5 -71.5t-112 71.5t-15 186.5zM150 252q-15 -88 3.5 -143t64.5 -55q45 0 83 55t54 143q15 88 -3.5 143t-64.5 55t-83.5 -55t-53.5 -143z" />
    <glyph glyph-name="one.fitted.smcp" horiz-adv-x="417" 
d="M88 0l10 53h84l69 391l-94 -14l9 54l164 23l-80 -454h86l-10 -53h-238z" />
    <glyph glyph-name="two.fitted.smcp" horiz-adv-x="418" 
d="M57 58l265 215q32 27 41 76q8 44 -13.5 72t-63.5 28t-73 -28t-39 -72h-70q13 72 66 116.5t126 44.5q74 0 111.5 -44.5t24.5 -116.5t-74 -121l-210 -170h233l-10 -58h-324z" />
    <glyph glyph-name="three.fitted.smcp" horiz-adv-x="418" 
d="M217 243l9 58h34q34 0 60 21t32 53q5 33 -13 54t-52 21t-59.5 -21t-30.5 -54h-70q10 60 57.5 97.5t112.5 37.5q67 0 101.5 -37.5t23.5 -97.5q-13 -68 -78 -102q74 -36 58 -124q-12 -69 -66 -112t-130 -43q-74 0 -113 43t-27 112h70q-7 -42 15.5 -68.5t65.5 -26.5
q44 0 75.5 26.5t38.5 68.5q8 41 -14.5 67.5t-65.5 26.5h-34z" />
    <glyph glyph-name="four.fitted.smcp" horiz-adv-x="417" 
d="M265 0l16 93h-235l6 32l298 379h68l-61 -353h45l-11 -58h-42l-16 -93h-68zM142 151h152l44 250z" />
    <glyph glyph-name="five.fitted.smcp" horiz-adv-x="418" 
d="M398 155q-13 -72 -66 -116.5t-126 -44.5q-74 0 -112 42.5t-26 111.5h68q-7 -41 15.5 -67t64.5 -26t73.5 28t38.5 72q9 49 -16 79.5t-73 30.5q-49 0 -85 -28l-46 17l75 250h237l-10 -58h-177l-42 -131q28 11 63 11q79 0 118.5 -47t25.5 -124z" />
    <glyph glyph-name="six.fitted.smcp" horiz-adv-x="418" 
d="M317 510l52 -34q-95 -95 -156 -175q21 10 51 10q75 0 114 -43.5t26 -114.5t-67.5 -115t-129.5 -44t-113.5 44.5t-25.5 120.5q13 74 69 149.5t180 201.5zM138 153q-8 -44 14.5 -71.5t65.5 -27.5t75.5 27.5t40.5 71.5q7 44 -15.5 72t-65.5 28t-75 -28t-40 -72z" />
    <glyph glyph-name="seven.fitted.smcp" horiz-adv-x="417" 
d="M124 446l10 58h325l-3 -22l-269 -482h-72l246 446h-237z" />
    <glyph glyph-name="eight.fitted.smcp" horiz-adv-x="418" 
d="M127 375q10 60 58 97.5t113 37.5q66 0 100.5 -37.5t24.5 -97.5q-13 -68 -78 -102q74 -36 58 -124q-12 -69 -66 -112t-129 -43q-76 0 -115 43t-27 112q16 88 101 124q-53 34 -40 102zM136 149q-7 -42 16 -68.5t66 -26.5t75 26.5t40 68.5q8 41 -15 67.5t-66 26.5
t-75.5 -26.5t-40.5 -67.5zM197 375q-6 -32 12.5 -52.5t52.5 -20.5t59 20.5t31 52.5q5 33 -12.5 54t-51.5 21t-60 -21t-31 -54z" />
    <glyph glyph-name="nine.fitted.smcp" horiz-adv-x="417" 
d="M189 -6l-53 34q89 88 156 175q-21 -10 -51 -10q-74 0 -112.5 43t-25.5 115q12 71 66 115t130 44q75 0 113 -44.5t25 -120.5q-13 -74 -68.5 -149.5t-179.5 -201.5zM367 351q8 44 -14.5 71.5t-65.5 27.5t-74.5 -27.5t-39.5 -71.5t14 -72t65 -28t75 28t40 72z" />
    <glyph glyph-name="exclam.smcp" horiz-adv-x="187" 
d="M57 37q2 17 17 29.5t33 12.5t28 -12.5t7 -29.5q-3 -18 -17.5 -30.5t-32.5 -12.5t-28.5 12.5t-6.5 30.5zM84 143l63 361h68l-63 -361h-68z" />
    <glyph glyph-name="ampersand.smcp" horiz-adv-x="468" 
d="M301 243l9 58h173l-10 -58h-51l-17 -94q-12 -69 -66 -112t-130 -43q-74 0 -113.5 43t-27.5 112q16 88 103 124q-55 34 -42 102q11 60 58 97.5t113 37.5q67 0 101.5 -37.5t23.5 -97.5h-70q5 33 -13 54t-52 21t-59.5 -21t-30.5 -54q-6 -32 11.5 -53t51.5 -21h21l-10 -58
h-20q-43 0 -75 -26.5t-40 -67.5q-7 -42 15.5 -68.5t65.5 -26.5q44 0 75.5 26.5t38.5 68.5l18 94h-51z" />
    <glyph glyph-name="slash.smcp" horiz-adv-x="436" 
d="M37 -36l382 576h68l-381 -576h-69z" />
    <glyph glyph-name="backslash.smcp" horiz-adv-x="436" 
d="M208 540l177 -576h-68l-178 576h69z" />
    <glyph glyph-name="question.smcp" horiz-adv-x="376" 
d="M151 412l-36 44q73 54 157 54q71 0 104.5 -38t23.5 -94q-6 -35 -28.5 -60.5t-46.5 -38t-46.5 -37t-28.5 -57.5l-7 -42h-68l7 42q8 43 31 74.5t47 45.5t44.5 32.5t24.5 39.5q6 28 -11.5 50.5t-57.5 22.5q-57 0 -109 -38zM147 37q3 17 17.5 29.5t32.5 12.5t28 -12.5
t8 -29.5q-4 -18 -18 -30.5t-32 -12.5t-29 12.5t-7 30.5z" />
    <glyph glyph-name="percent.smcp" horiz-adv-x="676" 
d="M165 0l366 504h69l-367 -504h-68zM105 384q10 56 52.5 91t101.5 35t89.5 -35t20.5 -91t-53 -91t-102 -35q-58 0 -88.5 35t-20.5 91zM166 384q-6 -34 10 -54.5t48 -20.5t55 20.5t29 54.5q6 33 -10 54t-48 21q-31 0 -54.5 -21t-29.5 -54zM395 120q11 56 53.5 91t101.5 35
q58 0 88.5 -35t20.5 -91q-11 -56 -53.5 -91t-100.5 -35q-59 0 -89.5 35t-20.5 91zM457 120q-6 -33 10 -54t47 -21t55 21t30 54q5 34 -11 54.5t-48 20.5q-31 0 -54.5 -21t-28.5 -54z" />
    <glyph glyph-name="perthousand.smcp" horiz-adv-x="974" 
d="M165 0l366 504h69l-367 -504h-68zM105 384q10 56 52.5 91t101.5 35t89.5 -35t20.5 -91t-53 -91t-102 -35q-58 0 -88.5 35t-20.5 91zM166 384q-6 -34 10 -54.5t48 -20.5t55 20.5t29 54.5q6 33 -10 54t-48 21q-31 0 -54.5 -21t-29.5 -54zM395 120q11 56 53.5 91t101.5 35
q58 0 88.5 -35t20.5 -91q-11 -56 -53.5 -91t-100.5 -35q-59 0 -89.5 35t-20.5 91zM457 120q-6 -33 10 -54t47 -21t55 21t30 54q5 34 -11 54.5t-48 20.5q-31 0 -54.5 -21t-28.5 -54zM694 120q10 56 52 91t101 35t89.5 -35t20.5 -91t-52.5 -91t-101.5 -35t-89 35t-20 91z
M754 120q-6 -33 10 -54t48 -21q31 0 54.5 21t29.5 54q6 34 -10 54.5t-48 20.5t-55 -20.5t-29 -54.5z" />
    <glyph glyph-name="section.smcp" horiz-adv-x="340" 
d="M195 319l127 -146l-54 -44l-127 146q-43 49 -32 108q10 56 56 91.5t110 35.5q73 0 109 -49l-51 -43q-23 31 -69 31q-32 0 -56 -19t-29 -48q-7 -37 16 -63zM201 5l-126 146l53 45l127 -147q44 -49 32 -108q-10 -56 -56 -91.5t-110 -35.5q-73 0 -108 49l50 43
q23 -31 69 -31q32 0 56 19t29 48q7 37 -16 63z" />
    <glyph glyph-name="paragraph.smcp" horiz-adv-x="468" 
d="M374 504l-88 -504h-66l39 224h-19q-69 0 -104.5 38t-24.5 102q10 63 59.5 101.5t118.5 38.5h85zM343 0l88 504h66l-88 -504h-66z" />
    <glyph glyph-name="quoteright_afii10056.smcp" horiz-adv-x="274" 
d="M144 0l88 504h70l-88 -504h-70zM300 575q3 17 17 28.5t30 11.5q17 0 27 -11.5t8 -28.5q-4 -17 -18 -28.5t-31 -11.5t-26.5 11.5t-6.5 28.5zM112 491l-21 26q46 38 60 73q-17 2 -27 15.5t-7 32.5q5 21 21.5 35t37.5 14q20 0 32 -14.5t6 -42.5q-10 -62 -102 -139z" />
    <glyph glyph-name="zero.sub" horiz-adv-x="302" 
d="M56 125q14 80 55 129.5t93 49.5t76 -49.5t10 -129.5t-55.5 -129.5t-93.5 -49.5t-75.5 49.5t-9.5 129.5zM101 125q-11 -62 2 -100.5t45 -38.5t58.5 38.5t37.5 100.5t-2 100.5t-45 38.5t-59 -38.5t-37 -100.5z" />
    <glyph glyph-name="one.sub" horiz-adv-x="182" 
d="M70 251l6 35l102 16l-62 -352h-44l55 311z" />
    <glyph glyph-name="two.sub" horiz-adv-x="279" 
d="M30 -12l177 150q22 18 28 54q5 32 -8.5 52t-41.5 20q-29 0 -50 -20t-26 -52h-46q9 50 44.5 81t84.5 31q48 0 72.5 -31t16.5 -81q-9 -51 -49 -83l-141 -121h153l-6 -38h-214z" />
    <glyph glyph-name="three.sub" horiz-adv-x="287" 
d="M141 121l7 37h23q23 0 40 15t22 39q4 23 -8 37.5t-35 14.5t-40 -14.5t-22 -37.5h-46q8 41 39.5 66.5t74.5 25.5q44 0 67 -25.5t15 -66.5q-9 -49 -52 -72q48 -24 38 -87q-8 -48 -44.5 -77.5t-86.5 -29.5t-75.5 29.5t-16.5 77.5h45q-5 -30 10.5 -48.5t44.5 -18.5t51 18.5
t27 48.5t-10 49t-45 19h-23z" />
    <glyph glyph-name="four.sub" horiz-adv-x="297" 
d="M178 -50l11 66h-158l4 20l202 264h44l-43 -247h31l-7 -37h-29l-11 -66h-44zM93 53h105l32 180z" />
    <glyph glyph-name="five.sub" horiz-adv-x="279" 
d="M257 58q-9 -50 -44.5 -81t-83.5 -31q-49 0 -74 29.5t-16 76.5h44q-5 -29 9.5 -47.5t43.5 -18.5q28 0 49 20t26 52q6 34 -10 56t-48 22q-35 0 -58 -20l-30 12l51 172h157l-7 -38h-118l-29 -95q19 9 43 9q52 0 78 -32.5t17 -85.5z" />
    <glyph glyph-name="six.sub" horiz-adv-x="286" 
d="M209 304l33 -22q-68 -75 -105 -124q14 7 35 7q49 0 75 -30t17 -79t-45 -79.5t-86 -30.5t-75.5 30.5t-15.5 83.5q8 49 43 98t124 146zM87 56q-6 -31 9 -50.5t44 -19.5t50.5 19t27.5 51q5 32 -9.5 52t-43.5 20t-51 -20t-27 -52z" />
    <glyph glyph-name="seven.sub" horiz-adv-x="284" 
d="M79 262l7 38h216l-2 -14l-182 -336h-47l167 312h-159z" />
    <glyph glyph-name="eight.sub" horiz-adv-x="288" 
d="M83 212q7 41 39 66.5t75 25.5q44 0 66.5 -26t15.5 -66q-9 -49 -53 -72q49 -25 39 -87q-9 -48 -45 -77.5t-86 -29.5t-75.5 29.5t-17.5 77.5q10 63 69 87q-37 24 -27 72zM87 53q-5 -30 10 -48.5t44 -18.5q30 0 51.5 18.5t26.5 48.5t-10 48.5t-44 18.5t-51 -18.5t-27 -48.5z
M129 212q-4 -24 7.5 -38.5t34.5 -14.5q24 0 41.5 14.5t21.5 38.5q4 23 -8.5 37.5t-35.5 14.5t-40 -14.5t-21 -37.5z" />
    <glyph glyph-name="nine.sub" horiz-adv-x="286" 
d="M120 -54l-34 22q66 70 106 124q-14 -7 -35 -7q-50 0 -75 30t-16 79q8 49 44 79.5t86 30.5t75.5 -30.5t15.5 -83.5q-8 -49 -43 -98t-124 -146zM242 194q5 32 -9.5 51t-43.5 19t-51 -19.5t-27 -50.5q-6 -32 9 -52t44 -20t50.5 20t27.5 52z" />
    <glyph glyph-name="comma.sub" horiz-adv-x="131" 
d="M31 -106l-12 14q24 22 31 39q-21 4 -18 27q2 12 12 20t22 8q11 0 17.5 -8t3.5 -24q-6 -34 -56 -76z" />
    <glyph glyph-name="period.sub" horiz-adv-x="131" 
d="M32 -26q2 12 12 20t21 8q12 0 18.5 -8t4.5 -20q-1 -12 -11 -20t-22 -8q-11 0 -17.5 8t-5.5 20z" />
    <glyph glyph-name="parenleft.sub" horiz-adv-x="167" 
d="M192 329l-6 -33q-21 0 -45 -48.5t-36 -122.5q-14 -77 -7.5 -124t28.5 -47l-6 -33q-41 0 -59 57.5t-2 146.5t54 146.5t79 57.5z" />
    <glyph glyph-name="parenright.sub" horiz-adv-x="167" 
d="M84 296l6 33q42 0 60 -57t2 -147t-54 -147t-80 -57l6 33q22 0 45.5 48t36.5 123q13 77 6.5 124t-28.5 47z" />
    <glyph glyph-name="hyphen.sub" horiz-adv-x="189" 
d="M56 107l6 36h115l-6 -36h-115z" />
    <glyph glyph-name="zero.sup" horiz-adv-x="302" 
d="M126 525q14 80 55.5 129.5t93.5 49.5t75.5 -50t9.5 -129q-14 -80 -55 -129.5t-93 -49.5t-76 49.5t-10 129.5zM171 525q-11 -63 2 -101t45 -38t59 38.5t37 100.5q11 62 -1.5 100.5t-44.5 38.5t-59 -38.5t-38 -100.5z" />
    <glyph glyph-name="one.sup" horiz-adv-x="182" 
d="M141 651l6 35l101 16l-62 -352h-44l55 311z" />
    <glyph glyph-name="two.sup" horiz-adv-x="279" 
d="M101 388l176 150q23 19 28 54q6 32 -7.5 52t-41.5 20t-49.5 -20t-27.5 -52h-46q10 50 45 81t84 31t73.5 -31t15.5 -81t-48 -83l-142 -121h154l-7 -38h-214z" />
    <glyph glyph-name="three.sup" horiz-adv-x="287" 
d="M211 521l7 37h23q24 0 40.5 15t21.5 39q4 23 -8 37.5t-35 14.5t-40 -14.5t-22 -37.5h-46q8 41 40 66.5t75 25.5t66 -25.5t15 -66.5q-7 -49 -52 -72q49 -25 39 -87q-9 -48 -45 -77.5t-86 -29.5t-75.5 29.5t-17.5 77.5h46q-5 -30 10 -48.5t44 -18.5t51 18.5t27 48.5t-10 49
t-45 19h-23z" />
    <glyph glyph-name="four.sup" horiz-adv-x="297" 
d="M248 350l12 66h-158l3 20l203 264h44l-43 -247h30l-6 -37h-29l-12 -66h-44zM163 453h105l32 180z" />
    <glyph glyph-name="five.sup" horiz-adv-x="279" 
d="M328 458q-9 -50 -44.5 -81t-84.5 -31t-73.5 29.5t-16.5 76.5h44q-5 -29 9.5 -47.5t43.5 -18.5q28 0 49 20t27 52q6 34 -10 56t-48 22q-35 0 -58 -20l-30 12l51 172h157l-7 -38h-118l-29 -95q18 9 43 9q52 0 78 -32.5t17 -85.5z" />
    <glyph glyph-name="six.sup" horiz-adv-x="286" 
d="M279 704l34 -22q-61 -65 -105 -124q14 7 35 7q49 0 74.5 -30t16.5 -79t-45 -79.5t-86 -30.5t-75 30.5t-16 83.5q9 49 44 98t123 146zM157 456q-5 -31 9.5 -50.5t43.5 -19.5t51 19.5t27 50.5q6 32 -8.5 52t-43.5 20t-51 -20t-28 -52z" />
    <glyph glyph-name="seven.sup" horiz-adv-x="284" 
d="M150 662l7 38h216l-2 -14l-183 -336h-47l168 312h-159z" />
    <glyph glyph-name="eight.sup" horiz-adv-x="288" 
d="M153 612q8 41 39.5 66.5t74.5 25.5q44 0 67 -25.5t15 -66.5q-7 -48 -53 -72q51 -25 39 -87q-8 -48 -44.5 -77.5t-86.5 -29.5t-75.5 29.5t-16.5 77.5q10 62 68 87q-36 23 -27 72zM157 453q-5 -30 10 -48.5t44 -18.5q30 0 52 18.5t27 48.5t-10 48.5t-45 18.5
q-29 0 -51 -18.5t-27 -48.5zM199 612q-4 -24 8 -38.5t35 -14.5t40.5 14.5t21.5 38.5q4 23 -8 37.5t-35 14.5t-40.5 -14.5t-21.5 -37.5z" />
    <glyph glyph-name="nine.sup" horiz-adv-x="286" 
d="M191 346l-35 22q60 62 106 124q-14 -7 -35 -7q-50 0 -75 30t-16 79t45 79.5t85 30.5q50 0 75.5 -30.5t16.5 -83.5q-9 -49 -44 -98t-123 -146zM312 594q6 31 -8.5 50.5t-43.5 19.5t-51 -19.5t-28 -50.5q-5 -32 10 -52t44 -20t50.5 20t26.5 52z" />
    <glyph glyph-name="comma.sup" horiz-adv-x="131" 
d="M102 294l-13 14q25 24 32 39q-23 4 -18 27q1 12 11 20t22 8q27 0 22 -32q-6 -34 -56 -76z" />
    </font>
</defs>
</svg>
